SplineFontDB: 3.2
FontName: StickSans
FullName: StickSans
FamilyName: StickSans
Weight: Regular
Copyright: Copyright (c) 2025, Alex Rayner \n\nThis work is licensed under Creative Commons Attribution-ShareAlike 4.0 International. To view a copy of this license, visit https://creativecommons.org/licenses/by-sa/4.0/
UComments: "meow"
Version: 001.003
ItalicAngle: 0
UnderlinePosition: -100
UnderlineWidth: 50
Ascent: 800
Descent: 200
InvalidEm: 0
sfntRevision: 0x00010083
LayerCount: 2
Layer: 0 0 "Back" 1
Layer: 1 0 "Fore" 0
XUID: [1021 816 1297562381 8091084]
StyleMap: 0x0000
FSType: 0
OS2Version: 4
OS2_WeightWidthSlopeOnly: 0
OS2_UseTypoMetrics: 1
CreationTime: 1743081072
ModificationTime: 1744497485
PfmFamily: 17
TTFWeight: 400
TTFWidth: 5
LineGap: 90
VLineGap: 0
Panose: 2 0 5 3 0 0 0 0 0 0
OS2TypoAscent: 800
OS2TypoAOffset: 0
OS2TypoDescent: -200
OS2TypoDOffset: 0
OS2TypoLinegap: 90
OS2WinAscent: 742
OS2WinAOffset: 0
OS2WinDescent: 374
OS2WinDOffset: 0
HheadAscent: 742
HheadAOffset: 0
HheadDescent: -374
HheadDOffset: 0
OS2SubXSize: 650
OS2SubYSize: 700
OS2SubXOff: 0
OS2SubYOff: 140
OS2SupXSize: 650
OS2SupYSize: 700
OS2SupXOff: 0
OS2SupYOff: 480
OS2StrikeYSize: 49
OS2StrikeYPos: 258
OS2CapHeight: 720
OS2XHeight: 430
OS2Vendor: 'PfEd'
OS2CodePages: 00000001.00000000
OS2UnicodeRanges: 00000003.00000000.00000000.00000000
Lookup: 258 0 0 "'kern' Horizontal Kerning in Latin lookup 0" { "'kern' Horizontal Kerning in Latin lookup 0 per glyph data 0"  "'kern' Horizontal Kerning in Latin lookup 0 per glyph data 1"  "'kern' Horizontal Kerning in Latin lookup 0 per glyph data 2"  } ['kern' ('DFLT' <'dflt' > 'latn' <'dflt' > ) ]
MarkAttachClasses: 1
DEI: 91125
LangName: 1033 "" "" "" "FontForge 2.0 : StickSans : 1-4-2025" "" "Version 001.002"
Encoding: UnicodeBmp
UnicodeInterp: none
NameList: AGL For New Fonts
DisplaySize: -48
AntiAlias: 1
FitToEm: 0
WinInfo: 64 16 4
BeginPrivate: 8
BlueValues 23 [-21 6 413 438 713 728]
OtherBlues 11 [-374 -324]
BlueScale 9 0.0208333

StartChar: .notdef
Encoding: 65536 -1 0
Width: 500
GlyphClass: 1
Flags: MW
HStem: 0 50<100 400 100 450> 483 50<100 400 100 100>
VStem: 50 50<50 50 50 483> 400 50<50 483 483 483>
LayerCount: 2
Fore
SplineSet
50 0 m 1
 50 533 l 1
 450 533 l 1
 450 0 l 1
 50 0 l 1
100 50 m 1
 400 50 l 1
 400 483 l 1
 100 483 l 1
 100 50 l 1
EndSplineSet
Validated: 1
EndChar

StartChar: exclam
Encoding: 33 33 2
Width: 1000
GlyphClass: 1
Flags: MW
VStem: 512.571 34.2861
LayerCount: 2
Fore
SplineSet
672.286132812 719.142578125 m 1
 546.857421875 231.428710938 l 1
 512.571289062 242.286132812 l 1
 508.857421875 249.428710938 534.857421875 282.286132812 518.857421875 289.142578125 c 1
 520.286132812 262.286132812 505.713867188 273.713867188 486.857421875 275.428710938 c 0
 484.857421875 274 490.286132812 229.713867188 474.571289062 229.142578125 c 1
 466.857421875 268.286132812 446 303.428710938 436 345.142578125 c 0
 408 460.857421875 402.857421875 583.142578125 382 700 c 1
 672.286132812 718.857421875 l 1
 672.286132812 719.142578125 l 1
643.142578125 680.857421875 m 1
 619.713867188 684 l 1
 580 521.142578125 l 1
 591.428710938 522.286132812 594 534.286132812 598 542.571289062 c 0
 617.142578125 583.428710938 628.286132812 637.428710938 643.428710938 680.571289062 c 1
 643.142578125 680.857421875 l 1
454.286132812 664.857421875 m 1
 457.142578125 682 l 1
 425.713867188 671.142578125 l 1
 433.428710938 661.142578125 l 1
 454.286132812 665.142578125 l 1
 454.286132812 664.857421875 l 1
550.571289062 615.428710938 m 1
 567.428710938 617.713867188 558.857421875 631.428710938 560.286132812 644 c 1
 554.571289062 644.857421875 l 1
 550.571289062 615.428710938 l 1
447.428710938 653.142578125 m 1
 429.428710938 652.571289062 l 1
 448 541.428710938 446.286132812 426.857421875 467.713867188 316.286132812 c 0
 469.713867188 306.857421875 460.286132812 300 478.286132812 300.857421875 c 1
 447.428710938 653.142578125 l 1
550 170.286132812 m 1
 556.286132812 124.857421875 540 27.142578125 492.571289062 8.2861328125 c 0
 477.428710938 2.2861328125 436.857421875 -4.5712890625 437.428710938 18.857421875 c 0
 438 42.2861328125 427.713867188 88 434.857421875 104.286132812 c 0
 438.857421875 113.713867188 456 120.286132812 464 129.142578125 c 0
 489.713867188 158.286132812 499.142578125 185.713867188 550.286132812 170.571289062 c 1
 550 170.286132812 l 1
EndSplineSet
Validated: 524325
EndChar

StartChar: comma
Encoding: 44 44 3
Width: 1000
GlyphClass: 1
Flags: MW
VStem: 430.286 132.571
LayerCount: 2
Fore
SplineSet
554.571289062 55.4287109375 m 1
 554.571289062 47.142578125 l 1
 546.286132812 43.142578125 l 1
 562.857421875 30.857421875 l 1
 546.571289062 30.857421875 l 1
 545.428710938 26.857421875 545.713867188 22.5712890625 543.428710938 18.857421875 c 0
 536 6.5712890625 509.428710938 -26.857421875 498.857421875 -36.5712890625 c 0
 471.713867188 -61.7138671875 476.857421875 -34.2861328125 446.857421875 -38.2861328125 c 1
 452.286132812 -27.4287109375 l 1
 442.286132812 -24.857421875 433.713867188 -18 430.286132812 -8 c 1
 446.286132812 -10.2861328125 l 1
 464.286132812 14.857421875 489.713867188 36.857421875 515.713867188 54.2861328125 c 1
 507.428710938 61.142578125 l 1
 554.286132812 55.7138671875 l 1
 554.571289062 55.4287109375 l 1
468.286132812 -12.857421875 m 0
 469.142578125 -10.5712890625 470.571289062 -6 467.713867188 -5.142578125 c 2
 455.428710938 -18.857421875 l 1
 458.857421875 -21.142578125 467.713867188 -14.2861328125 468.286132812 -12.857421875 c 0
494 -19.142578125 m 1
 477.428710938 -30 l 1
 488 -32.2861328125 489.713867188 -27.142578125 494 -19.142578125 c 1
EndSplineSet
Validated: 524321
EndChar

StartChar: period
Encoding: 46 46 4
Width: 1000
GlyphClass: 1
Flags: MW
HStem: 0.857422 43.1426
VStem: 429.714 137.715
LayerCount: 2
Fore
SplineSet
429.713867188 18.857421875 m 1
 429.713867188 22.2861328125 l 1
 441.428710938 20.5712890625 435.713867188 35.142578125 438.571289062 44.2861328125 c 0
 445.142578125 64.857421875 452.857421875 83.142578125 466.286132812 100.286132812 c 0
 469.142578125 103.713867188 489.713867188 125.142578125 491.713867188 126 c 0
 495.428710938 127.713867188 498.286132812 121.142578125 503.713867188 121.142578125 c 0
 512 121.142578125 517.142578125 125.428710938 529.142578125 123.142578125 c 0
 545.713867188 120 569.713867188 88.2861328125 567.428710938 72 c 0
 566.857421875 68 562.286132812 64 561.713867188 59.4287109375 c 0
 560.857421875 54.5712890625 564.571289062 50 562.857421875 44 c 0
 556.286132812 21.7138671875 516 0.5712890625 493.713867188 0.857421875 c 0
 473.428710938 0.857421875 454.857421875 26.857421875 430.286132812 18.5712890625 c 1
 429.713867188 18.857421875 l 1
502.286132812 102.286132812 m 0
 492 104.857421875 485.142578125 83.7138671875 487.713867188 80.5712890625 c 0
 493.713867188 73.7138671875 503.142578125 99.142578125 502.286132812 102.286132812 c 0
527.713867188 102.286132812 m 1
 516.571289062 93.4287109375 l 1
 487.713867188 33.4287109375 l 1
 491.142578125 30.2861328125 496.286132812 32.857421875 499.428710938 38 c 0
 504.286132812 45.4287109375 530.857421875 98.5712890625 527.428710938 102.286132812 c 1
 527.713867188 102.286132812 l 1
546 69.4287109375 m 1
 528 44 l 1
 540.571289062 43.7138671875 544.571289062 59.4287109375 546 69.4287109375 c 1
EndSplineSet
Validated: 524325
PairPos2: "'kern' Horizontal Kerning in Latin lookup 0 per glyph data 2" period dx=0 dy=0 dh=-843 dv=0 dx=0 dy=0 dh=0 dv=0
PairPos2: "'kern' Horizontal Kerning in Latin lookup 0 per glyph data 2" comma dx=0 dy=0 dh=-841 dv=0 dx=0 dy=0 dh=0 dv=0
EndChar

StartChar: slash
Encoding: 47 47 5
Width: 1000
GlyphClass: 1
Flags: MW
HStem: 713.143 20G
LayerCount: 2
Fore
SplineSet
549.428710938 726.571289062 m 1
 545.428710938 709.713867188 l 1
 566.286132812 702.286132812 586 691.713867188 606.857421875 684.571289062 c 0
 620 680 655.713867188 687.142578125 653.713867188 660.286132812 c 0
 651.713867188 633.428710938 608 558.571289062 596 528 c 0
 534.571289062 374.857421875 460.571289062 196.286132812 474.857421875 30.2861328125 c 0
 476.857421875 7.142578125 488.857421875 -16.5712890625 479.142578125 -38.2861328125 c 1
 464.857421875 -14 425.428710938 -15.142578125 399.428710938 -3.4287109375 c 0
 383.142578125 4 312.571289062 45.4287109375 308 58.857421875 c 0
 307.713867188 60 310.857421875 72 316.286132812 67.142578125 c 0
 330.857421875 57.4287109375 337.142578125 76.857421875 344.286132812 88.2861328125 c 1
 383.428710938 281.428710938 423.428710938 477.142578125 497.428710938 660.857421875 c 0
 508 686.857421875 518.857421875 709.713867188 534.286132812 733.142578125 c 1
 549.713867188 726.571289062 l 1
 549.428710938 726.571289062 l 1
454.286132812 445.428710938 m 1
 547.142578125 663.713867188 l 2
 548 665.428710938 564.571289062 668.571289062 562.857421875 672 c 2
 544.571289062 686 l 1
 517.428710938 611.713867188 484.571289062 539.428710938 456.857421875 465.428710938 c 0
 454.571289062 458.857421875 444.857421875 448 454.286132812 445.428710938 c 1
374.286132812 42.5712890625 m 1
 380.286132812 106.571289062 l 1
 359.713867188 98.2861328125 358.286132812 70.5712890625 348.571289062 53.4287109375 c 1
 374.286132812 42.5712890625 l 1
405.142578125 29.7138671875 m 1
 410.571289062 44 411.142578125 61.7138671875 411.428710938 77.142578125 c 0
 411.428710938 83.4287109375 416.571289062 93.142578125 408.571289062 95.142578125 c 1
 404.286132812 78.5712890625 383.142578125 40.5712890625 405.142578125 30 c 1
 405.142578125 29.7138671875 l 1
459.428710938 0.2861328125 m 1
 449.142578125 47.142578125 l 1
 439.713867188 9.4287109375 l 1
 459.428710938 0.2861328125 l 1
EndSplineSet
Validated: 524321
EndChar

StartChar: question
Encoding: 63 63 6
Width: 1000
GlyphClass: 1
Flags: MW
VStem: 423.429 106.857 452.286 24.2852 486.286 14.5713 535.143 14.8574
LayerCount: 2
Fore
SplineSet
534.857421875 194.857421875 m 1x90
 423.142578125 185.142578125 l 1
 422.286132812 194 432 185.142578125 433.428710938 196.857421875 c 0
 436 224 428 265.713867188 427.713867188 294.286132812 c 0
 427.713867188 315.713867188 433.428710938 343.713867188 433.428710938 367.428710938 c 0
 433.428710938 393.142578125 412.571289062 444.571289062 447.428710938 455.142578125 c 0
 468.857421875 461.713867188 493.713867188 446.857421875 500 475.428710938 c 0
 508 511.713867188 484.857421875 559.428710938 471.142578125 592.857421875 c 1
 449.428710938 606.571289062 412 555.713867188 401.428710938 588.571289062 c 1
 408.857421875 603.142578125 l 1
 384.571289062 615.428710938 l 1
 399.142578125 618 l 1
 402.571289062 637.142578125 392.857421875 644.857421875 374.857421875 647.142578125 c 1
 375.713867188 657.428710938 390.857421875 654.571289062 393.428710938 657.713867188 c 0
 396.286132812 661.142578125 396.286132812 696.571289062 399.713867188 700 c 0
 401.142578125 701.428710938 415.428710938 701.428710938 422 704.286132812 c 0
 434.286132812 709.713867188 443.428710938 719.428710938 456.286132812 723.713867188 c 0
 617.142578125 776.286132812 678.857421875 558.571289062 625.428710938 442.857421875 c 0
 611.428710938 412.286132812 588 400 575.142578125 376.571289062 c 0
 541.713867188 316.571289062 554.286132812 169.142578125 550 95.142578125 c 0
 549.142578125 79.7138671875 542.571289062 65.142578125 544.857421875 49.142578125 c 1
 540 90.5712890625 l 1
 530.286132812 97.7138671875 l 1
 529.142578125 56 510.571289062 18.857421875 469.713867188 5.142578125 c 1
 466.571289062 16.5712890625 453.142578125 22.5712890625 442.571289062 17.142578125 c 0
 432 11.7138671875 437.713867188 -2.857421875 423.428710938 0.5712890625 c 1
 421.713867188 48.5712890625 418.286132812 86.5712890625 465.428710938 111.428710938 c 0
 507.142578125 133.428710938 518.286132812 109.428710938 532.571289062 112.286132812 c 0
 543.428710938 114.286132812 535.142578125 123.713867188 535.142578125 124.571289062 c 2
 535.142578125 195.142578125 l 1
 534.857421875 194.857421875 l 1x90
496 695.428710938 m 2
 492.286132812 699.142578125 415.142578125 676.286132812 428 666.286132812 c 1
 450.571289062 666.286132812 468 678.857421875 490.857421875 671.142578125 c 1
 496 695.142578125 l 1
 496 695.428710938 l 2
466.857421875 637.142578125 m 1
 452.857421875 633.142578125 427.713867188 650.571289062 428 627.428710938 c 0
 429.428710938 626 466 627.713867188 466.857421875 637.142578125 c 1
520.286132812 593.142578125 m 1
 505.713867188 586 l 1
 525.142578125 530.286132812 l 1
 520.286132812 593.428710938 l 1
 520.286132812 593.142578125 l 1
564 496 m 1
 549.713867188 499.428710938 551.428710938 479.428710938 544.571289062 471.713867188 c 1
 558.857421875 468.286132812 557.142578125 488.286132812 564 496 c 1
564 428 m 1
 574 434.857421875 589.142578125 436.857421875 588.286132812 457.142578125 c 1
 584.286132812 451.142578125 566.857421875 439.142578125 565.142578125 436.571289062 c 0
 562.857421875 432.857421875 564.571289062 429.142578125 564 428 c 0
 544.857421875 414.857421875 525.428710938 405.142578125 516.571289062 380.571289062 c 0
 510.571289062 364.286132812 495.428710938 229.713867188 500.857421875 224 c 1x30
 530.286132812 231.713867188 l 1
 530.286132812 262.286132812 519.142578125 303.428710938 520.571289062 332.571289062 c 0
 522.571289062 374.857421875 547.713867188 400.286132812 564 428 c 1
514 420 m 1
 517.428710938 422.857421875 533.428710938 446 527.713867188 452.286132812 c 1
 515.428710938 434.571289062 508.857421875 428.571289062 486.571289062 425.428710938 c 1
 460.286132812 381.142578125 464.857421875 314.286132812 457.428710938 262.857421875 c 1
 475.713867188 324.857421875 l 2
 478.571289062 348.571289062 475.713867188 380.571289062 485.142578125 402.571289062 c 0
 490.286132812 414.571289062 507.142578125 414 514.286132812 420 c 1
 514 420 l 1
452.286132812 199.713867188 m 1x50
 452.286132812 211.713867188 464.571289062 227.428710938 447.428710938 233.713867188 c 1
 450.857421875 223.142578125 432 196 452.286132812 199.713867188 c 1x50
486.286132812 228.857421875 m 1x70
 476.571289062 228.857421875 l 1
 476.571289062 214.286132812 l 1
 486.286132812 214.286132812 l 1
 486.286132812 228.857421875 l 1x70
EndSplineSet
Validated: 524325
EndChar

StartChar: A
Encoding: 65 65 7
Width: 1000
GlyphClass: 1
Flags: MW
HStem: -0.571289 27.1426 12.8574 22.8564 249.143 124 713.143 20G
VStem: 510.571 24.5713 575.714 16
LayerCount: 2
Fore
SplineSet
589.428710938 261.142578125 m 2xbc
 589.142578125 264.286132812 577.713867188 277.142578125 574.857421875 275.428710938 c 0
 542.571289062 200.571289062 557.428710938 115.713867188 535.142578125 38.857421875 c 1
 510.571289062 42.2861328125 l 1
 542 114 522.286132812 175.713867188 521.142578125 249.142578125 c 1
 502.857421875 251.713867188 485.142578125 244.857421875 466.857421875 247.142578125 c 0
 444 250 422.286132812 273.142578125 406.857421875 252 c 1
 416.571289062 160.571289062 346 70 360.571289062 -21.4287109375 c 1
 180.286132812 2.2861328125 l 1
 243.713867188 115.428710938 300 247.713867188 343.142578125 370.857421875 c 0
 368.286132812 443.142578125 409.428710938 561.142578125 422.286132812 633.428710938 c 0
 426.571289062 658 410.286132812 703.713867188 437.428710938 708.857421875 c 0
 464.571289062 714 499.713867188 690 528.286132812 711.713867188 c 1
 560 700 549.428710938 666 574.286132812 650.286132812 c 1
 577.142578125 733.142578125 l 1
 598.571289062 732 591.142578125 732.857421875 591.713867188 718.857421875 c 0
 593.142578125 682.571289062 594.571289062 651.428710938 600.857421875 615.428710938 c 0
 626.286132812 471.428710938 651.428710938 323.428710938 663.142578125 176.571289062 c 0
 666.571289062 132.571289062 669.713867188 87.142578125 660.571289062 43.4287109375 c 1
 685.142578125 35.7138671875 l 1
 667.428710938 12.857421875 l 1x7c
 618.571289062 14.2861328125 575.142578125 -2.2861328125 525.142578125 -0.5712890625 c 0
 516.286132812 -0.2861328125 502.857421875 -4 506.857421875 9.142578125 c 1
 559.713867188 31.4287109375 l 1
 557.428710938 94.857421875 596.857421875 203.713867188 590 260.857421875 c 1
 589.428710938 261.142578125 l 2xbc
534.286132812 347.428710938 m 1
 580.571289062 347.713867188 549.428710938 371.713867188 548.571289062 391.713867188 c 0
 547.713867188 411.713867188 554.857421875 430.857421875 552.857421875 453.713867188 c 0
 548.286132812 505.428710938 538.857421875 559.713867188 505.142578125 601.142578125 c 1
 447.713867188 542.286132812 462.857421875 451.142578125 446.286132812 375.713867188 c 1
 533.142578125 373.142578125 l 1
 534.286132812 347.428710938 l 1
575.713867188 541.428710938 m 1
 551.428710938 541.428710938 l 1
 569.713867188 502.571289062 563.142578125 455.428710938 570.857421875 416 c 0
 572.571289062 407.428710938 578 383.142578125 588.571289062 381.713867188 c 1
 575.713867188 541.142578125 l 1
 575.713867188 541.428710938 l 1
405.142578125 381.142578125 m 1
 372.571289062 374.286132812 384.857421875 326 409.713867188 351.428710938 c 1
 405.142578125 381.142578125 l 1
493.713867188 294.286132812 m 1
 466.571289062 288.571289062 420.286132812 322.571289062 402.571289062 298.286132812 c 1
 423.142578125 296 443.428710938 292 464 290 c 0
 474 289.142578125 493.713867188 279.713867188 493.713867188 294.286132812 c 1
352 230 m 1
 373.713867188 233.713867188 372.571289062 258.857421875 374.571289062 277.142578125 c 1
 352.857421875 273.428710938 354 248.286132812 352 230 c 1
373.713867188 143.713867188 m 1
 398 265.428710938 l 1
 378.857421875 259.142578125 366 208.571289062 363.142578125 190.857421875 c 0
 362 182.857421875 360.857421875 146 373.428710938 143.713867188 c 2
 373.713867188 143.713867188 l 1
216.286132812 22.857421875 m 1
 233.713867188 17.4287109375 236.857421875 27.7138671875 243.142578125 40.5712890625 c 0
 270.571289062 96.5712890625 290.286132812 175.428710938 310.857421875 235.428710938 c 1
 294.857421875 235.428710938 298.571289062 223.142578125 295.428710938 216.571289062 c 0
 264.571289062 154 248 85.142578125 216.286132812 22.857421875 c 1
604.286132812 121.428710938 m 1
 607.142578125 136.571289062 611.428710938 157.142578125 593.428710938 164.571289062 c 1
 590.571289062 149.428710938 586.286132812 128.857421875 604.286132812 121.428710938 c 1
590.857421875 67.4287109375 m 1
 587.713867188 74 590.857421875 82.857421875 591.713867188 90 c 1
 565.713867188 84 571.142578125 49.142578125 566.857421875 26.5712890625 c 1xbc
 590.857421875 24 622.857421875 25.142578125 608 54.5712890625 c 0
 605.713867188 58.857421875 594 61.4287109375 591.142578125 67.4287109375 c 1
 590.857421875 67.4287109375 l 1
301.428710938 36.5712890625 m 1
 303.713867188 86.2861328125 l 1
 274.571289062 23.4287109375 l 1
 249.142578125 18.5712890625 l 1
 304 18.5712890625 l 1
 308.571289062 1.4287109375 309.713867188 -0.2861328125 330 -0.2861328125 c 1
 336.286132812 48.857421875 l 1
 301.428710938 36.857421875 l 1
 301.428710938 36.5712890625 l 1
EndSplineSet
Validated: 524325
EndChar

StartChar: B
Encoding: 66 66 8
Width: 1000
GlyphClass: 1
Flags: W
LayerCount: 2
Fore
SplineSet
651.713867188 511.428710938 m 1
 630.857421875 484 l 1
 666.286132812 447.142578125 l 1
 619.713867188 468.571289062 l 1
 616 452.571289062 626.286132812 434 619.713867188 418.571289062 c 0
 617.713867188 413.713867188 606 415.713867188 602 411.713867188 c 0
 583.713867188 393.713867188 574.857421875 374.857421875 544.286132812 368.286132812 c 1
 572.286132812 324.571289062 637.713867188 317.713867188 675.428710938 280.571289062 c 1
 686.286132812 264 682.286132812 119.713867188 672.857421875 101.428710938 c 0
 668.286132812 92.857421875 606.286132812 46.5712890625 594 40.5712890625 c 0
 587.142578125 37.142578125 504.286132812 6.5712890625 499.142578125 5.4287109375 c 0
 486.571289062 2.857421875 475.713867188 11.4287109375 466.857421875 10 c 0
 414.857421875 2.5712890625 365.713867188 -17.4287109375 314.286132812 14.2861328125 c 0
 274.571289062 38.857421875 348 26.857421875 356.857421875 26.2861328125 c 0
 386 24.2861328125 360 43.4287109375 359.713867188 58 c 0
 356.857421875 154.571289062 362 251.142578125 365.142578125 347.142578125 c 1
 380.286132812 337.713867188 l 1
 383.142578125 354.286132812 l 1
 347.142578125 376.286132812 376.571289062 424.571289062 378.286132812 451.428710938 c 0
 381.142578125 496 376.286132812 542.571289062 382.571289062 587.713867188 c 0
 387.713867188 623.428710938 411.428710938 668.286132812 401.428710938 708.286132812 c 1
 419.142578125 712.857421875 l 1
 459.428710938 689.142578125 536.286132812 682.857421875 570.857421875 654.571289062 c 0
 576 650.286132812 618.857421875 593.142578125 621.428710938 586.857421875 c 0
 632.286132812 558.571289062 618.571289062 536.286132812 622.571289062 509.142578125 c 1
 652.286132812 511.142578125 l 1
 651.713867188 511.428710938 l 1
514.286132812 589.428710938 m 1
 464.571289062 591.142578125 l 1
 510 562.857421875 l 1
 514.571289062 589.428710938 l 1
 514.286132812 589.428710938 l 1
435.142578125 369.713867188 m 1
 455.142578125 345.142578125 536.857421875 428.571289062 541.142578125 450.857421875 c 0
 552.571289062 508.857421875 498.286132812 518.286132812 448.286132812 545.713867188 c 1
 435.142578125 369.713867188 l 1
524 336.286132812 m 1
 518.857421875 340.571289062 519.428710938 352 512.286132812 356.571289062 c 1
 498.571289062 348.857421875 l 1
 558 280.571289062 l 1
 589.142578125 298.571289062 535.713867188 326.286132812 523.713867188 336.286132812 c 1
 524 336.286132812 l 1
487.713867188 339.142578125 m 1
 429.428710938 328.571289062 l 1
 443.428710938 293.713867188 408 106.571289062 443.713867188 94 c 1
 505.713867188 83.4287109375 564 166 567.713867188 206.571289062 c 0
 570.857421875 241.142578125 496.857421875 300.857421875 487.713867188 339.142578125 c 1
667.428710938 158.857421875 m 1
 651.142578125 161.713867188 l 1
 645.428710938 128.286132812 l 1
 664.571289062 129.142578125 666.286132812 146 667.142578125 158.857421875 c 1
 667.428710938 158.857421875 l 1
473.142578125 75.142578125 m 1
 421.142578125 66.857421875 448.857421875 36 483.428710938 63.142578125 c 1
 473.142578125 75.142578125 l 1
EndSplineSet
Validated: 524325
EndChar

StartChar: C
Encoding: 67 67 9
Width: 1000
GlyphClass: 1
Flags: W
LayerCount: 2
Fore
SplineSet
359.428710938 463.428710938 m 0
 342.857421875 439.713867188 340.571289062 300.571289062 344 266.571289062 c 0
 346.571289062 242.571289062 391.713867188 102.571289062 403.713867188 99.4287109375 c 1
 527.142578125 117.142578125 613.428710938 227.428710938 712.857421875 302.286132812 c 1
 730 272.571289062 692.286132812 279.713867188 695.142578125 253.428710938 c 1
 722.286132812 265.713867188 736 269.713867188 765.428710938 261.428710938 c 1
 758.571289062 231.142578125 735.428710938 232 716.286132812 208.286132812 c 0
 686.286132812 171.142578125 660.571289062 106.571289062 628.286132812 65.142578125 c 0
 583.142578125 7.142578125 564 -7.142578125 494.286132812 1.4287109375 c 0
 490 2 491.713867188 15.142578125 488 15.142578125 c 0
 396.857421875 11.7138671875 346.857421875 35.7138671875 287.428710938 120.571289062 c 1
 262.571289062 231.713867188 260.571289062 333.428710938 287.428710938 444.857421875 c 1
 273.142578125 453.428710938 l 1
 308.571289062 478.286132812 288 512.571289062 290.571289062 543.713867188 c 0
 295.713867188 610.286132812 414.286132812 716.571289062 468.571289062 725.428710938 c 0
 501.428710938 730.857421875 561.142578125 710.857421875 581.142578125 680.286132812 c 0
 634.286132812 599.428710938 512.286132812 568.857421875 470 543.428710938 c 0
 456 534.857421875 364.286132812 470.286132812 359.428710938 463.428710938 c 0
491.142578125 694.571289062 m 1
 474.286132812 712 351.713867188 609.142578125 331.142578125 590.286132812 c 0
 322.571289062 582.571289062 312 580.857421875 315.142578125 564 c 1
 473.713867188 670 l 1
 491.142578125 694.857421875 l 1
 491.142578125 694.571289062 l 1
540.286132812 678 m 0
 531.713867188 686.571289062 507.713867188 664 505.142578125 653.713867188 c 1
 510.857421875 649.428710938 555.142578125 663.428710938 540.286132812 678 c 0
568.571289062 629.142578125 m 1
 540.571289062 617.142578125 l 1
 551.142578125 605.142578125 l 1
 568.857421875 629.428710938 l 1
 568.571289062 629.142578125 l 1
350.286132812 531.142578125 m 0
 343.142578125 539.428710938 322 515.142578125 329.142578125 506.857421875 c 0
 336.286132812 498.571289062 357.428710938 522.857421875 350.286132812 531.142578125 c 0
336.286132812 408.571289062 m 1
 332.857421875 430.286132812 352 451.713867188 332.857421875 465.713867188 c 1
 320 466 315.142578125 411.713867188 336.286132812 408.571289062 c 1
336.286132812 237.142578125 m 1
 317.428710938 239.428710938 325.142578125 237.142578125 322.286132812 224.857421875 c 0
 310.571289062 171.428710938 334 128.857421875 371.428710938 98.2861328125 c 1
 336.286132812 237.142578125 l 1
622.571289062 141.713867188 m 1
 642.571289062 188 l 1
 629.142578125 181.713867188 615.142578125 146 608.857421875 141.428710938 c 0
 602 136.286132812 588.286132812 139.142578125 578.857421875 131.713867188 c 0
 544.857421875 105.142578125 509.428710938 78.5712890625 477.142578125 49.4287109375 c 1
 531.713867188 55.7138671875 571.428710938 118.286132812 622.571289062 142 c 1
 622.571289062 141.713867188 l 1
624.857421875 98 m 1
 611.428710938 98 541.142578125 42.5712890625 540.571289062 36.857421875 c 0
 539.428710938 22.2861328125 555.428710938 26.857421875 565.428710938 32.2861328125 c 0
 586.286132812 43.4287109375 610.571289062 76.857421875 624.857421875 98 c 1
EndSplineSet
Validated: 524325
EndChar

StartChar: D
Encoding: 68 68 10
Width: 1000
GlyphClass: 1
Flags: MW
HStem: 28 3.14258 176.571 6.28613
VStem: 313.429 12.2852 375.429 37.1426 381.714 12.2861
LayerCount: 2
Fore
SplineSet
665.142578125 490.857421875 m 1xe0
 684.286132812 456.857421875 676.571289062 392 680 354 c 0
 684.286132812 305.713867188 702.286132812 276.857421875 684.571289062 231.142578125 c 0
 681.428710938 222.857421875 664.571289062 198.571289062 660.571289062 190.857421875 c 0
 654.571289062 179.142578125 624 129.142578125 629.428710938 121.142578125 c 1
 648 115.142578125 l 1
 617.142578125 108.857421875 l 1
 613.713867188 100.286132812 642 103.428710938 629.428710938 90.5712890625 c 0
 628 89.142578125 599.428710938 82.857421875 590 77.142578125 c 0
 581.142578125 71.7138671875 530.571289062 29.7138671875 536.571289062 22.2861328125 c 0
 538.286132812 20.2861328125 551.428710938 27.142578125 548.857421875 16 c 1
 517.713867188 27.142578125 481.142578125 3.4287109375 458.857421875 2.857421875 c 0
 447.142578125 2.857421875 452.857421875 15.7138671875 440.857421875 16.5712890625 c 0
 408.286132812 18.857421875 330 -6 302.857421875 17.4287109375 c 0
 280.571289062 36.857421875 324 129.713867188 330.286132812 157.142578125 c 0
 372.571289062 338.857421875 335.713867188 510 313.428710938 690.857421875 c 1
 330.857421875 694.571289062 325.428710938 684.571289062 325.713867188 672.286132812 c 1
 350.286132812 678.571289062 l 1
 344.286132812 579.428710938 l 1
 351.713867188 569.713867188 355.713867188 579.428710938 356.571289062 588.571289062 c 0
 359.142578125 610 361.713867188 641.142578125 362.857421875 662.857421875 c 0
 365.428710938 712.857421875 352.571289062 691.142578125 319.428710938 718.857421875 c 1
 340.571289062 751.713867188 406.571289062 707.713867188 434.857421875 692 c 0
 498.857421875 656.571289062 570.286132812 605.142578125 607.713867188 549.142578125 c 0
 620.571289062 530 662.571289062 494.857421875 664.571289062 491.428710938 c 2
 665.142578125 490.857421875 l 1xe0
573.713867188 554.286132812 m 1
 539.713867188 585.142578125 l 1
 525.142578125 588 429.428710938 645.428710938 425.142578125 640.857421875 c 0
 413.142578125 627.713867188 443.713867188 613.142578125 452 608.857421875 c 0
 488.286132812 589.428710938 535.713867188 567.713867188 574 554.286132812 c 1
 573.713867188 554.286132812 l 1
468.286132812 560.571289062 m 1
 456.857421875 574 437.713867188 592.857421875 418.857421875 591.428710938 c 1
 407.713867188 581.428710938 457.713867188 555.428710938 468.286132812 560.571289062 c 1
456 535.713867188 m 1
 412.571289062 560.286132812 l 1xf0
 418.857421875 126.857421875 l 1
 486.857421875 160.857421875 l 1
 450.571289062 152.286132812 l 1
 436.857421875 169.428710938 433.142578125 188 431.428710938 210.571289062 c 0
 423.713867188 310.857421875 446.571289062 418.286132812 437.428710938 520.286132812 c 1
 456.286132812 535.713867188 l 1
 456 535.713867188 l 1
485.428710938 184.571289062 m 0
 496.571289062 191.428710938 545.142578125 243.713867188 551.713867188 256.857421875 c 0
 579.713867188 312.571289062 568.571289062 418.571289062 549.142578125 477.142578125 c 1
 449.713867188 523.142578125 l 1
 464.857421875 411.713867188 456.286132812 294.857421875 449.713867188 182.571289062 c 1
 456.571289062 184.857421875 482.571289062 182.571289062 485.428710938 184.571289062 c 0
375.428710938 393.428710938 m 1
 371.142578125 429.142578125 393.428710938 472.857421875 356.857421875 498.571289062 c 1
 361.713867188 468 359.428710938 432 362.857421875 402.571289062 c 0
 364 393.428710938 367.713867188 383.713867188 375.142578125 393.428710938 c 1
 375.428710938 393.428710938 l 1
641.713867188 461.428710938 m 1
 641.713867188 470.571289062 l 1
 623.142578125 486 l 1
 621.713867188 474.571289062 622.857421875 467.713867188 632.571289062 461.428710938 c 1
 641.713867188 461.428710938 l 1
598.286132812 350 m 1
 598.571289062 350 l 1
 590.857421875 419.713867188 l 1
 573.713867188 480 l 1
 622 455.713867188 604.286132812 394.857421875 598.286132812 350 c 1
623.142578125 343.713867188 m 1
 638 354.286132812 653.713867188 433.142578125 623.142578125 430.286132812 c 1
 623.142578125 343.713867188 l 1
666.571289062 343.713867188 m 0
 658.857421875 353.713867188 655.428710938 343.713867188 654.286132812 334.571289062 c 0
 651.428710938 312.571289062 656.286132812 286 654.286132812 263.142578125 c 1
 668.286132812 268.571289062 669.142578125 340.286132812 666.571289062 343.713867188 c 0
579.713867188 244.571289062 m 1
 571.428710938 253.428710938 545.428710938 211.142578125 548.857421875 207.428710938 c 1
 568.857421875 212.857421875 574 226.286132812 579.713867188 244.571289062 c 1
394 207.428710938 m 1xe8
 374.857421875 210.571289062 384 202.571289062 381.713867188 192 c 0
 374 156.286132812 366.857421875 120.571289062 358.571289062 85.142578125 c 1
 353.713867188 28.2861328125 l 1
 369.428710938 43.7138671875 l 1
 394 207.713867188 l 1
 394 207.428710938 l 1xe8
623.142578125 182.857421875 m 1
 598.286132812 176.571289062 l 1
 598.286132812 164.286132812 l 1
 609.713867188 162.857421875 616.571289062 164 622.857421875 173.713867188 c 1
 622.857421875 182.857421875 l 1
 623.142578125 182.857421875 l 1
585.142578125 146.571289062 m 1
 582.857421875 164.286132812 l 1
 559.713867188 145.713867188 534.857421875 129.713867188 510.857421875 112.286132812 c 0
 507.713867188 110 488.286132812 105.713867188 499.142578125 96.2861328125 c 0
 505.713867188 90.5712890625 567.713867188 147.713867188 584.857421875 146.571289062 c 2
 585.142578125 146.571289062 l 1
406.286132812 114.571289062 m 1
 400 151.713867188 l 1
 394 151.713867188 l 1
 394 114.571289062 l 1
 406.286132812 114.571289062 l 1
325.713867188 28 m 1
 332 90 l 1
 307.428710938 31.142578125 l 1
 326 28 l 1
 325.713867188 28 l 1
536.286132812 71.142578125 m 1
 508.286132812 64 468.571289062 56.857421875 449.713867188 34 c 1
 484.571289062 27.4287109375 513.428710938 46 536.286132812 71.142578125 c 1
EndSplineSet
Validated: 524325
EndChar

StartChar: E
Encoding: 69 69 11
Width: 1000
GlyphClass: 1
Flags: MW
HStem: 22 36.5713 520 105.714 581.429 44.2852
VStem: 300.571 29.7148 651.429 23.1426
LayerCount: 2
Fore
SplineSet
368 678.286132812 m 1xd8
 467.142578125 686 568.857421875 719.428710938 667.142578125 690.571289062 c 1
 635.428710938 675.428710938 l 1
 643.713867188 660.857421875 646.286132812 648.857421875 666.286132812 653.713867188 c 1
 645.428710938 639.713867188 l 1
 659.713867188 616 l 1
 649.142578125 608.286132812 l 1
 657.713867188 593.428710938 650.571289062 573.428710938 655.428710938 559.713867188 c 0
 657.428710938 554.286132812 672.857421875 561.713867188 668.571289062 546.571289062 c 1
 616.857421875 525.428710938 561.142578125 518 505.428710938 520 c 1
 488.286132812 446.857421875 l 1
 500.857421875 437.713867188 l 1
 489.428710938 393.713867188 l 1
 528.857421875 402.286132812 573.428710938 390 611.713867188 392.286132812 c 0
 626.286132812 393.142578125 667.142578125 407.713867188 670.571289062 396.571289062 c 1
 667.428710938 376 656.857421875 364.571289062 676.571289062 349.428710938 c 1
 644.857421875 335.713867188 660.857421875 298.571289062 674.571289062 275.428710938 c 1
 652.286132812 272.571289062 l 1
 660.857421875 228.286132812 l 1
 655.713867188 219.142578125 650.571289062 220.286132812 641.713867188 223.142578125 c 0
 612.857421875 232 563.428710938 274.286132812 530.857421875 287.713867188 c 0
 517.142578125 293.428710938 500.286132812 293.428710938 487.142578125 302.571289062 c 1
 456.857421875 160 l 2
 456.857421875 147.428710938 459.142578125 153.428710938 466.286132812 152.857421875 c 0
 527.142578125 148.571289062 588.857421875 151.713867188 649.142578125 141.713867188 c 1
 660 165.713867188 l 1
 674.571289062 3.4287109375 l 1
 652.571289062 0.2861328125 l 1
 651.428710938 14.2861328125 l 1
 575.428710938 21.142578125 496.571289062 26.857421875 420 22 c 0
 406 21.142578125 394.571289062 12.2861328125 388 12 c 0
 384.571289062 12 384.286132812 21.4287109375 379.713867188 22 c 0
 377.142578125 22.2861328125 340.857421875 16.5712890625 338.571289062 14.5712890625 c 0
 332.857421875 9.4287109375 334.571289062 -15.4287109375 320.571289062 -19.142578125 c 1
 305.142578125 44.5712890625 300.857421875 118.857421875 300.571289062 185.142578125 c 0
 300 314.857421875 315.713867188 486.571289062 337.142578125 614.857421875 c 0
 339.428710938 627.713867188 349.428710938 642 349.713867188 645.428710938 c 0
 351.142578125 661.142578125 313.142578125 652.571289062 324.571289062 667.142578125 c 0
 332.857421875 678 372 667.142578125 358.857421875 711.142578125 c 1
 368.571289062 678.286132812 l 1
 368 678.286132812 l 1xd8
378 645.428710938 m 1
 360.857421875 647.713867188 361.713867188 615.428710938 374 610.857421875 c 1
 378 645.428710938 l 1
395.428710938 642 m 1
 384.286132812 640.571289062 l 1
 387.142578125 618.286132812 l 1
 398.286132812 619.713867188 l 1
 395.428710938 642 l 1
622.857421875 636.571289062 m 1
 561.142578125 628.857421875 489.428710938 642.857421875 429.713867188 638.286132812 c 0
 406.571289062 636.571289062 409.713867188 619.142578125 429.713867188 618 c 0
 448 617.142578125 471.428710938 624.857421875 491.142578125 625.713867188 c 0
 530.571289062 627.142578125 578.286132812 628 617.428710938 625.713867188 c 0xb8
 628.571289062 625.142578125 624 626.857421875 623.142578125 636.571289062 c 1
 622.857421875 636.571289062 l 1
370.286132812 570.857421875 m 1
 380.286132812 580.571289062 l 1
 370.286132812 593.428710938 l 1
 370.286132812 570.857421875 l 1
635.428710938 581.428710938 m 1
 567.142578125 584.286132812 l 1
 628.571289062 569.428710938 l 1
 635.428710938 581.428710938 l 1
330.286132812 32.857421875 m 1
 349.428710938 50.857421875 l 1
 351.142578125 117.713867188 346 185.428710938 349.428710938 252 c 0
 354.286132812 338 379.428710938 422 372.286132812 508.571289062 c 1
 363.142578125 505.713867188 363.713867188 496.571289062 362 489.142578125 c 0
 356 464.286132812 352.857421875 425.142578125 349.428710938 398 c 0
 334.857421875 277.142578125 326.857421875 154.286132812 330.286132812 32.857421875 c 1
446 421.428710938 m 1
 458.857421875 428.857421875 458.571289062 450 457.713867188 462.571289062 c 1
 444.857421875 455.142578125 445.142578125 434 446 421.428710938 c 1
451.428710938 376.857421875 m 1
 436.857421875 377.713867188 441.713867188 373.428710938 439.142578125 364 c 0
 429.713867188 328.571289062 431.428710938 290.857421875 427.142578125 254.857421875 c 1
 444.286132812 254 435.428710938 260.286132812 437.142578125 269.428710938 c 0
 444.286132812 304.857421875 445.428710938 341.428710938 451.428710938 376.857421875 c 1
533.713867188 353.142578125 m 1
 482 358 l 1
 488 348.857421875 529.713867188 339.428710938 533.713867188 353.142578125 c 1
610.571289062 328.857421875 m 1
 636.286132812 326.286132812 l 1
 643.713867188 335.713867188 l 1
 634.286132812 343.142578125 l 1
 610 334.286132812 l 1
 610.571289062 328.857421875 l 1
634.286132812 275.142578125 m 1
 594.571289062 276 l 1
 628 257.713867188 l 1
 634 275.142578125 l 1
 634.286132812 275.142578125 l 1
652.571289062 84.857421875 m 1
 648.286132812 112 612.571289062 94.2861328125 594.571289062 94.5712890625 c 1
 652.571289062 84.857421875 l 1
648.571289062 66.2861328125 m 1
 496.571289062 64.857421875 l 1
 496.286132812 56.2861328125 508 59.142578125 514.286132812 58.5712890625 c 0
 550.571289062 54.857421875 595.142578125 59.7138671875 630 52.857421875 c 0
 635.142578125 51.7138671875 636.857421875 43.142578125 638.286132812 42.857421875 c 2
 652 47.4287109375 l 1
 648.857421875 66 l 1
 648.571289062 66.2861328125 l 1
EndSplineSet
Validated: 524325
EndChar

StartChar: F
Encoding: 70 70 12
Width: 1000
GlyphClass: 1
Flags: MW
HStem: 2.57129 28.8574 401.143 8.85742
VStem: 314 41.1426 355.143 47.1436 356.857 62.5713 361.143 78.2861 413.429 70.5713
LayerCount: 2
Fore
SplineSet
675.428710938 694.857421875 m 1xe2
 662.571289062 681.428710938 684.286132812 658.857421875 681.142578125 654.286132812 c 0
 680 652.571289062 660.286132812 652 663.713867188 639.713867188 c 1
 681.142578125 625.142578125 l 1
 658.857421875 618.286132812 l 1
 652 582 l 1
 669.428710938 570 l 1
 614.286132812 533.142578125 536.571289062 555.428710938 477.428710938 572.857421875 c 1
 486.571289062 532.857421875 474.857421875 490.571289062 465.713867188 450.857421875 c 0
 468.857421875 448.286132812 523.713867188 473.713867188 535.428710938 477.142578125 c 0
 550.286132812 481.428710938 617.713867188 498.286132812 620.857421875 477.142578125 c 1
 611.142578125 410 l 1
 640.286132812 401.142578125 l 1
 600.286132812 404.857421875 597.428710938 362.571289062 589.142578125 329.713867188 c 0
 587.428710938 323.428710938 592.857421875 316.571289062 592.571289062 313.713867188 c 0
 592.571289062 312.286132812 574 306 582 287.713867188 c 1
 483.142578125 299.428710938 l 1
 490.857421875 258.286132812 481.713867188 214 484 174.857421875 c 0
 485.713867188 146 492.857421875 51.4287109375 500 28.5712890625 c 0
 503.713867188 16.2861328125 517.428710938 20.5712890625 512.286132812 2.5712890625 c 1
 463.713867188 7.142578125 411.713867188 -2.5712890625 364.286132812 -1.4287109375 c 0
 358.571289062 -1.4287109375 352.857421875 5.142578125 346.571289062 5.7138671875 c 0
 333.713867188 6.5712890625 315.428710938 -1.4287109375 300.857421875 2.5712890625 c 0
 295.428710938 4 290.857421875 26 273.428710938 20.2861328125 c 1
 289.428710938 39.7138671875 298.571289062 36 301.713867188 64.5712890625 c 0
 310.571289062 139.713867188 309.713867188 220.857421875 314 296.857421875 c 0
 319.142578125 386.571289062 320.571289062 451.713867188 319.428710938 541.142578125 c 0
 319.428710938 559.428710938 327.428710938 637.428710938 324.857421875 645.142578125 c 0
 320 660.571289062 292.286132812 653.713867188 278.857421875 654.857421875 c 1
 325.713867188 676 l 1
 324.571289062 694.857421875 l 1
 302.857421875 704.857421875 l 1
 302.286132812 724.571289062 l 1
 370.857421875 725.428710938 440 720.571289062 508.286132812 712.286132812 c 0
 545.142578125 707.713867188 602.857421875 688.286132812 633.713867188 686.571289062 c 0
 643.428710938 686 659.713867188 702 674.857421875 695.428710938 c 1
 675.428710938 694.857421875 l 1xe2
384.286132812 688.857421875 m 1
 343.713867188 686 l 1
 346.857421875 680 391.428710938 670 384.286132812 688.857421875 c 1
361.142578125 596 m 1xc4
 352.857421875 606.286132812 351.428710938 596.571289062 350.286132812 587.713867188 c 0
 348 567.428710938 354.286132812 535.713867188 355.428710938 514.286132812 c 1
 364.857421875 514.286132812 367.142578125 534.571289062 367.142578125 540.571289062 c 0
 367.713867188 560.571289062 362 576.571289062 361.142578125 595.713867188 c 2
 361.142578125 596 l 1xc4
477.428710938 584.286132812 m 1
 439.428710938 584.286132812 l 1
 436.571289062 532 l 1
 461.142578125 528.286132812 456.571289062 574 460.571289062 578 c 0
 464.571289062 582 479.142578125 573.142578125 477.142578125 584.286132812 c 1
 477.428710938 584.286132812 l 1
448.286132812 479.428710938 m 1
 448.286132812 514.286132812 l 1
 442.571289062 514.286132812 l 1
 436.571289062 479.428710938 l 1
 448.286132812 479.428710938 l 1
355.142578125 37.142578125 m 1xd0
 355.142578125 81.4287109375 354 127.713867188 356.857421875 172 c 0
 361.428710938 237.713867188 377.142578125 303.428710938 366.571289062 368.857421875 c 1
 344.571289062 348.857421875 357.142578125 301.713867188 355.142578125 272.571289062 c 0xe8
 349.713867188 194.857421875 342.286132812 116 325.713867188 40 c 1
 354.857421875 37.142578125 l 1
 355.142578125 37.142578125 l 1xd0
413.428710938 217.713867188 m 1xc2
 413.428710938 325.428710938 l 1
 413.428710938 325.428710938 407.713867188 342.571289062 401.713867188 340 c 1
 401.713867188 290.286132812 l 1
 413.428710938 217.713867188 l 1xc2
419.428710938 127.428710938 m 0xc8
 416.286132812 97.142578125 421.713867188 62.2861328125 419.428710938 31.4287109375 c 1
 448.571289062 31.4287109375 l 1
 434.571289062 76.5712890625 437.142578125 124.571289062 436.857421875 171.142578125 c 1
 426 167.142578125 420.286132812 136.571289062 419.428710938 127.428710938 c 0xc8
413.428710938 37.142578125 m 1xd2
 404.857421875 89.4287109375 l 1
 394.571289062 82 400.286132812 62 402.286132812 51.7138671875 c 0
 404.286132812 41.4287109375 395.713867188 34.2861328125 413.713867188 37.142578125 c 1
 413.428710938 37.142578125 l 1xd2
EndSplineSet
Validated: 524325
EndChar

StartChar: G
Encoding: 71 71 13
Width: 1000
GlyphClass: 1
Flags: MW
HStem: 44.5713 54.5713 538 13.4287
VStem: 252.286 28.2852 268 12.5713 286.286 10.5713 292 10.8574 306 35.4287 312.857 5.42871 684.571 7.42871
LayerCount: 2
Fore
SplineSet
729.713867188 701.713867188 m 1xe080
 724.857421875 693.713867188 l 1
 736.571289062 682.571289062 l 1
 716.286132812 684.286132812 722.857421875 651.428710938 720.286132812 636.857421875 c 0
 715.713867188 609.713867188 710 582.286132812 703.428710938 555.428710938 c 1
 716.857421875 551.428710938 l 1
 715.428710938 538 l 1
 697.428710938 539.713867188 l 1
 689.713867188 513.428710938 l 1
 680.286132812 532.286132812 l 1
 664.857421875 537.428710938 488.857421875 495.142578125 468.571289062 483.428710938 c 0
 372.857421875 428.571289062 351.428710938 284.571289062 401.713867188 191.428710938 c 0
 409.428710938 177.142578125 442.286132812 144.857421875 457.428710938 140.857421875 c 0
 470.571289062 137.428710938 523.142578125 140 536.571289062 144.571289062 c 0
 544.286132812 147.428710938 621.428710938 192 626.571289062 197.142578125 c 0
 638 209.142578125 654.286132812 235.428710938 648.857421875 252 c 1
 481.428710938 252.571289062 l 1
 475.428710938 239.428710938 l 1
 451.428710938 352.286132812 l 1
 483.428710938 348.286132812 512.571289062 381.142578125 542.286132812 396 c 0
 561.428710938 405.428710938 588.571289062 419.713867188 610 414.857421875 c 0
 622.571289062 412 651.142578125 392.857421875 655.428710938 392.857421875 c 0
 659.142578125 392.857421875 663.428710938 412.286132812 677.713867188 404.286132812 c 1
 674.571289062 368.286132812 700.571289062 358 714.857421875 328.857421875 c 0
 723.713867188 311.142578125 722.286132812 284.286132812 745.713867188 277.142578125 c 1
 731.713867188 274.286132812 l 1
 741.142578125 248.286132812 741.713867188 225.713867188 736.857421875 197.713867188 c 0
 733.428710938 177.713867188 699.713867188 37.142578125 692 26.5712890625 c 0
 690.571289062 24.5712890625 685.713867188 21.4287109375 684.571289062 22.857421875 c 2
 687.142578125 45.4287109375 l 1
 677.713867188 46.857421875 668.286132812 48.2861328125 658.571289062 47.7138671875 c 0
 576.857421875 42.857421875 464.286132812 -15.4287109375 386.857421875 2.2861328125 c 0
 362 8 343.142578125 26.5712890625 318.286132812 28 c 1
 312.857421875 1.142578125 l 1
 304.571289062 24.5712890625 308 52 281.142578125 64.2861328125 c 1
 282.857421875 0 l 1
 264.857421875 2 l 1
 267.142578125 41.142578125 276.571289062 79.7138671875 249.713867188 111.428710938 c 1
 268 111.428710938 l 2xd180
 271.142578125 114 266.857421875 179.713867188 265.713867188 190 c 0
 263.428710938 209.713867188 252.857421875 239.713867188 252.286132812 257.713867188 c 0
 251.428710938 297.142578125 267.428710938 398.571289062 277.428710938 438.571289062 c 0
 288.571289062 483.142578125 430 664.571289062 474.857421875 677.428710938 c 0
 481.713867188 679.428710938 488.286132812 672.857421875 497.428710938 674.286132812 c 0
 524.571289062 678.571289062 554.571289062 706.286132812 596.857421875 710.286132812 c 0
 615.713867188 712.286132812 721.142578125 709.428710938 730 700.857421875 c 1
 729.713867188 701.713867188 l 1xe080
706.857421875 663.142578125 m 1
 692.857421875 669.428710938 682.857421875 659.713867188 671.713867188 658.286132812 c 0
 658 656.571289062 641.142578125 667.713867188 632 648.857421875 c 1
 649.142578125 648.857421875 671.142578125 650.571289062 687.428710938 654 c 0
 692.286132812 655.142578125 706.286132812 657.142578125 706.857421875 663.142578125 c 1
623.428710938 654.286132812 m 1
 615.428710938 656.571289062 608 650 603.713867188 642.857421875 c 1
 611.713867188 640.571289062 619.142578125 647.142578125 623.428710938 654.286132812 c 1
350.571289062 515.713867188 m 1
 360.571289062 519.142578125 370.857421875 530 371.713867188 540.857421875 c 1
 361.713867188 537.428710938 351.428710938 526.571289062 350.571289062 515.713867188 c 1
443.713867188 528 m 0
 431.713867188 532.286132812 435.428710938 525.142578125 431.428710938 520.286132812 c 0
 425.713867188 513.428710938 383.142578125 464.286132812 385.713867188 461.428710938 c 0
 395.142578125 458.286132812 396.571289062 465.142578125 401.142578125 470.286132812 c 0
 406.857421875 476.571289062 445.713867188 525.142578125 443.713867188 528 c 0
373.428710938 435.142578125 m 0
 364 445.713867188 347.713867188 418.571289062 344 412.571289062 c 0
 341.713867188 408.571289062 334 397.713867188 344 397.428710938 c 0
 348.286132812 397.428710938 376 432.571289062 373.428710938 435.142578125 c 0
660.286132812 374.857421875 m 1
 638 389.142578125 621.713867188 396.857421875 594 396.286132812 c 1
 595.713867188 383.428710938 610.286132812 387.713867188 616.857421875 384.286132812 c 0
 620.857421875 382.286132812 619.142578125 376 622.286132812 374.857421875 c 0
 627.713867188 372.857421875 656.286132812 367.428710938 660.286132812 374.857421875 c 1
357.713867188 377.428710938 m 1
 340.286132812 382.857421875 352.857421875 360 345.713867188 351.428710938 c 1
 361.428710938 345.713867188 354.571289062 368.286132812 357.713867188 377.428710938 c 1
695.713867188 284 m 1
 696.857421875 301.713867188 708.286132812 334 684 340.286132812 c 1
 688.857421875 326 687.713867188 311.713867188 689.428710938 297.428710938 c 0
 690 292.857421875 689.428710938 283.713867188 695.713867188 284 c 1
672.286132812 318.571289062 m 0
 675.142578125 320.857421875 670 332.571289062 667.142578125 332.857421875 c 0
 654.571289062 334.286132812 664.857421875 312.571289062 672.286132812 318.571289062 c 0
605.142578125 335.428710938 m 0
 603.428710938 337.142578125 573.713867188 339.428710938 572.571289062 330 c 1
 582.571289062 331.428710938 607.142578125 318.286132812 605.142578125 335.428710938 c 0
306 365.142578125 m 1xc680
 296.857421875 364 l 1xca80
 306 302.571289062 296.857421875 236.286132812 302.857421875 175.142578125 c 0
 303.713867188 167.142578125 296.286132812 162.286132812 310.571289062 162.857421875 c 1
 306 365.142578125 l 1xc680
724.286132812 211.713867188 m 1
 725.713867188 236 719.142578125 271.142578125 706 291.713867188 c 1
 700.571289062 269.142578125 707.142578125 246.571289062 712.571289062 224.857421875 c 0
 714.571289062 217.142578125 713.713867188 211.142578125 724.286132812 211.713867188 c 1
357.142578125 171.142578125 m 1
 341.428710938 315.142578125 l 1
 334.857421875 274.571289062 340.857421875 228.286132812 349.713867188 188 c 0
 350.857421875 182.857421875 350.286132812 171.428710938 356.857421875 171.142578125 c 2
 357.142578125 171.142578125 l 1
672 277.428710938 m 1
 649.428710938 282.286132812 672.857421875 240.286132812 680.857421875 235.142578125 c 1
 672 277.428710938 l 1
489.713867188 288.857421875 m 0
 488.571289062 290.286132812 470.286132812 296.857421875 467.713867188 296 c 0
 464.571289062 290.286132812 485.428710938 283.142578125 489.142578125 284.571289062 c 0
 489.142578125 286 490.286132812 288.286132812 489.713867188 288.857421875 c 0
280.571289062 303.713867188 m 1xd880
 281.428710938 248.571289062 277.428710938 192.286132812 280.571289062 137.142578125 c 0
 280.857421875 130.286132812 281.142578125 102.286132812 287.428710938 101.428710938 c 0
 296.857421875 100 292 114 292 117.142578125 c 0xd480
 291.142578125 170.286132812 288.286132812 224.286132812 286.286132812 277.142578125 c 0
 286.286132812 283.142578125 287.428710938 302 280.857421875 303.713867188 c 2
 280.571289062 303.713867188 l 1xd880
631.428710938 162.857421875 m 1
 646.286132812 162.857421875 657.713867188 173.428710938 652.571289062 188 c 1
 631.428710938 162.857421875 l 1
619.428710938 178 m 1
 609.142578125 188.286132812 576.286132812 149.428710938 579.142578125 146 c 2
 597.142578125 141.428710938 l 1
 619.428710938 178 l 1
694.571289062 73.142578125 m 1
 708 149.428710938 l 1
 698.857421875 148.571289062 699.142578125 141.142578125 697.142578125 134.571289062 c 0
 692.571289062 120.286132812 672.857421875 73.7138671875 694.571289062 73.142578125 c 1
396.286132812 152.857421875 m 1
 385.713867188 181.142578125 369.142578125 162.571289062 385.142578125 154.286132812 c 0
 387.713867188 152.857421875 392.857421875 153.713867188 396.286132812 152.857421875 c 1
385.713867188 99.142578125 m 1
 440.571289062 112.571289062 513.142578125 96.5712890625 565.713867188 108.286132812 c 0
 572.286132812 109.713867188 596 124.286132812 590.857421875 130.857421875 c 1
 533.428710938 97.7138671875 454.857421875 126.286132812 398.286132812 111.428710938 c 0
 390.857421875 109.428710938 384.857421875 109.142578125 385.428710938 99.142578125 c 1
 385.713867188 99.142578125 l 1
653.713867188 88 m 0
 657.142578125 90.2861328125 659.428710938 97.4287109375 660.857421875 101.713867188 c 1
 652.857421875 109.713867188 l 1
 649.713867188 92.5712890625 626.286132812 112.286132812 618 86.2861328125 c 0
 620.571289062 84 649.428710938 85.142578125 653.713867188 88 c 0
572.857421875 50.2861328125 m 1
 542.571289062 51.7138671875 505.428710938 51.142578125 476 45.142578125 c 0
 468 43.4287109375 465.142578125 46 465.713867188 35.142578125 c 1
 495.428710938 41.4287109375 525.713867188 41.142578125 556 43.142578125 c 0
 562.857421875 43.7138671875 570 41.4287109375 572.857421875 50.2861328125 c 1
462 44.5712890625 m 1
 440.857421875 44.5712890625 417.142578125 47.7138671875 397.428710938 40.5712890625 c 1
 402.286132812 30.5712890625 406.286132812 35.7138671875 413.142578125 36 c 0
 423.428710938 36.2861328125 438.571289062 37.142578125 448.571289062 38.2861328125 c 0
 453.142578125 38.857421875 462.286132812 38.2861328125 462 44.5712890625 c 1
EndSplineSet
Validated: 524325
EndChar

StartChar: H
Encoding: 72 72 14
Width: 1000
GlyphClass: 1
Flags: MW
HStem: 643.429 20G 663.143 21G
VStem: 475.714 9.14355 520 0.571289 612.857 1.14258
LayerCount: 2
Fore
SplineSet
574 684.286132812 m 1x38
 609.428710938 674.571289062 647.142578125 670 683.142578125 662.571289062 c 0
 697.142578125 659.713867188 699.142578125 642.286132812 719.142578125 660.571289062 c 1
 750 639.142578125 726.571289062 602.571289062 722.571289062 571.142578125 c 0
 713.713867188 497.713867188 720.286132812 379.142578125 701.428710938 313.713867188 c 0
 699.142578125 306 689.713867188 304.286132812 687.713867188 296.571289062 c 0
 686.857421875 293.713867188 696.286132812 292.857421875 696.286132812 288.571289062 c 0
 698.286132812 234.571289062 636.857421875 114.571289062 623.713867188 53.7138671875 c 0
 620 36.857421875 633.142578125 40 630.857421875 37.142578125 c 0
 618.286132812 31.7138671875 616 20.2861328125 614 7.4287109375 c 1
 612.857421875 24.857421875 l 1
 601.142578125 30.857421875 l 1
 594.571289062 22.857421875 l 1
 570.286132812 33.7138671875 526.286132812 34 520.571289062 2.2861328125 c 1
 520 22.857421875 l 1
 489.713867188 24.2861328125 l 1
 501.428710938 50 493.142578125 77.4287109375 496.571289062 102.286132812 c 0
 508.571289062 190 554.286132812 279.142578125 579.428710938 363.428710938 c 1
 575.428710938 369.713867188 455.713867188 352.571289062 452.571289062 342.571289062 c 2
 415.142578125 -10.857421875 l 1
 398.571289062 -10.857421875 408.857421875 1.7138671875 409.713867188 10.857421875 c 0
 406.857421875 15.142578125 315.713867188 21.142578125 314.857421875 0.857421875 c 1
 298.286132812 22 275.428710938 11.142578125 252.571289062 19.7138671875 c 1
 251.713867188 35.7138671875 268.571289062 24 271.713867188 38 c 0
 274.857421875 52 272 78.2861328125 274 94.5712890625 c 0
 282.286132812 160.857421875 294 226.571289062 301.428710938 292.857421875 c 0
 304 315.142578125 310.571289062 450.286132812 317.713867188 456.571289062 c 1
 330.286132812 443.713867188 l 1
 334.571289062 463.142578125 l 1
 312.857421875 457.713867188 l 1
 324.857421875 514.286132812 l 2
 331.713867188 545.713867188 328.286132812 544.857421875 330.571289062 571.142578125 c 0
 333.428710938 606.286132812 366.857421875 680.571289062 320.286132812 679.142578125 c 1
 342.286132812 697.428710938 374 675.142578125 374.571289062 716 c 1
 385.428710938 708.286132812 l 1
 390.571289062 717.713867188 l 1
 398.571289062 695.142578125 l 1
 473.428710938 696.857421875 l 1
 475.713867188 709.428710938 l 1
 484.857421875 706.857421875 l 1
 484.286132812 693.428710938 512.571289062 682.286132812 525.142578125 678 c 1
 525.142578125 659.142578125 506.571289062 676.571289062 492.857421875 672.286132812 c 0
 475.713867188 666.857421875 482.857421875 632.286132812 480 618.571289062 c 0
 474.571289062 592 458 554 456 526.857421875 c 0
 454.571289062 508.857421875 463.713867188 480.857421875 462 461.428710938 c 1
 567.142578125 474 l 1
 560 507.428710938 534.857421875 666.286132812 553.428710938 686 c 0
 555.428710938 688.286132812 568.286132812 688.286132812 572 693.142578125 c 1
 573.428710938 684 l 1
 574 684.286132812 l 1x38
566.286132812 653.713867188 m 1
 569.428710938 662.571289062 570 670.571289062 560.857421875 675.428710938 c 1
 556.571289062 656 l 1
 566.286132812 654 l 1
 566.286132812 653.713867188 l 1
595.142578125 668 m 1
 586.571289062 670 585.428710938 673.142578125 584.286132812 663.142578125 c 0x78
 582.286132812 643.142578125 583.713867188 613.142578125 587.713867188 593.713867188 c 0
 589.428710938 586 582 581.142578125 596.571289062 580.571289062 c 1
 595.142578125 668 l 1
663.142578125 627.428710938 m 1
 673.713867188 658.286132812 648 662.571289062 653.428710938 629.428710938 c 1
 663.142578125 627.428710938 l 1
706.571289062 638.286132812 m 1
 692 641.428710938 l 1
 690.571289062 611.142578125 l 1
 706.857421875 638.286132812 l 1
 706.571289062 638.286132812 l 1
430 663.142578125 m 1
 410.571289062 667.428710938 l 1
 414.571289062 615.428710938 l 1
 436 608 421.142578125 652 430 663.428710938 c 1xb8
 430 663.142578125 l 1
583.142578125 450 m 1
 586.286132812 455.142578125 585.428710938 469.713867188 580 471.142578125 c 0
 574.286132812 472.571289062 485.428710938 437.713867188 465.428710938 449.713867188 c 1
 460.857421875 430.857421875 l 1
 583.142578125 450.286132812 l 1
 583.142578125 450 l 1
334.286132812 438 m 1
 324.571289062 440 l 1
 322 429.713867188 317.713867188 418 325.428710938 409.142578125 c 1
 334.286132812 438 l 1
664.857421875 214.286132812 m 1
 696.571289062 358.571289062 l 1
 690.286132812 361.142578125 686.857421875 351.428710938 685.142578125 347.142578125 c 0
 678 329.142578125 666 303.142578125 660.857421875 286.571289062 c 0
 647.428710938 244 646.286132812 199.713867188 627.142578125 158.571289062 c 1
 643.142578125 160.857421875 641.713867188 182.286132812 645.428710938 195.428710938 c 1
 658 182.571289062 l 1
 665.142578125 214.286132812 l 1
 664.857421875 214.286132812 l 1
331.713867188 402.857421875 m 1
 317.142578125 423.428710938 322.286132812 365.142578125 322 360.857421875 c 0
 321.428710938 348 306.571289062 322 324.286132812 322.571289062 c 1
 331.713867188 402.857421875 l 1
313.713867188 227.142578125 m 1
 313.713867188 252.571289062 330.857421875 292.286132812 317.428710938 313.428710938 c 1
 311.428710938 289.142578125 305.713867188 266.286132812 306.571289062 241.142578125 c 0
 306.571289062 232.571289062 298.571289062 228 313.713867188 227.142578125 c 1
311.428710938 217.428710938 m 1
 301.713867188 219.428710938 l 1
 297.428710938 200 l 1
 307.142578125 198 l 1
 311.428710938 217.428710938 l 1
520.571289062 94.5712890625 m 1
 535.713867188 163.142578125 l 1
 525.142578125 163.142578125 524 150 521.713867188 142.571289062 c 0
 519.142578125 133.428710938 511.428710938 100.571289062 520.571289062 94.5712890625 c 1
335.142578125 161.142578125 m 1
 324.857421875 161.142578125 l 1
 319.428710938 113.428710938 l 1
 334.857421875 161.142578125 l 1
 335.142578125 161.142578125 l 1
615.713867188 38 m 1
 621.142578125 62.2861328125 l 1
 616.286132812 63.4287109375 l 1
 606 40 l 1
 615.713867188 38 l 1
374 34.5712890625 m 1
 397.428710938 30.2861328125 393.142578125 57.4287109375 392.286132812 71.4287109375 c 1
 374 34.5712890625 l 1
295.142578125 26.2861328125 m 1
 283.142578125 64.857421875 l 1
 275.713867188 30.5712890625 l 1
 295.142578125 26.2861328125 l 1
348.286132812 34.857421875 m 1
 337.713867188 37.4287109375 323.428710938 43.142578125 316.857421875 31.7138671875 c 1
 346.286132812 25.142578125 l 1
 348.286132812 34.857421875 l 1
EndSplineSet
Validated: 524325
EndChar

StartChar: I
Encoding: 73 73 15
Width: 1000
GlyphClass: 1
Flags: MW
HStem: -9.71387 21G<620.857 620.857> 6.57129 12.2861 612.286 13.7139 700.286 20G
VStem: 432.857 21.1426 633.429 20.2852 659.714 4.57227
LayerCount: 2
Fore
SplineSet
543.428710938 684.857421875 m 1xbe
 626 684 l 1
 620.286132812 674.857421875 l 1
 633.428710938 681.428710938 646.857421875 644 648.857421875 634.571289062 c 0
 650.857421875 625.142578125 654.857421875 536.571289062 653.713867188 529.428710938 c 0
 652.571289062 520.857421875 646.286132812 515.428710938 642.571289062 508.286132812 c 1
 671.428710938 506.286132812 l 1
 672.571289062 494.286132812 669.428710938 497.142578125 660 496 c 0
 640.286132812 494 615.428710938 507.713867188 594.857421875 492.286132812 c 1
 590.857421875 502.286132812 l 1
 577.713867188 495.142578125 l 1
 583.428710938 439.428710938 592.571289062 386.571289062 586 330.286132812 c 0
 580.857421875 286 560 243.142578125 572.286132812 198 c 1
 586 184.857421875 663.713867188 233.713867188 678.286132812 220 c 0
 696.571289062 202.571289062 721.142578125 44.2861328125 710.286132812 22.857421875 c 1
 700.286132812 18.857421875 l 1
 738.286132812 6.5712890625 l 1x7e
 715.713867188 -6.5712890625 671.428710938 17.142578125 664.286132812 -7.7138671875 c 1
 659.713867188 -7.7138671875 l 1
 659.713867188 8.5712890625 648 9.142578125 634.571289062 9.142578125 c 1
 620.857421875 -9.7138671875 l 1
 622 9.7138671875 l 1
 269.428710938 39.142578125 l 1
 262.286132812 45.4287109375 270 48 277.142578125 48.2861328125 c 0
 295.142578125 49.142578125 314.286132812 44 333.142578125 49.142578125 c 1
 332.857421875 62 308 50.5712890625 304.857421875 52 c 0
 303.428710938 52.5712890625 298.286132812 71.7138671875 280.857421875 67.4287109375 c 1
 291.713867188 86 l 1
 272.857421875 92.2861328125 l 1
 275.713867188 106.286132812 300.286132812 98 302.571289062 100 c 0
 301.142578125 116.857421875 314 140 296 146.571289062 c 1
 316.571289062 191.142578125 l 1
 351.713867188 211.428710938 393.142578125 217.428710938 432.857421875 222 c 1
 418.571289062 504.857421875 l 1
 305.428710938 523.142578125 l 1
 288 514 l 1
 279.428710938 544 268 581.713867188 280 611.713867188 c 1
 236.286132812 612.286132812 l 1
 278.857421875 626 l 1
 283.713867188 666.571289062 l 1
 290 670.857421875 l 1
 513.713867188 685.428710938 l 1
 520 713.428710938 l 1
 532.857421875 720.286132812 l 1
 542.571289062 686 l 1
 543.428710938 684.857421875 l 1xbe
603.142578125 637.142578125 m 1
 649.713867188 632.857421875 613.142578125 664.571289062 603.713867188 644.286132812 c 1
 603.142578125 637.142578125 l 1
397.713867188 617.142578125 m 1
 383.142578125 618.286132812 l 1
 382.571289062 608.571289062 l 1
 397.142578125 607.428710938 l 1
 397.713867188 617.142578125 l 1
633.428710938 513.428710938 m 2
 636.571289062 516 629.142578125 586.286132812 619.428710938 592 c 1
 618.857421875 514.286132812 l 1
 633.428710938 513.428710938 l 2
580.571289062 590 m 1
 558.286132812 615.713867188 539.713867188 491.713867188 585.142578125 524.571289062 c 1
 580.571289062 590 l 1
458.286132812 579.142578125 m 1
 443.713867188 580.286132812 l 1
 436.857421875 551.428710938 450.286132812 527.142578125 452 498.857421875 c 2
 454 236.857421875 l 1
 467.713867188 223.713867188 l 1
 458.286132812 579.142578125 l 1
399.428710938 573.428710938 m 1
 388 576 390.286132812 573.428710938 387.428710938 564.857421875 c 0
 382.571289062 551.428710938 378.286132812 522.286132812 401.428710938 532 c 1
 399.428710938 573.428710938 l 1
505.713867188 226.857421875 m 1
 514.857421875 290.857421875 l 1
 505.713867188 352.286132812 l 1
 491.713867188 222 l 1
 505.713867188 226.857421875 l 1
673.428710938 180.286132812 m 1
 668.286132812 209.713867188 l 1
 660.571289062 203.142578125 l 1
 660.571289062 189.142578125 l 1
 673.428710938 180.286132812 l 1
645.713867188 201.713867188 m 1
 590.857421875 181.428710938 l 1
 609.713867188 185.428710938 642.286132812 176.571289062 645.713867188 201.713867188 c 1
465.142578125 190 m 2
 463.142578125 199.428710938 459.142578125 199.428710938 451.142578125 198.571289062 c 0
 426.857421875 196.857421875 365.428710938 184.857421875 340.857421875 178.571289062 c 0
 320 173.142578125 316.286132812 158.286132812 340.286132812 163.428710938 c 2
 465.142578125 189.713867188 l 1
 465.142578125 190 l 2
637.428710938 148.571289062 m 0
 634 152.571289062 593.428710938 159.713867188 598 141.713867188 c 0
 601.713867188 141.713867188 649.713867188 134.286132812 637.428710938 148.571289062 c 0
631.142578125 129.713867188 m 1
 602.286132812 131.713867188 l 1
 601.713867188 122 l 1
 612.286132812 121.142578125 626.857421875 117.713867188 631.428710938 129.713867188 c 1
 631.142578125 129.713867188 l 1
373.713867188 133.142578125 m 1
 315.428710938 130 l 1
 314.571289062 120.286132812 350.857421875 124.571289062 355.713867188 125.428710938 c 0
 361.142578125 126.286132812 374 125.428710938 373.713867188 133.142578125 c 1
356.571289062 95.4287109375 m 1
 318.286132812 102.857421875 l 1
 310.571289062 87.7138671875 354.286132812 87.7138671875 356.571289062 95.4287109375 c 1
624 28.2861328125 m 1
 604.286132812 50.5712890625 556.857421875 29.7138671875 527.713867188 39.7138671875 c 1
 563.428710938 30.2861328125 l 1
 624 28.2861328125 l 1
692.286132812 33.142578125 m 1
 682.571289062 33.7138671875 l 1
 681.428710938 19.142578125 l 1
 691.142578125 18.5712890625 l 1
 692.286132812 33.142578125 l 1
EndSplineSet
Validated: 524325
EndChar

StartChar: J
Encoding: 74 74 16
Width: 1000
GlyphClass: 1
Flags: MW
HStem: 556 35.1426 580.571 63.7148 619.714 9.71484 651.429 2.28516 654 13.7139
VStem: 282.857 19.7139 493.429 34.2852 554.571 2.28613 748 4.85742
LayerCount: 2
Fore
SplineSet
282.857421875 619.713867188 m 1x3f80
 234 619.713867188 l 1
 230.286132812 640.286132812 278 624.286132812 282.857421875 629.428710938 c 1
 282.857421875 654 l 1
 258.286132812 654 l 1
 256.857421875 661.428710938 260 665.142578125 266.571289062 667.713867188 c 0
 288.286132812 676 336.286132812 676.571289062 361.428710938 681.713867188 c 0
 439.428710938 697.142578125 544.286132812 727.713867188 623.142578125 717.713867188 c 0
 650.857421875 714.286132812 681.142578125 688.857421875 708.571289062 680.857421875 c 0
 717.142578125 678.286132812 736 679.428710938 737.713867188 677.713867188 c 0
 739.428710938 676 736.571289062 667.713867188 739.142578125 664.857421875 c 0
 743.713867188 659.713867188 796.571289062 648.857421875 809.142578125 634 c 0
 832.571289062 606.286132812 805.713867188 524.286132812 784.571289062 497.428710938 c 0
 773.142578125 482.857421875 752.286132812 479.713867188 752.857421875 453.142578125 c 1
 748 472.571289062 l 1
 717.142578125 464.857421875 683.428710938 461.428710938 677.142578125 424.286132812 c 1
 682.286132812 360.857421875 698.286132812 298.286132812 703.713867188 235.142578125 c 0
 707.713867188 189.142578125 713.142578125 106.286132812 693.713867188 65.142578125 c 0
 691.428710938 60.2861328125 684.286132812 60 682 56.2861328125 c 0
 666 30 686 32.857421875 637.713867188 37.142578125 c 1
 635.142578125 25.7138671875 l 2
 628.286132812 9.4287109375 622 36.5712890625 618 36.5712890625 c 0
 534 -17.4287109375 440.286132812 -4 346.286132812 -12.2861328125 c 1
 356 4.857421875 l 1
 341.142578125 23.142578125 312.571289062 61.142578125 305.713867188 82.2861328125 c 0
 301.428710938 95.7138671875 309.142578125 106.857421875 306.286132812 121.142578125 c 0
 304 131.713867188 293.713867188 136.571289062 292.286132812 146.571289062 c 1
 312 144.286132812 l 1
 303.142578125 163.142578125 310.286132812 185.428710938 310.857421875 205.428710938 c 0
 311.428710938 220 298.857421875 232.286132812 314 247.428710938 c 0
 338.571289062 272 375.142578125 249.428710938 395.142578125 230 c 0
 404 221.428710938 425.428710938 184 430.571289062 182 c 0
 472 164 495.142578125 206.286132812 501.713867188 241.142578125 c 0
 512.571289062 299.428710938 494.571289062 321.428710938 493.428710938 368 c 0
 492.286132812 410.857421875 522 446.857421875 454.286132812 460.571289062 c 0
 438.286132812 463.713867188 373.142578125 472 358 472 c 0
 334.571289062 472 307.142578125 452 282.857421875 452.857421875 c 1
 292.571289062 471.142578125 314 475.142578125 332 479.713867188 c 1
 302.571289062 482.286132812 l 1
 307.428710938 501.713867188 l 1
 282.857421875 501.713867188 l 1
 282.857421875 619.142578125 l 1
 282.857421875 619.713867188 l 1x3f80
635.142578125 702.857421875 m 1
 620.857421875 702.857421875 l 1
 620.857421875 678.571289062 l 1
 638.286132812 683.428710938 l 1
 635.428710938 702.857421875 l 1
 635.142578125 702.857421875 l 1
601.142578125 698 m 1
 581.428710938 698 l 1
 581.428710938 678.571289062 l 1
 596.286132812 676.286132812 603.142578125 682.857421875 600.857421875 698 c 1
 601.142578125 698 l 1
571.713867188 693.142578125 m 1
 546 692.571289062 515.428710938 686 490.857421875 678.571289062 c 0
 484.286132812 676.571289062 475.713867188 678.286132812 474 668.571289062 c 1
 499.142578125 672 536 671.713867188 559.428710938 678.571289062 c 0
 567.713867188 681.142578125 573.428710938 682.286132812 572 692.857421875 c 1
 571.713867188 693.142578125 l 1
669.713867188 688.286132812 m 1
 650.286132812 686 l 1
 655.428710938 678.571289062 660.857421875 677.428710938 669.713867188 678.571289062 c 1
 669.713867188 688.286132812 l 1
640.286132812 658.857421875 m 1
 623.142578125 654 l 1
 620.857421875 634.286132812 l 1
 638 639.142578125 l 1
 640.286132812 658.857421875 l 1
562 654 m 1
 532.571289062 649.142578125 l 1
 532.571289062 644.286132812 l 1
 562 644.286132812 l 1x5f80
 562 654 l 1
713.713867188 653.713867188 m 1
 694 651.428710938 l 1
 689.142578125 639.142578125 l 1
 713.428710938 648.857421875 l 1
 713.428710938 653.713867188 l 1
 713.713867188 653.713867188 l 1
762.857421875 624.571289062 m 1
 766.571289062 642.286132812 750.571289062 643.428710938 740.857421875 653.713867188 c 1
 730.857421875 639.428710938 l 1
 714 487.428710938 l 1
 723.428710938 489.428710938 722.571289062 497.142578125 723.713867188 504.571289062 c 0
 730 543.713867188 733.428710938 583.142578125 742.571289062 621.713867188 c 1
 762.857421875 624.571289062 l 1
639.428710938 591.142578125 m 1x9f80
 640 610 l 1
 627.428710938 604.857421875 607.713867188 602 618 585.428710938 c 1
 639.142578125 591.142578125 l 1
 639.428710938 591.142578125 l 1x9f80
556.857421875 580.571289062 m 1x5f80
 542.857421875 581.142578125 528.286132812 581.142578125 514.857421875 576.286132812 c 0
 508 573.713867188 506.571289062 578 508 566 c 1
 549.142578125 561.713867188 l 1
 554.571289062 566 l 1
 556.857421875 580.857421875 l 1
 556.857421875 580.571289062 l 1x5f80
640.286132812 556 m 0x9f80
 637.142578125 559.142578125 613.142578125 556 615.713867188 544 c 1
 623.142578125 536.571289062 l 1
 639.713867188 542 l 2
 640.857421875 543.713867188 640.571289062 555.713867188 640.286132812 556 c 0x9f80
303.142578125 522.571289062 m 1
 310 511.428710938 394.286132812 528.571289062 395.428710938 543.713867188 c 0
 396.857421875 561.428710938 361.142578125 533.142578125 358.857421875 533.142578125 c 0
 355.713867188 533.142578125 350 540.571289062 344 541.142578125 c 0
 330.286132812 542.286132812 316.286132812 541.142578125 302.571289062 541.142578125 c 1
 303.428710938 522.286132812 l 1
 303.142578125 522.571289062 l 1
522.857421875 546 m 1
 509.428710938 551.428710938 495.428710938 551.142578125 488.571289062 536.286132812 c 1
 498.857421875 539.142578125 526.857421875 527.713867188 522.857421875 546 c 1
620.571289062 504.571289062 m 1
 624 476.286132812 618.286132812 442.857421875 620.571289062 414 c 1
 632 413.428710938 629.142578125 412.286132812 630.286132812 421.142578125 c 0
 634 449.142578125 630.857421875 488.286132812 632.571289062 516.857421875 c 1
 615.428710938 516.857421875 l 1
 613.713867188 511.428710938 620 506.571289062 620.286132812 504.571289062 c 2
 620.571289062 504.571289062 l 1
527.713867188 409.142578125 m 1
 518 406.857421875 l 1
 523.428710938 393.713867188 526 376.857421875 527.713867188 362.571289062 c 0
 529.142578125 350.286132812 520.286132812 317.142578125 537.428710938 321.142578125 c 1
 542.571289062 355.713867188 539.428710938 376.857421875 527.713867188 409.142578125 c 1
689.142578125 262.286132812 m 1
 679.428710938 262.286132812 l 1
 679.428710938 247.713867188 l 1
 689.142578125 247.713867188 l 1
 689.142578125 262.286132812 l 1
449.142578125 110.286132812 m 1
 331.713867188 208.286132812 l 1
 330.286132812 196.286132812 334.286132812 186.857421875 341.428710938 177.713867188 c 0
 344.857421875 173.428710938 376.571289062 146.286132812 383.713867188 140.571289062 c 0
 390.286132812 135.428710938 434.571289062 102.571289062 437.713867188 101.142578125 c 0
 446.857421875 97.4287109375 451.428710938 99.7138671875 449.142578125 110.286132812 c 1
512.857421875 184 m 0
 528 182.571289062 528.571289062 196.286132812 527.428710938 208.571289062 c 0
 524.857421875 212.286132812 508.571289062 188.286132812 512.857421875 184 c 0
341.428710938 154.571289062 m 1
 343.142578125 163.428710938 336 170.857421875 326.857421875 169.142578125 c 1
 326.857421875 159.428710938 l 1
 341.428710938 154.571289062 l 1
508 154.571289062 m 1
 508 164.286132812 l 1
 478.286132812 157.142578125 l 1
 473.142578125 142.857421875 475.713867188 139.713867188 459.142578125 137.428710938 c 1
 479.142578125 115.142578125 488.857421875 153.713867188 508 154.571289062 c 1
512.857421875 115.428710938 m 0
 506.857421875 121.142578125 481.713867188 92.2861328125 483.428710938 91.142578125 c 0
 492.857421875 87.4287109375 516.571289062 112 512.857421875 115.428710938 c 0
361.142578125 61.4287109375 m 1
 322 95.7138671875 l 1
 326.286132812 73.142578125 335.428710938 56 361.142578125 61.4287109375 c 1
601.142578125 86 m 2
 598.286132812 89.142578125 564.286132812 67.4287109375 571.713867188 61.4287109375 c 1
 595.428710938 62 l 1
 601.142578125 85.7138671875 l 1
 601.142578125 86 l 2
380.857421875 12.5712890625 m 1
 392 12.2861328125 403.142578125 10 410 20 c 1
 402.857421875 27.142578125 l 1
 380.857421875 17.4287109375 l 1
 380.857421875 12.5712890625 l 1
EndSplineSet
Validated: 524325
EndChar

StartChar: K
Encoding: 75 75 17
Width: 1000
GlyphClass: 1
Flags: MW
HStem: 20.2861 40.8564 275.714 2.85742
VStem: 366 11.4287
LayerCount: 2
Fore
SplineSet
371.713867188 742.286132812 m 1
 366 702.286132812 l 1
 411.142578125 711.713867188 447.428710938 720.857421875 492 702.286132812 c 1
 446.286132812 676.571289062 l 1
 470.857421875 671.428710938 470.571289062 580.857421875 474.857421875 576.286132812 c 1
 520.571289062 593.428710938 l 1
 524.286132812 574.286132812 483.142578125 558.857421875 481.428710938 550 c 1
 490.286132812 540.286132812 477.142578125 503.713867188 489.142578125 501.713867188 c 0
 502 499.713867188 652.857421875 662.571289062 684.571289062 672.571289062 c 1
 698 673.428710938 l 1
 694.286132812 625.713867188 728.571289062 653.142578125 755.142578125 644.571289062 c 1
 726.571289062 633.142578125 l 1
 734.571289062 602.571289062 829.713867188 641.428710938 830 601.713867188 c 0
 830 573.713867188 788.857421875 585.713867188 779.428710938 580.286132812 c 0
 777.142578125 578.857421875 752.857421875 543.713867188 745.713867188 536.286132812 c 0
 691.428710938 479.142578125 630.286132812 418.571289062 560.571289062 380.571289062 c 1
 582 334.857421875 590.857421875 283.713867188 616.571289062 239.713867188 c 0
 628 220.286132812 707.713867188 130.857421875 697.713867188 117.713867188 c 1
 674.286132812 122.286132812 666.857421875 129.142578125 652 146.286132812 c 1
 657.428710938 111.713867188 671.428710938 86.5712890625 709.142578125 106.286132812 c 1
 709.428710938 100 710 94.5712890625 706.571289062 88.857421875 c 0
 698.571289062 76.2861328125 592.857421875 44.2861328125 571.713867188 37.4287109375 c 1
 574.571289062 8.857421875 l 1
 405.713867188 283.713867188 l 1
 428.857421875 36 l 1
 411.428710938 11.7138671875 396.286132812 23.4287109375 380.857421875 20.2861328125 c 0
 347.428710938 13.142578125 314.571289062 0.5712890625 279.713867188 3.4287109375 c 0
 276.571289062 0.2861328125 284 -35.142578125 268.286132812 -36.5712890625 c 1
 261.713867188 -15.7138671875 252.571289062 4 246.857421875 25.142578125 c 0
 216.857421875 141.713867188 228.571289062 371.142578125 252.571289062 491.428710938 c 0
 256 508.286132812 267.142578125 521.713867188 268.571289062 538.857421875 c 0
 271.428710938 573.428710938 248.286132812 610 262 642.286132812 c 1
 251.428710938 644.857421875 l 1
 251.428710938 656 l 1
 263.713867188 659.142578125 278.571289062 665.142578125 289.713867188 671.713867188 c 0
 299.428710938 677.428710938 320.571289062 696.571289062 326.857421875 700.571289062 c 0
 333.142578125 704.571289062 344 699.713867188 347.713867188 702.571289062 c 0
 352 705.713867188 349.142578125 746.286132812 371.428710938 742 c 1
 371.713867188 742.286132812 l 1
423.142578125 668 m 1
 423.142578125 542 l 1
 464 557.713867188 438.857421875 573.713867188 435.142578125 602.571289062 c 0
 432.571289062 622.286132812 442 655.713867188 423.142578125 668 c 1
377.428710938 639.428710938 m 1
 360.857421875 642.857421875 365.428710938 631.713867188 366 619.428710938 c 0
 366.571289062 608.286132812 370.571289062 586.286132812 373.428710938 575.142578125 c 0
 374.857421875 569.428710938 375.142578125 558 383.142578125 559.142578125 c 1
 377.428710938 639.428710938 l 1
704 633.428710938 m 1
 690 637.142578125 688 638.286132812 675.713867188 630.571289062 c 0
 636.857421875 606 592.857421875 550.571289062 556.286132812 519.142578125 c 0
 537.428710938 502.857421875 516 490 497.713867188 473.428710938 c 1
 536.571289062 480.286132812 564 519.428710938 592.286132812 542 c 0
 602 549.713867188 709.713867188 626.857421875 703.713867188 633.713867188 c 1
 704 633.428710938 l 1
618 461.713867188 m 1
 606.571289062 458.857421875 538.286132812 417.713867188 538 413.142578125 c 0
 537.428710938 406.571289062 547.428710938 402.857421875 558 410.286132812 c 0
 577.142578125 423.428710938 601.428710938 444.857421875 618 461.713867188 c 1
394.571289062 410.286132812 m 0
 400.286132812 416 383.428710938 433.142578125 377.428710938 427.428710938 c 0
 371.428710938 421.713867188 388.571289062 404.571289062 394.571289062 410.286132812 c 0
514.857421875 398.857421875 m 1
 498.571289062 411.713867188 500.571289062 366.286132812 526.286132812 376 c 1
 514.857421875 398.857421875 l 1
423.142578125 381.713867188 m 1
 392.857421875 385.428710938 433.428710938 346.286132812 440.571289062 353.142578125 c 1
 423.142578125 381.713867188 l 1
566.286132812 313.142578125 m 1
 573.428710938 326.286132812 540.571289062 367.428710938 532 358.857421875 c 1
 566.286132812 313.142578125 l 1
486.286132812 284.571289062 m 1
 440.571289062 347.428710938 l 1
 439.428710938 336.286132812 477.142578125 276 486.286132812 284.571289062 c 1
423.142578125 301.428710938 m 1
 424.286132812 312.571289062 416.571289062 322.286132812 408.857421875 330 c 1
 400.286132812 321.428710938 l 1
 423.142578125 301.428710938 l 1
492 278.571289062 m 1
 480.571289062 275.713867188 l 1
 503.713867188 236.286132812 529.713867188 197.142578125 550.286132812 156.571289062 c 0
 560.571289062 136 569.142578125 98.5712890625 578.857421875 82.2861328125 c 0
 588 66.857421875 608.286132812 68.857421875 601.713867188 87.7138671875 c 0
 580 150.286132812 516.571289062 215.142578125 491.713867188 278.571289062 c 1
 492 278.571289062 l 1
366 55.4287109375 m 1
 360.286132812 195.713867188 l 1
 348.857421875 250 l 1
 354.571289062 63.7138671875 l 1
 366 55.142578125 l 1
 366 55.4287109375 l 1
658 95.4287109375 m 1
 640.857421875 118.286132812 l 1
 646.571289062 95.4287109375 l 1
 658 95.4287109375 l 1
291.713867188 38.2861328125 m 1
 309.142578125 52.5712890625 l 1
 303.142578125 106.857421875 l 1
 291.713867188 38.2861328125 l 1
572.286132812 61.142578125 m 1
 570.857421875 66.5712890625 559.428710938 95.142578125 555.142578125 89.7138671875 c 1
 560.857421875 61.142578125 l 1
 572.286132812 61.142578125 l 1
388.857421875 78.2861328125 m 1
 377.428710938 78.2861328125 l 1
 377.428710938 61.142578125 l 1
 388.857421875 61.142578125 l 1
 388.857421875 78.2861328125 l 1
EndSplineSet
Validated: 524325
EndChar

StartChar: L
Encoding: 76 76 18
Width: 1000
GlyphClass: 1
Flags: MW
HStem: 50.5713 36 97.4287 32.2852 165.714 41.1436 184.571 21.7148
VStem: 287.429 176 494 21.7139 618.286 31.7139
LayerCount: 2
Fore
SplineSet
258 697.142578125 m 1xde
 262.286132812 686.286132812 l 1
 292.857421875 701.142578125 l 1
 301.428710938 680.571289062 314.857421875 697.142578125 331.428710938 699.428710938 c 0
 353.713867188 702.571289062 376.571289062 703.713867188 398.857421875 706.286132812 c 1
 404.857421875 620.571289062 434.286132812 537.713867188 446.857421875 452.857421875 c 0
 459.428710938 368 458.857421875 288.571289062 463.428710938 206.286132812 c 1
 539.713867188 198 611.713867188 229.428710938 686.286132812 238 c 1
 716 227.142578125 770.286132812 52.2861328125 763.713867188 14.2861328125 c 1
 670.286132812 5.7138671875 575.142578125 10.2861328125 482 22.5712890625 c 1
 473.142578125 6.2861328125 l 1
 467.142578125 38.2861328125 l 1
 455.142578125 20.5712890625 l 1
 416.286132812 15.7138671875 378.857421875 34 341.428710938 25.142578125 c 1
 336.571289062 28.2861328125 l 1
 307.142578125 55.142578125 291.428710938 202.286132812 287.428710938 246 c 0
 286.286132812 258.857421875 290.571289062 271.142578125 289.428710938 284 c 0
 276.571289062 420.571289062 260.286132812 557.142578125 247.142578125 693.713867188 c 1
 257.713867188 697.428710938 l 1
 258 697.142578125 l 1xde
401.713867188 570.286132812 m 1
 376.286132812 687.428710938 l 1
 364 662.571289062 381.713867188 610.571289062 391.142578125 584.286132812 c 0
 393.142578125 579.142578125 394.286132812 568.286132812 401.713867188 570.286132812 c 1
678.571289062 206.857421875 m 1xee
 669.142578125 220.571289062 l 1
 571.142578125 190.571289062 l 1
 678.286132812 206.857421875 l 1
 678.571289062 206.857421875 l 1xee
517.428710938 184.571289062 m 1xde
 463.142578125 184.571289062 l 1
 464.857421875 168.286132812 l 1
 517.713867188 184.571289062 l 1
 517.428710938 184.571289062 l 1xde
698.571289062 170.571289062 m 1
 650 165.713867188 l 1xee
 652.286132812 144.286132812 l 1
 700.857421875 149.142578125 l 1
 698.571289062 170.571289062 l 1
618.286132812 156.857421875 m 1
 608.286132812 156.857421875 602.571289062 155.428710938 597.713867188 146.571289062 c 1
 598.571289062 138.571289062 l 1
 620 140.857421875 l 1
 618.286132812 156.857421875 l 1
533.713867188 132 m 1
 529.713867188 142.286132812 520.857421875 142.857421875 511.142578125 140.571289062 c 1
 512.286132812 129.713867188 l 1
 533.713867188 132 l 1
713.428710938 128.286132812 m 1
 656 109.142578125 l 1
 673.142578125 96.5712890625 700.286132812 116.857421875 720.857421875 113.142578125 c 1
 713.428710938 128.286132812 l 1
494 95.142578125 m 1
 477.428710938 98.857421875 l 1
 479.142578125 82.857421875 l 1
 495.142578125 84.5712890625 l 1
 494 95.142578125 l 1
629.713867188 98.2861328125 m 1
 629.713867188 118.286132812 613.142578125 106.857421875 601.142578125 111.713867188 c 1
 602.857421875 95.4287109375 l 1
 629.713867188 98.2861328125 l 1
543.713867188 89.4287109375 m 1
 539.142578125 101.142578125 526 99.142578125 515.713867188 97.4287109375 c 1
 516.857421875 86.5712890625 l 1
 543.713867188 89.4287109375 l 1
394.857421875 52.5712890625 m 1
 394.857421875 62.857421875 394 76.2861328125 381.428710938 78.2861328125 c 1
 384.286132812 51.4287109375 l 1
 395.142578125 52.5712890625 l 1
 394.857421875 52.5712890625 l 1
734.286132812 87.142578125 m 1
 704.571289062 84.2861328125 l 1
 703.142578125 73.142578125 l 1
 713.428710938 81.142578125 731.428710938 71.142578125 734.286132812 87.142578125 c 1
536.571289062 50.5712890625 m 1
 482.286132812 50.5712890625 l 1
 483.428710938 41.142578125 501.142578125 42.2861328125 507.713867188 42.2861328125 c 0
 513.713867188 42.2861328125 538 41.142578125 536.857421875 50.5712890625 c 1
 536.571289062 50.5712890625 l 1
750.286132812 39.7138671875 m 1
 586.857421875 39.142578125 l 1
 743.142578125 28 l 1
 750 39.7138671875 l 1
 750.286132812 39.7138671875 l 1
EndSplineSet
Validated: 524325
EndChar

StartChar: M
Encoding: 77 77 19
Width: 1000
GlyphClass: 1
Flags: MW
HStem: 9.71387 23.4287 34.2861 22 712.857 20G
VStem: 287.714 26.8574
LayerCount: 2
Fore
SplineSet
612 732.857421875 m 1
 619.713867188 712 622.571289062 690 627.713867188 668.286132812 c 0
 636.857421875 629.428710938 650.286132812 472 662 452.857421875 c 0
 679.713867188 424.571289062 681.713867188 422.857421875 688.571289062 384.286132812 c 0
 709.142578125 269.713867188 708 148 736.571289062 34.2861328125 c 1
 725.142578125 40.857421875 700.286132812 30.5712890625 691.142578125 22.857421875 c 0
 686 18.857421875 692.286132812 4.857421875 683.713867188 2.5712890625 c 0
 671.142578125 -0.857421875 641.713867188 21.4287109375 620.857421875 0 c 1
 614.857421875 4.2861328125 l 1
 576.857421875 329.428710938 l 1
 528.857421875 266.571289062 l 1
 541.142578125 252.857421875 l 1
 510.286132812 250.857421875 l 1
 416.571289062 377.713867188 l 1
 374 155.142578125 l 1
 357.142578125 117.713867188 354.286132812 49.7138671875 336.571289062 16 c 0
 332 7.4287109375 320.857421875 14.2861328125 314.571289062 10.2861328125 c 0
 309.428710938 6.857421875 302.857421875 -38 287.713867188 -42 c 1
 290.571289062 9.7138671875 l 1
 258.857421875 12.5712890625 218.571289062 4.857421875 197.428710938 33.142578125 c 1
 214.857421875 37.4287109375 l 1
 216.857421875 77.4287109375 217.713867188 123.428710938 226.286132812 162.286132812 c 0
 237.713867188 213.713867188 269.713867188 270 282 318.857421875 c 0
 290.286132812 351.713867188 291.142578125 392.286132812 300.286132812 427.713867188 c 0
 322.286132812 514.286132812 352.286132812 598 375.142578125 684 c 1
 428.571289062 724.571289062 407.142578125 667.142578125 417.142578125 640.286132812 c 0
 422 627.142578125 442.857421875 629.428710938 445.428710938 610.857421875 c 0
 447.713867188 595.713867188 436 588 438 572.857421875 c 0
 441.142578125 550 468.286132812 479.428710938 478 453.142578125 c 0
 480.857421875 445.142578125 474.857421875 442.857421875 490 445.428710938 c 1
 497.142578125 500 513.428710938 553.713867188 533.713867188 604.571289062 c 0
 541.142578125 623.142578125 583.428710938 717.428710938 592.286132812 726 c 0
 598.857421875 732.286132812 602.286132812 734 611.713867188 732.857421875 c 2
 612 732.857421875 l 1
584.571289062 610.857421875 m 1
 602.286132812 627.428710938 606.857421875 658.286132812 603.428710938 680.571289062 c 1
 584.857421875 664.286132812 581.142578125 634 584.571289062 610.857421875 c 1
528.857421875 476 m 1
 533.142578125 520.286132812 585.142578125 561.428710938 567.713867188 604.286132812 c 1
 519.142578125 487.428710938 l 1
 517.142578125 478.286132812 l 1
 528.857421875 476 l 1
620 590 m 1
 608.571289062 589.428710938 l 1
 603.713867188 572 l 1
 620.857421875 572.857421875 l 1
 620 590 l 1
428.857421875 522 m 1
 411.713867188 537.142578125 423.428710938 500.857421875 424 496.571289062 c 0
 424.571289062 491.428710938 419.428710938 484 420.857421875 478.857421875 c 0
 422.571289062 472.571289062 433.428710938 472.286132812 435.713867188 468.857421875 c 0
 447.428710938 452.857421875 455.142578125 430 474.571289062 421.142578125 c 1
 472.286132812 438.286132812 458 448.571289062 450.571289062 464 c 0
 446 473.713867188 431.142578125 519.713867188 428.857421875 521.713867188 c 2
 428.857421875 522 l 1
638 470.571289062 m 1
 626.571289062 471.428710938 628.286132812 471.142578125 625.428710938 462.571289062 c 0
 620.286132812 447.142578125 634 406 636.857421875 387.428710938 c 0
 639.428710938 370.857421875 636.857421875 352 639.713867188 336 c 0
 641.142578125 327.713867188 645.142578125 318.571289062 651.713867188 328.286132812 c 1
 638 470.857421875 l 1
 638 470.571289062 l 1
535.142578125 361.428710938 m 1
 512 366 l 1
 511.142578125 355.428710938 512.571289062 349.428710938 521.713867188 343.713867188 c 1
 535.142578125 361.428710938 l 1
283.142578125 43.7138671875 m 1
 295.713867188 42 296.286132812 50 299.428710938 59.142578125 c 0
 324 131.428710938 326.857421875 225.142578125 349.142578125 299.713867188 c 1
 336.571289062 293.713867188 335.713867188 274.857421875 332.571289062 263.142578125 c 0
 313.428710938 190.857421875 306.571289062 115.142578125 283.142578125 44 c 1
 283.142578125 43.7138671875 l 1
652.286132812 316.571289062 m 1
 640.857421875 316 l 1
 640.571289062 305.142578125 640.857421875 294.286132812 651.142578125 288 c 1
 652.286132812 316.571289062 l 1
273.142578125 123.428710938 m 1
 257.713867188 125.428710938 263.428710938 119.713867188 259.713867188 111.142578125 c 0
 256 102.571289062 234.857421875 38 237.713867188 35.4287109375 c 0
 276.571289062 36 264 96.2861328125 272.857421875 123.428710938 c 1
 273.142578125 123.428710938 l 1
718.286132812 56.2861328125 m 1
 684.571289062 146 l 1
 688 118.571289062 682.286132812 88 694.286132812 62.857421875 c 1
 684 48.5712890625 l 1
 718 56.2861328125 l 1
 718.286132812 56.2861328125 l 1
EndSplineSet
Validated: 524321
EndChar

StartChar: N
Encoding: 78 78 20
Width: 1000
GlyphClass: 1
Flags: MW
HStem: 21.4287 14.5713
VStem: 334 14.2861
LayerCount: 2
Fore
SplineSet
752 674.286132812 m 1
 747.713867188 576.857421875 749.142578125 479.428710938 747.142578125 381.713867188 c 0
 746 316.857421875 744.286132812 248.857421875 737.713867188 182.571289062 c 0
 733.142578125 138 724.286132812 91.4287109375 715.428710938 47.7138671875 c 1
 719.142578125 43.142578125 786.571289062 38.857421875 799.428710938 36 c 0
 805.713867188 34.5712890625 824 29.7138671875 825.713867188 21.4287109375 c 1
 780.571289062 15.142578125 734.286132812 20.2861328125 690.571289062 5.4287109375 c 1
 688 16.2861328125 l 1
 680.571289062 5.7138671875 l 1
 632.571289062 -5.4287109375 623.713867188 32.5712890625 598.571289062 63.7138671875 c 0
 523.142578125 157.142578125 440.857421875 272.857421875 387.142578125 384.857421875 c 0
 377.142578125 406 376.286132812 432.857421875 359.713867188 442.857421875 c 1
 356.571289062 404.571289062 350 362.571289062 348.286132812 324.286132812 c 0
 346.286132812 277.142578125 346.857421875 53.4287109375 364.571289062 21.7138671875 c 0
 370.857421875 10.5712890625 383.142578125 15.7138671875 380.286132812 0.5712890625 c 1
 317.142578125 -2 241.142578125 -16.857421875 201.142578125 50.5712890625 c 1
 213.142578125 54.857421875 214 73.4287109375 214.857421875 87.4287109375 c 0
 224 211.713867188 220.571289062 336 234 460.571289062 c 0
 241.142578125 527.142578125 250.571289062 600.571289062 273.713867188 661.428710938 c 1
 263.142578125 676.857421875 245.713867188 676.286132812 230 688.857421875 c 0
 225.428710938 692.286132812 217.428710938 693.713867188 228.857421875 698.286132812 c 0
 238.286132812 702 285.713867188 707.428710938 294.857421875 704.286132812 c 0
 300.571289062 702.286132812 329.142578125 675.713867188 336.857421875 668.857421875 c 0
 396.286132812 615.428710938 448 549.713867188 506.286132812 494.571289062 c 0
 520.857421875 479.142578125 591.428710938 360.857421875 598.571289062 358 c 0
 601.142578125 357.142578125 610.286132812 356.571289062 610 360.857421875 c 0
 592.571289062 468.857421875 568.286132812 582.286132812 586.571289062 692 c 1
 554.857421875 710.857421875 l 1
 635.142578125 724.571289062 715.428710938 705.713867188 796 705.713867188 c 0
 807.428710938 704.571289062 812.857421875 690.571289062 802.857421875 682.286132812 c 1
 752.286132812 674.286132812 l 1
 752 674.286132812 l 1
320 642.571289062 m 1
 304 653.142578125 l 1
 297.142578125 637.428710938 l 1
 317.713867188 632 l 1
 320 642.571289062 l 1
340 528.571289062 m 1
 332.857421875 536.286132812 327.713867188 551.428710938 317.713867188 558.286132812 c 1
 306.286132812 532 l 1
 335.713867188 533.428710938 345.142578125 496 370.571289062 489.713867188 c 1
 378 498 344.286132812 523.713867188 340 528.286132812 c 1
 340 528.571289062 l 1
334 353.142578125 m 1
 324 389.142578125 359.428710938 464.571289062 315.713867188 468.857421875 c 1
 320 433.142578125 320.286132812 396.571289062 324.857421875 360.857421875 c 0
 326 351.713867188 322.571289062 352 334 352.857421875 c 1
 334 353.142578125 l 1
545.142578125 210.857421875 m 1
 536 208.286132812 l 1
 535.142578125 203.428710938 536 199.428710938 538.286132812 195.142578125 c 0
 541.713867188 188.286132812 570.857421875 147.713867188 577.142578125 139.713867188 c 0
 581.142578125 134.571289062 594.286132812 117.142578125 600.286132812 121.428710938 c 1
 604.571289062 164.571289062 556 174.857421875 545.142578125 210.857421875 c 1
660 58 m 1
 664.571289062 163.428710938 l 1
 641.713867188 60.857421875 l 1
 660 58 l 1
706 137.142578125 m 1
 694 140.571289062 695.142578125 128 692.286132812 118.857421875 c 0
 688.857421875 108.286132812 674.286132812 52.2861328125 678.571289062 47.7138671875 c 1
 692.286132812 47.7138671875 l 1
 706 137.142578125 l 1
EndSplineSet
Validated: 524321
EndChar

StartChar: O
Encoding: 79 79 21
Width: 1000
GlyphClass: 1
Flags: MW
VStem: 596.857 22.8564
LayerCount: 2
Fore
SplineSet
697.428710938 219.142578125 m 1
 693.713867188 213.428710938 691.713867188 180 685.428710938 164.286132812 c 0
 657.713867188 93.4287109375 576.857421875 8.2861328125 500.571289062 -6.2861328125 c 0
 462.286132812 -13.4287109375 470.857421875 -2.5712890625 455.428710938 4 c 0
 391.713867188 32 397.428710938 52.2861328125 362.571289062 74.857421875 c 0
 334 93.4287109375 326.857421875 83.4287109375 303.142578125 123.142578125 c 0
 257.142578125 200.571289062 260.571289062 440 270.857421875 534 c 0
 295.142578125 750.286132812 548.571289062 784.857421875 668.857421875 616 c 0
 717.428710938 548 697.142578125 478 701.428710938 401.142578125 c 0
 703.142578125 369.428710938 723.142578125 245.428710938 710.857421875 226.857421875 c 0
 708.286132812 222.857421875 698.857421875 222.286132812 696.857421875 219.142578125 c 1
 697.428710938 219.142578125 l 1
537.142578125 671.428710938 m 1
 534.571289062 684.286132812 523.713867188 681.713867188 514.857421875 684 c 0
 424.571289062 707.142578125 361.713867188 654.857421875 321.142578125 582.571289062 c 1
 459.142578125 676.857421875 l 1
 537.142578125 671.428710938 l 1
606.857421875 576.286132812 m 1
 626.571289062 593.142578125 529.428710938 618.857421875 520.286132812 619.713867188 c 0
 480.571289062 623.428710938 443.428710938 596.286132812 410 579.428710938 c 1
 435.713867188 562 467.713867188 602.286132812 488.286132812 600.286132812 c 0
 506.286132812 598.571289062 543.428710938 592 565.142578125 588.571289062 c 0
 577.713867188 586.571289062 589.428710938 570.857421875 606.571289062 576.286132812 c 1
 606.857421875 576.286132812 l 1
575.142578125 550.571289062 m 1
 550 547.428710938 512.857421875 564 490.286132812 561.428710938 c 0
 487.713867188 561.142578125 444 542.571289062 442 540.857421875 c 0
 427.713867188 528.857421875 391.713867188 400 390.857421875 376.286132812 c 0
 388.857421875 327.428710938 415.428710938 269.428710938 438.571289062 226.857421875 c 0
 465.428710938 177.713867188 485.713867188 127.142578125 544.857421875 176 c 0
 604 224.857421875 599.713867188 317.142578125 596.857421875 388.571289062 c 0
 594.857421875 445.428710938 577.713867188 494.857421875 575.142578125 550.286132812 c 2
 575.142578125 550.571289062 l 1
397.428710938 557.142578125 m 1
 384.286132812 560 383.142578125 550.286132812 377.142578125 542.857421875 c 0
 344.857421875 501.713867188 328.571289062 403.428710938 334.571289062 351.713867188 c 0
 336 339.713867188 340.571289062 324.571289062 350 316.286132812 c 1
 342 399.428710938 362.857421875 482 397.428710938 557.428710938 c 1
 397.428710938 557.142578125 l 1
613.142578125 525.428710938 m 1
 594 522 l 1
 606.857421875 489.428710938 607.428710938 454.571289062 613.428710938 420.571289062 c 0
 615.428710938 409.142578125 606.571289062 401.713867188 625.713867188 404.571289062 c 1
 612.857421875 525.142578125 l 1
 613.142578125 525.428710938 l 1
626 331.713867188 m 1
 627.713867188 298.286132812 626 263.713867188 626 230.286132812 c 0
 626 227.428710938 609.142578125 210.857421875 629.142578125 214.286132812 c 0
 640.286132812 216.286132812 643.713867188 218.857421875 645.428710938 230.286132812 c 1
 635.713867188 271.428710938 637.142578125 314.857421875 631.713867188 356.286132812 c 0
 630.857421875 363.142578125 629.142578125 386 619.713867188 385.428710938 c 1
 613.142578125 367.142578125 625.428710938 343.713867188 626 331.428710938 c 1
 626 331.713867188 l 1
308.571289062 220.857421875 m 1
 286.571289062 224.286132812 299.142578125 211.142578125 302.286132812 195.428710938 c 1
 314.857421875 195.428710938 l 1
 308.571289062 220.857421875 l 1
EndSplineSet
Validated: 524325
EndChar

StartChar: P
Encoding: 80 80 22
Width: 1000
GlyphClass: 1
Flags: MW
HStem: -3.71387 28.8564 54 33.7139
VStem: 326.571 33.7148 394 24.2861
LayerCount: 2
Fore
SplineSet
427.713867188 424.857421875 m 1
 438.857421875 395.428710938 437.713867188 363.713867188 444.286132812 333.142578125 c 0
 458.857421875 266.571289062 478.857421875 207.142578125 489.428710938 137.713867188 c 0
 495.713867188 96.2861328125 490.286132812 48 509.142578125 11.142578125 c 1
 494 12.5712890625 503.428710938 -5.7138671875 492.286132812 -13.142578125 c 1
 465.428710938 6.857421875 456.857421875 -3.7138671875 430 -3.7138671875 c 0
 372.857421875 -3.7138671875 316 4.2861328125 258.857421875 1.4287109375 c 1
 258.286132812 11.4287109375 258.857421875 21.4287109375 260 31.4287109375 c 0
 267.428710938 82 297.142578125 156 301.142578125 202.286132812 c 0
 303.428710938 228.857421875 293.142578125 274 292.286132812 302 c 0
 289.713867188 408.286132812 292.286132812 523.713867188 302.286132812 629.713867188 c 0
 303.713867188 643.713867188 309.142578125 707.142578125 316.286132812 712 c 0
 340.286132812 720.857421875 364.571289062 713.713867188 386.286132812 714 c 0
 505.142578125 714.286132812 579.428710938 740.857421875 666 646.857421875 c 0
 717.713867188 590.571289062 728 571.142578125 699.428710938 497.713867188 c 0
 682.857421875 454.571289062 657.142578125 412 616.571289062 387.713867188 c 1
 572.857421875 390 537.713867188 380 496.286132812 400.286132812 c 0
 471.428710938 412.571289062 462.286132812 434 427.428710938 425.142578125 c 1
 427.713867188 424.857421875 l 1
341.142578125 636.857421875 m 1
 336.286132812 680.286132812 l 1
 337.142578125 669.428710938 320 634 341.142578125 636.857421875 c 1
336.286132812 608 m 1
 334 632 l 1
 326.571289062 620 l 1
 336.286132812 608 l 1
437.428710938 622.286132812 m 1
 427.142578125 624.857421875 426 616.571289062 421.142578125 612 c 0
 416 607.428710938 402.286132812 596.286132812 403.713867188 588.571289062 c 1
 429.142578125 582 426.286132812 606.286132812 437.428710938 622.286132812 c 1
433.142578125 565.142578125 m 0
 471.142578125 544.286132812 477.428710938 505.142578125 530 512.571289062 c 0
 544.857421875 514.571289062 574 534.286132812 576.571289062 548.286132812 c 0
 576.857421875 550.571289062 558.857421875 584.571289062 554.857421875 588 c 0
 542.571289062 598.286132812 460.857421875 620 449.142578125 608 c 0
 445.713867188 604.571289062 430.571289062 569.142578125 433.142578125 565.142578125 c 0
610.857421875 554.857421875 m 1
 613.713867188 583.713867188 l 1
 577.142578125 598 l 1
 579.428710938 590.571289062 592 586.857421875 596.286132812 580 c 0
 601.428710938 572 599.428710938 558 610.857421875 554.571289062 c 1
 610.857421875 554.857421875 l 1
447.142578125 535.713867188 m 1
 447.142578125 535.713867188 438.857421875 536.857421875 435.142578125 540.571289062 c 0
 425.142578125 550.571289062 417.428710938 567.142578125 403.713867188 569.713867188 c 1
 402 551.142578125 424.857421875 532.286132812 440 526.571289062 c 0
 448.286132812 523.428710938 449.713867188 533.142578125 447.142578125 536 c 1
 447.142578125 535.713867188 l 1
331.428710938 564.571289062 m 1
 313.142578125 568.286132812 324.857421875 540 321.713867188 530.857421875 c 1
 331.142578125 533.142578125 l 1
 331.142578125 564.571289062 l 1
 331.428710938 564.571289062 l 1
601.142578125 535.713867188 m 1
 550.857421875 487.428710938 l 2
 541.713867188 476.571289062 515.428710938 491.713867188 519.428710938 473.142578125 c 1
 560.857421875 458.571289062 586.857421875 503.428710938 601.428710938 535.713867188 c 1
 601.142578125 535.713867188 l 1
471.142578125 502 m 1
 472.571289062 511.142578125 465.428710938 518 456.857421875 516.286132812 c 1
 456.857421875 502 l 1
 471.142578125 502 l 1
331.428710938 511.713867188 m 1
 318.286132812 515.142578125 320.571289062 500.857421875 319.142578125 492.286132812 c 0
 314.286132812 464 310.857421875 434.857421875 312 405.713867188 c 1
 319.142578125 405.428710938 320.286132812 422.857421875 321.142578125 428 c 0
 324.571289062 455.142578125 322.857421875 484.571289062 331.428710938 511.713867188 c 1
500 482.857421875 m 1
 497.428710938 492.571289062 489.713867188 493.713867188 480.857421875 492.286132812 c 1
 483.428710938 482.571289062 491.142578125 481.428710938 500 482.857421875 c 1
447.142578125 468.286132812 m 1
 418.286132812 473.142578125 l 1
 440.857421875 459.428710938 l 1
 447.142578125 468.286132812 l 1
346 285.142578125 m 1
 353.142578125 324.571289062 357.142578125 355.713867188 350.857421875 396 c 1
 337.428710938 291.428710938 l 1
 346 285.428710938 l 1
 346 285.142578125 l 1
317.142578125 78.2861328125 m 1
 317.142578125 78.2861328125 317.713867188 112 307.713867188 112 c 1
 302.857421875 78.2861328125 l 1
 317.142578125 78.2861328125 l 1
461.428710938 111.713867188 m 1
 451.713867188 111.713867188 l 1
 451.713867188 87.7138671875 l 1
 461.428710938 87.7138671875 l 1
 461.428710938 111.713867188 l 1
326.571289062 49.142578125 m 1
 304.857421875 54.2861328125 285.713867188 59.7138671875 283.142578125 30 c 1
 326.571289062 34.857421875 l 1
 326.571289062 49.142578125 l 1
466.286132812 54 m 1
 452 54 l 1
 447.142578125 25.142578125 l 1
 466.286132812 25.142578125 l 1
 466.286132812 54 l 1
370 49.142578125 m 1
 360.286132812 49.142578125 l 1
 360.286132812 30 l 1
 367.428710938 30 l 1
 374.571289062 37.142578125 l 1
 369.713867188 49.142578125 l 1
 370 49.142578125 l 1
394 25.142578125 m 1
 394 49.142578125 l 2
 391.428710938 54.5712890625 376.571289062 28.2861328125 394 25.142578125 c 1
427.713867188 25.142578125 m 1
 425.428710938 44.2861328125 l 1
 418 39.142578125 417.142578125 34 418.286132812 25.142578125 c 1
 428 25.142578125 l 1
 427.713867188 25.142578125 l 1
EndSplineSet
Validated: 524325
EndChar

StartChar: Q
Encoding: 81 81 23
Width: 1000
GlyphClass: 1
Flags: MW
HStem: 290 27.4287 573.714 5.14355
VStem: 357.143 16.5713
LayerCount: 2
Fore
SplineSet
590 642.857421875 m 1
 613.428710938 618.286132812 632.286132812 582 665.713867188 578.857421875 c 1
 644.571289062 573.713867188 l 1
 650.286132812 563.428710938 660.286132812 558.857421875 666 548.857421875 c 0
 694.286132812 500.571289062 708.857421875 374.857421875 716 312.286132812 c 0
 719.428710938 282.857421875 716.571289062 224.571289062 725.713867188 200.571289062 c 0
 739.428710938 163.713867188 807.142578125 161.142578125 827.142578125 126.286132812 c 1
 796.857421875 92.5712890625 800.857421875 14.5712890625 750 8.2861328125 c 1
 731.142578125 54.857421875 680 63.142578125 650.286132812 98.5712890625 c 1
 619.713867188 60 598.857421875 17.142578125 554.571289062 4.2861328125 c 0
 517.428710938 -6.5712890625 437.142578125 9.4287109375 398.857421875 20.2861328125 c 0
 392 22.2861328125 394.286132812 29.4287109375 391.142578125 31.4287109375 c 0
 349.142578125 51.7138671875 324 102 290.286132812 137.428710938 c 1
 296.857421875 152.286132812 l 1
 244.571289062 238.571289062 246.857421875 358.857421875 264.286132812 464.571289062 c 0
 280.857421875 565.142578125 312.286132812 641.428710938 366.571289062 719.713867188 c 1
 395.428710938 715.713867188 428 732.857421875 456.857421875 729.142578125 c 0
 512.286132812 722.286132812 550.857421875 683.713867188 589.713867188 642.857421875 c 1
 590 642.857421875 l 1
444.571289062 678.286132812 m 1
 432.286132812 691.713867188 410.857421875 710.571289062 396.857421875 689.428710938 c 1
 415.713867188 696 426 675.713867188 435.142578125 671.713867188 c 0
 442 668.857421875 454.857421875 673.713867188 465.713867188 670 c 0
 492.857421875 660.857421875 518.571289062 644.571289062 545.713867188 634.857421875 c 1
 539.142578125 659.428710938 467.428710938 696.571289062 452.857421875 692.286132812 c 0
 447.713867188 690.857421875 445.428710938 684 444.571289062 678.286132812 c 1
360.857421875 595.428710938 m 1
 363.142578125 602.857421875 360.571289062 606.286132812 356.857421875 611.428710938 c 1
 346.286132812 607.713867188 l 1
 345.713867188 602.857421875 l 1
 361.142578125 595.713867188 l 1
 360.857421875 595.428710938 l 1
394.286132812 601.428710938 m 1
 378.857421875 608.571289062 l 1
 377.713867188 598.286132812 l 1
 393.713867188 596.286132812 l 1
 394.286132812 601.142578125 l 1
 394.286132812 601.428710938 l 1
375.142578125 578 m 1
 362.571289062 576.286132812 l 1
 349.142578125 534.857421875 l 1
 360.286132812 530.571289062 356 538 359.713867188 544.857421875 c 0
 365.142578125 555.713867188 369.428710938 567.428710938 374.857421875 578.286132812 c 1
 375.142578125 578 l 1
479.142578125 560 m 1
 477.142578125 564.286132812 425.713867188 564.571289062 437.142578125 549.713867188 c 1
 479.142578125 560 l 1
605.142578125 285.428710938 m 1
 612.286132812 295.428710938 591.142578125 492.571289062 582.571289062 503.142578125 c 0
 575.428710938 511.713867188 543.713867188 525.713867188 532.286132812 525.142578125 c 1
 602.857421875 483.713867188 591.428710938 385.142578125 603.142578125 301.428710938 c 1
 576.857421875 363.142578125 581.142578125 448.571289062 534 495.428710938 c 0
 458.857421875 570.286132812 375.428710938 511.713867188 373.713867188 390.286132812 c 0
 373.713867188 371.142578125 379.142578125 337.713867188 383.713867188 319.428710938 c 0
 386.857421875 307.142578125 413.428710938 234.857421875 418.286132812 228 c 0
 430 211.428710938 490.286132812 180.571289062 508.571289062 177.713867188 c 0
 532 174.286132812 550.857421875 197.142578125 568 215.142578125 c 1
 571.428710938 225.713867188 537.713867188 244 550 266 c 1
 574.286132812 266 l 1
 565.428710938 285.428710938 486 285.142578125 483.142578125 290 c 0
 483.713867188 308.857421875 487.713867188 314 502 317.428710938 c 0
 541.713867188 326.857421875 574 311.428710938 605.428710938 285.428710938 c 1
 605.142578125 285.428710938 l 1
357.142578125 398.857421875 m 1
 352.571289062 436.857421875 361.713867188 456.857421875 374.857421875 489.428710938 c 0
 376.286132812 492.857421875 386.571289062 501.713867188 376.286132812 505.428710938 c 0
 366.571289062 508.857421875 346.857421875 448.857421875 345.428710938 439.142578125 c 0
 344 427.428710938 348.857421875 405.713867188 357.142578125 398.857421875 c 1
EndSplineSet
Validated: 524325
EndChar

StartChar: R
Encoding: 82 82 24
Width: 1000
GlyphClass: 1
Flags: MW
HStem: 9.42871 16.5713
VStem: 285.714 18.2861 285.714 46.8574 350.286 37.4277
LayerCount: 2
Fore
SplineSet
350.857421875 686.857421875 m 1xd0
 337.428710938 693.428710938 l 1
 333.428710938 705.428710938 l 1
 379.142578125 711.713867188 417.713867188 742.571289062 460 702.857421875 c 1
 441.142578125 701.713867188 421.142578125 698.571289062 402.286132812 697.713867188 c 0
 373.713867188 696 378.286132812 690.857421875 350.571289062 686.571289062 c 1
 351.428710938 671.428710938 342.286132812 659.713867188 360.571289062 653.142578125 c 1
 354.571289062 638 l 1
 384.571289062 636.571289062 l 1
 382.857421875 594.571289062 l 1
 416 605.142578125 447.428710938 632.857421875 481.428710938 641.713867188 c 0
 502.571289062 647.142578125 532 647.428710938 554.286132812 647.428710938 c 1
 573.428710938 660 512.857421875 668.286132812 504.286132812 667.428710938 c 0
 483.428710938 665.713867188 434.286132812 626.571289062 426.571289062 631.428710938 c 1
 410 665.713867188 l 1
 454 658 470 699.713867188 511.713867188 703.142578125 c 0
 542.857421875 705.713867188 576 692.286132812 603.428710938 678.286132812 c 0
 621.428710938 669.142578125 667.713867188 645.428710938 649.428710938 625.142578125 c 1
 679.428710938 623.713867188 l 1
 664.857421875 601.142578125 680.286132812 610 686 597.713867188 c 0
 744.286132812 474.857421875 632 392.571289062 531.142578125 353.142578125 c 0
 525.428710938 350.857421875 520.857421875 357.142578125 522.286132812 344 c 1
 612.286132812 257.713867188 656.571289062 139.142578125 701.428710938 25.4287109375 c 1
 598.571289062 33.142578125 539.428710938 135.713867188 470.571289062 198.286132812 c 0
 464 204.286132812 461.428710938 213.428710938 450 211.142578125 c 1
 477.142578125 137.713867188 550.571289062 99.142578125 599.428710938 41.7138671875 c 1
 565.142578125 43.142578125 547.713867188 34.857421875 531.142578125 68.857421875 c 1
 533.428710938 50.857421875 l 1
 496.571289062 26.2861328125 459.142578125 157.142578125 440.857421875 139.142578125 c 1
 450.286132812 99.142578125 438.857421875 62.2861328125 423.713867188 25.4287109375 c 1
 447.713867188 21.4287109375 l 1
 413.428710938 10.5712890625 409.713867188 -1.142578125 388.286132812 -27.142578125 c 1
 386.571289062 3.142578125 l 1
 338.857421875 -1.142578125 288.286132812 -4.2861328125 242 9.4287109375 c 1
 252.857421875 26 l 1
 300.857421875 30.2861328125 l 1
 310 37.142578125 315.428710938 69.142578125 317.428710938 81.4287109375 c 0
 324.571289062 123.713867188 332.286132812 182.571289062 336 225.142578125 c 0
 344.571289062 320 340.571289062 416.571289062 348.286132812 511.428710938 c 1
 341.142578125 521.428710938 337.428710938 511.713867188 336 503.142578125 c 0
 332 479.428710938 335.142578125 450 332.571289062 424.857421875 c 0xb0
 331.428710938 414.571289062 326.286132812 405.142578125 325.428710938 394.857421875 c 0
 316.571289062 290.571289062 320 157.713867188 304 58.5712890625 c 0
 302.286132812 47.7138671875 299.713867188 32.857421875 285.713867188 37.7138671875 c 1
 288.571289062 111.142578125 284.571289062 184.286132812 289.142578125 258 c 0
 296 369.428710938 307.428710938 482.857421875 316 594.571289062 c 0
 317.713867188 616.857421875 338.286132812 651.428710938 313.142578125 660.857421875 c 1
 328.571289062 692.571289062 326.857421875 682.857421875 350.571289062 686.571289062 c 1
 350.857421875 686.857421875 l 1xd0
347.713867188 614.571289062 m 1
 337.142578125 616.286132812 336.571289062 620.857421875 338 608.286132812 c 0
 340 589.428710938 337.428710938 570.571289062 339.142578125 551.713867188 c 0
 340.286132812 540.571289062 332.286132812 534.286132812 350.286132812 536 c 1
 347.713867188 614.571289062 l 1
641.713867188 577.713867188 m 1
 648.286132812 592.571289062 l 1
 639.713867188 602 l 1
 630.857421875 602 l 1
 624 584.571289062 l 1
 641.713867188 577.713867188 l 1
653.428710938 570.857421875 m 1
 643.428710938 573.142578125 634.857421875 572.571289062 626 566.571289062 c 0
 614.857421875 559.428710938 565.713867188 479.428710938 546 458.286132812 c 0
 515.428710938 425.142578125 476.571289062 401.713867188 445.713867188 369.142578125 c 1
 470 360 469.428710938 378.571289062 476.857421875 382.286132812 c 0
 528.286132812 408.286132812 505.142578125 399.142578125 536.571289062 437.142578125 c 0
 552.857421875 456.857421875 572.571289062 474 590 492.571289062 c 0
 612.857421875 516.571289062 609.142578125 533.713867188 658 528.857421875 c 1
 653.428710938 570.857421875 l 1
412.286132812 569.428710938 m 1
 388.286132812 570.571289062 l 1
 387.713867188 558.571289062 l 1
 412 563.713867188 l 1
 412 569.713867188 l 1
 412.286132812 569.428710938 l 1
524 515.713867188 m 1
 487.428710938 546.286132812 432 543.142578125 388.857421875 528.571289062 c 1
 379.428710938 365.713867188 l 1
 408 383.142578125 391.142578125 464.857421875 432 451.428710938 c 0
 440 448.857421875 443.428710938 444 443.142578125 435.713867188 c 1
 451.713867188 435.142578125 l 1
 462.286132812 446.857421875 533.428710938 501.142578125 524.286132812 515.713867188 c 1
 524 515.713867188 l 1
643.713867188 480.857421875 m 1
 634.571289062 490 587.428710938 429.428710938 586.571289062 417.142578125 c 1
 643.713867188 480.857421875 l 1
482.286132812 240.857421875 m 1
 486.857421875 245.428710938 452.571289062 287.142578125 447.428710938 292.571289062 c 0
 442.286132812 298 432.857421875 310.571289062 424.857421875 303.428710938 c 0
 410.286132812 290.571289062 475.142578125 250.857421875 482.286132812 240.571289062 c 1
 482.286132812 240.857421875 l 1
354 71.4287109375 m 1
 340.857421875 85.4287109375 335.142578125 35.142578125 334.286132812 30 c 1
 370.286132812 28.5712890625 l 1
 354 71.4287109375 l 1
EndSplineSet
Validated: 524325
EndChar

StartChar: S
Encoding: 83 83 25
Width: 1000
GlyphClass: 1
Flags: MW
HStem: 130.571 27.1426
VStem: 347.714 10.5723
LayerCount: 2
Fore
SplineSet
769.428710938 703.713867188 m 1
 766.857421875 686.571289062 738.857421875 689.428710938 734 682.571289062 c 0
 726.857421875 672.571289062 721.428710938 581.428710938 712.857421875 557.428710938 c 0
 709.713867188 548.571289062 693.142578125 519.142578125 688.857421875 510.286132812 c 0
 684.571289062 501.428710938 685.142578125 489.142578125 674.857421875 482 c 1
 661.428710938 517.428710938 l 1
 640.571289062 528.857421875 550.571289062 519.713867188 542.286132812 538.857421875 c 1
 568.571289062 549.713867188 565.713867188 582.857421875 569.428710938 606.286132812 c 1
 547.713867188 608.857421875 l 1
 564 622.286132812 l 1
 530.857421875 624.286132812 533.713867188 609.142578125 520.571289062 592.857421875 c 0
 495.713867188 561.713867188 463.142578125 538.857421875 474.571289062 492.571289062 c 0
 476.857421875 483.428710938 499.428710938 439.713867188 506.286132812 434.857421875 c 0
 512.571289062 430.286132812 523.428710938 431.142578125 531.428710938 424.857421875 c 0
 585.713867188 382.571289062 564.857421875 400 628.857421875 381.713867188 c 0
 642.571289062 377.713867188 706 350.571289062 712.571289062 340.857421875 c 0
 718.571289062 332 724.571289062 295.713867188 725.713867188 283.713867188 c 0
 734.286132812 171.428710938 651.713867188 51.7138671875 546.286132812 15.7138671875 c 0
 456.286132812 -15.142578125 378.286132812 -23.142578125 309.713867188 51.7138671875 c 0
 243.713867188 123.713867188 262.857421875 221.142578125 239.713867188 308.571289062 c 1
 269.142578125 327.428710938 277.142578125 298 281.142578125 297.428710938 c 0
 295.142578125 295.142578125 351.428710938 309.713867188 369.713867188 311.713867188 c 1
 391.428710938 281.428710938 401.713867188 234.571289062 429.142578125 208.571289062 c 0
 469.142578125 170.286132812 556.571289062 168.571289062 523.142578125 243.142578125 c 0
 517.713867188 255.428710938 470 307.713867188 459.142578125 314.286132812 c 0
 450.286132812 319.713867188 438.857421875 317.713867188 435.428710938 320.571289062 c 0
 433.428710938 322.286132812 436 330.857421875 431.142578125 336 c 0
 420.286132812 347.428710938 384.286132812 363.428710938 369.713867188 376 c 0
 354.286132812 389.428710938 338 408.857421875 329.428710938 427.428710938 c 0
 306.286132812 476.857421875 308 612.286132812 342.857421875 655.713867188 c 0
 348.286132812 662.571289062 356.286132812 660.571289062 361.713867188 665.142578125 c 0
 392.286132812 691.142578125 419.428710938 708 459.428710938 719.142578125 c 0
 511.713867188 733.713867188 581.142578125 721.428710938 634.857421875 716.571289062 c 0
 679.713867188 712.571289062 725.142578125 709.428710938 770.286132812 703.142578125 c 1
 769.428710938 703.713867188 l 1
607.428710938 644.286132812 m 1
 691.142578125 644.286132812 l 2
 692.857421875 644.286132812 718.857421875 676 702 676.571289062 c 1
 696.571289062 660.571289062 586 662.857421875 607.142578125 644.286132812 c 1
 607.428710938 644.286132812 l 1
390.571289062 622.286132812 m 1
 374.857421875 622.286132812 l 1
 380.286132812 525.428710938 l 1
 395.142578125 600 l 1
 390.571289062 622.571289062 l 1
 390.571289062 622.286132812 l 1
688.571289062 622.571289062 m 1
 656 612 l 1
 682.571289062 606.857421875 l 1
 688.286132812 622.857421875 l 1
 688.571289062 622.571289062 l 1
428.857421875 374 m 1
 437.142578125 382.857421875 378.286132812 441.142578125 372.286132812 450 c 0
 361.142578125 466.857421875 360.857421875 492.857421875 342.286132812 503.713867188 c 1
 345.713867188 448.286132812 382.571289062 401.713867188 428.857421875 374 c 1
596.571289062 249.428710938 m 1
 596.857421875 267.713867188 600.857421875 301.142578125 575.142578125 303.428710938 c 0
 572.571289062 300.571289062 585.142578125 251.713867188 596.571289062 249.428710938 c 1
336 275.428710938 m 1
 324.571289062 281.142578125 312.857421875 286.571289062 304.571289062 273.713867188 c 1
 327.428710938 243.142578125 321.428710938 190 332.571289062 155.713867188 c 0
 334.857421875 148.286132812 340 145.142578125 347.713867188 146.571289062 c 1
 336 275.428710938 l 1
369.142578125 271.142578125 m 1
 354 274.571289062 357.428710938 263.713867188 358.286132812 252.286132812 c 0
 361.142578125 219.713867188 382.571289062 191.142578125 380 157.713867188 c 1
 396.286132812 158.857421875 421.428710938 151.142578125 428.571289062 168.286132812 c 1
 385.428710938 170.286132812 367.428710938 234 369.142578125 271.142578125 c 1
304.286132812 146.857421875 m 1
 304.286132812 158.857421875 307.428710938 175.142578125 293.713867188 179.428710938 c 1
 293.713867188 167.428710938 290.571289062 151.142578125 304.286132812 146.857421875 c 1
469.428710938 130.571289062 m 1
 439.713867188 128.857421875 407.428710938 130.571289062 377.428710938 130.571289062 c 0
 376.571289062 130.571289062 367.713867188 122 369.428710938 119.713867188 c 0
 398.857421875 112.571289062 448 119.713867188 478.857421875 126.571289062 c 0
 484 127.713867188 495.142578125 128.286132812 493.713867188 135.713867188 c 1
 484.571289062 139.713867188 474 130.571289062 469.428710938 130.286132812 c 1
 469.428710938 130.571289062 l 1
358.571289062 125.142578125 m 0
 356.286132812 128.286132812 339.142578125 131.142578125 336.857421875 122.286132812 c 0
 329.428710938 93.7138671875 371.142578125 107.428710938 358.571289062 125.142578125 c 0
477.428710938 87.142578125 m 1
 445.142578125 87.142578125 l 1
 445.142578125 81.7138671875 l 1
 477.428710938 81.7138671875 l 1
 477.428710938 87.142578125 l 1
477.428710938 38.5712890625 m 1
 369.142578125 49.4287109375 l 1
 376 30.857421875 413.428710938 29.4287109375 432.286132812 28.2861328125 c 0
 443.428710938 27.7138671875 473.142578125 25.4287109375 477.142578125 38.5712890625 c 1
 477.428710938 38.5712890625 l 1
EndSplineSet
Validated: 524325
EndChar

StartChar: T
Encoding: 84 84 26
Width: 1000
GlyphClass: 1
Flags: MW
HStem: -10.2861 21G 508.571 100.857 511.143 40.2861 679.429 34.5713
VStem: 460 41.4287 472 29.4287 472 117.143
LayerCount: 2
Fore
SplineSet
770.857421875 551.428710938 m 1xb2
 775.142578125 547.713867188 809.713867188 553.428710938 816.571289062 536.286132812 c 1
 810.571289062 528 806.571289062 514.286132812 795.428710938 511.142578125 c 0xb2
 778.571289062 506.286132812 704.286132812 504.857421875 680 504 c 0
 657.142578125 503.428710938 612.286132812 511.142578125 596.857421875 508.571289062 c 0xd2
 590 507.428710938 586.857421875 508.571289062 584.286132812 500.286132812 c 0
 589.428710938 395.428710938 587.142578125 290.571289062 589.142578125 185.428710938 c 0
 589.713867188 156.286132812 589.142578125 46 595.428710938 29.142578125 c 0
 598 22.2861328125 611.713867188 28.857421875 606.857421875 13.142578125 c 1
 567.713867188 16.2861328125 525.713867188 0.2861328125 486.857421875 4.5712890625 c 0
 455.142578125 8 444.571289062 37.142578125 428.571289062 -10.2861328125 c 1
 418.286132812 -1.142578125 414.286132812 12 411.142578125 24.5712890625 c 0
 378.286132812 151.428710938 377.428710938 272.571289062 397.142578125 400.857421875 c 0
 400 418.857421875 425.428710938 521.428710938 419.713867188 527.142578125 c 1
 186 521.428710938 l 1
 203.428710938 534.571289062 206.286132812 546.571289062 214.571289062 566.286132812 c 1
 197.713867188 582.571289062 l 1
 247.142578125 598 237.142578125 657.713867188 258.857421875 690.857421875 c 0
 270.286132812 708.286132812 273.142578125 674.857421875 274 673.713867188 c 2
 282 672.857421875 l 1
 358 681.142578125 440.857421875 708 516.286132812 714 c 0
 583.713867188 719.428710938 653.142578125 709.713867188 720.286132812 713.142578125 c 1
 738.571289062 708.571289062 760.857421875 559.428710938 771.142578125 551.142578125 c 1
 770.857421875 551.428710938 l 1xb2
600.571289062 679.428710938 m 1
 559.713867188 679.428710938 l 1
 559.713867188 673.713867188 l 1
 600.571289062 673.713867188 l 1
 600.571289062 679.428710938 l 1
349.428710938 661.713867188 m 1
 273.428710938 650 l 1
 273.428710938 626.857421875 l 1
 336.571289062 648.571289062 l 1
 349.428710938 661.713867188 l 1
694.286132812 620.857421875 m 1
 594.857421875 609.428710938 l 1
 616.857421875 610.571289062 640 607.713867188 662 609.428710938 c 0xd0
 669.142578125 610 693.142578125 611.713867188 694.286132812 620.857421875 c 1
302.571289062 580 m 1
 261.713867188 586 l 1
 259.142578125 562.571289062 295.428710938 564 302.571289062 580 c 1
559.713867188 474.857421875 m 1
 556.857421875 510 l 1
 542.857421875 500.571289062 553.713867188 488.571289062 554 474.857421875 c 1
 559.713867188 474.857421875 l 1
483.713867188 504 m 1
 459.713867188 508.286132812 476 469.142578125 478 457.428710938 c 1
 483.713867188 504 l 1
472 42.2861328125 m 1x94
 472 153.428710938 l 1x92
 460 74.857421875 l 1x98
 462.857421875 62.5712890625 451.428710938 37.7138671875 472 42.5712890625 c 1
 472 42.2861328125 l 1x94
524.857421875 48.2861328125 m 1
 501.428710938 83.142578125 l 1x98
 501.428710938 42.2861328125 l 1x94
 524.857421875 48.2861328125 l 1
EndSplineSet
Validated: 524325
EndChar

StartChar: U
Encoding: 85 85 27
Width: 1000
GlyphClass: 1
Flags: MW
VStem: 290.286 107.714 538.286 120.571 544.286 124.285
LayerCount: 2
Fore
SplineSet
629.713867188 687.713867188 m 1xa0
 634.857421875 699.142578125 l 1
 643.713867188 700.286132812 646.286132812 693.713867188 648.857421875 686.857421875 c 0
 655.713867188 669.428710938 669.713867188 557.428710938 668.571289062 536.571289062 c 0xa0
 667.713867188 519.428710938 659.713867188 504.857421875 658.857421875 491.142578125 c 0
 653.713867188 388 668 286.571289062 654.857421875 183.428710938 c 0
 650.286132812 148 632.571289062 68.2861328125 618.857421875 36.2861328125 c 0
 616.571289062 31.142578125 614.857421875 27.4287109375 608.857421875 26.5712890625 c 0
 574.286132812 38.857421875 551.713867188 9.4287109375 528.571289062 5.4287109375 c 0
 498 0.2861328125 467.713867188 4 429.428710938 -2 c 0
 386.571289062 -8.857421875 319.142578125 79.7138671875 290.286132812 108 c 1
 278 298 279.713867188 489.142578125 282.857421875 679.713867188 c 1
 303.428710938 639.142578125 l 1
 309.142578125 688.286132812 l 1
 333.428710938 692.286132812 355.428710938 696.571289062 369.142578125 673.142578125 c 0
 421.428710938 584.286132812 393.142578125 382.286132812 398 277.142578125 c 0
 401.713867188 194 414.571289062 159.428710938 504.571289062 150.571289062 c 1
 538.286132812 203.428710938 l 1xc0
 544.286132812 665.142578125 l 1
 498.857421875 670.857421875 l 1
 526.857421875 731.713867188 580.286132812 712.857421875 629.713867188 688 c 1
 629.713867188 687.713867188 l 1xa0
629.428710938 666.857421875 m 1
 610 668 l 1
 621.428710938 634.571289062 l 1
 627.713867188 634.571289062 l 1
 629.713867188 666.857421875 l 1
 629.428710938 666.857421875 l 1
EndSplineSet
Validated: 524321
EndChar

StartChar: V
Encoding: 86 86 28
Width: 1000
GlyphClass: 1
Flags: MW
VStem: 360.286 17.4277
LayerCount: 2
Fore
SplineSet
378 699.713867188 m 1
 433.713867188 717.142578125 l 1
 461.142578125 668.286132812 l 1
 447.142578125 655.428710938 l 1
 473.142578125 560.286132812 471.428710938 460.286132812 488.857421875 363.428710938 c 0
 490.857421875 352.286132812 486.286132812 340.571289062 499.428710938 332.286132812 c 1
 530.571289062 406.571289062 540.857421875 494 592.857421875 557.428710938 c 1
 572.286132812 564.286132812 l 1
 614.571289062 608.286132812 602.571289062 688.286132812 669.142578125 706.571289062 c 1
 677.142578125 666 l 1
 752.286132812 651.142578125 l 1
 746.286132812 642 752.857421875 630.286132812 750.286132812 622 c 0
 741.713867188 595.428710938 715.428710938 596 751.713867188 578.571289062 c 1
 665.713867188 387.713867188 624 175.713867188 506 0 c 1
 420.571289062 50.5712890625 392 160.857421875 361.713867188 250.571289062 c 0
 312.286132812 398 285.713867188 544.857421875 273.713867188 699.713867188 c 1
 288.857421875 704 302.286132812 681.713867188 311.713867188 681.428710938 c 0
 319.713867188 681.142578125 341.428710938 698.286132812 356.571289062 693.142578125 c 1
 360.286132812 727.713867188 l 1
 375.713867188 728 377.713867188 711.428710938 377.713867188 700 c 1
 378 699.713867188 l 1
419.713867188 658 m 1
 398.857421875 654.286132812 l 1
 407.713867188 632.857421875 402.571289062 600 426.571289062 588.571289062 c 1
 419.713867188 658 l 1
EndSplineSet
Validated: 524321
EndChar

StartChar: W
Encoding: 87 87 29
Width: 1000
GlyphClass: 1
Flags: MW
VStem: 639.714 12.8574
LayerCount: 2
Fore
SplineSet
747.428710938 708 m 1
 747.428710938 708 758.571289062 691.142578125 768.571289062 694.286132812 c 1
 738.286132812 574 706.857421875 447.713867188 686.857421875 325.142578125 c 0
 668.857421875 214 670 105.713867188 652.571289062 -4.5712890625 c 1
 640 -2 641.142578125 8.2861328125 639.713867188 18 c 0
 619.428710938 144.286132812 638.571289062 314.857421875 660.857421875 441.428710938 c 0
 672 505.428710938 700.857421875 584.857421875 708 645.713867188 c 0
 709.428710938 657.713867188 714.857421875 662.571289062 701.142578125 671.713867188 c 1
 690.857421875 664 689.713867188 652.286132812 686.857421875 641.142578125 c 0
 650.286132812 500.286132812 637.713867188 325.428710938 619.713867188 180 c 0
 616 150 600 110.286132812 598 86.2861328125 c 0
 596.571289062 69.4287109375 625.142578125 32.5712890625 620.571289062 27.7138671875 c 1
 606.857421875 25.4287109375 587.713867188 24 575.428710938 18 c 0
 555.713867188 8.5712890625 587.428710938 9.142578125 582 2 c 1
 536.857421875 2 l 1
 543.142578125 40.2861328125 l 1
 498 46.857421875 l 1
 503.428710938 90.5712890625 513.713867188 138.286132812 492.286132812 179.428710938 c 0
 488.857421875 186 495.713867188 191.713867188 478.857421875 188.571289062 c 1
 460.571289062 118.857421875 435.142578125 26.5712890625 369.428710938 -11.142578125 c 1
 375.713867188 21.142578125 l 1
 363.142578125 14.5712890625 l 1
 321.428710938 139.713867188 316.571289062 284.571289062 277.428710938 408.857421875 c 0
 254 483.428710938 211.713867188 592.286132812 182 666.571289062 c 0
 179.142578125 674 170 668.857421875 169.428710938 674.571289062 c 0
 174 685.713867188 270.286132812 711.713867188 278.571289062 703.142578125 c 1
 273.713867188 676.857421875 293.713867188 670.857421875 303.713867188 654.286132812 c 0
 336.286132812 598.857421875 362 540 388.571289062 481.428710938 c 0
 396 473.428710938 403.142578125 500.286132812 404.571289062 504.286132812 c 0
 413.713867188 528.857421875 414 573.142578125 446.571289062 568.571289062 c 1
 440.286132812 556 l 1
 487.142578125 546.857421875 500.857421875 496 530.286132812 465.428710938 c 1
 536.286132812 492.857421875 540.286132812 520.571289062 548 547.713867188 c 0
 554.286132812 569.713867188 596 694.857421875 604.571289062 703.713867188 c 0
 622.571289062 722.571289062 722.571289062 716 747.428710938 708 c 1
659.142578125 671.713867188 m 1
 630.857421875 671.428710938 643.142578125 625.713867188 640 607.428710938 c 1
 659.142578125 671.713867188 l 1
459.428710938 497.713867188 m 1
 450.286132812 504.571289062 419.428710938 424 416.857421875 414.857421875 c 0
 415.428710938 410 401.142578125 397.713867188 418 394.857421875 c 0
 434.857421875 392 436.286132812 426.857421875 446.571289062 437.142578125 c 0
 455.713867188 446.286132812 470.571289062 445.428710938 479.142578125 456 c 1
 460 498 l 1
 459.428710938 497.713867188 l 1
337.142578125 472 m 1
 326.286132812 471.713867188 323.142578125 476.286132812 325.428710938 463.713867188 c 0
 328.286132812 447.428710938 334.857421875 416 350 407.713867188 c 1
 337.142578125 472.286132812 l 1
 337.142578125 472 l 1
517.428710938 233.713867188 m 1
 524 285.142578125 l 1
 510.857421875 282.571289062 490.571289062 228.286132812 517.428710938 233.713867188 c 1
356.286132812 240 m 1
 344 230.857421875 l 1
 369.428710938 195.142578125 l 1
 375.142578125 218.571289062 364.571289062 222.857421875 356.571289062 240 c 1
 356.286132812 240 l 1
395.142578125 53.142578125 m 1
 427.428710938 162.571289062 l 1
 384 86.857421875 l 1
 382.857421875 74 373.713867188 48 395.142578125 52.857421875 c 1
 395.142578125 53.142578125 l 1
EndSplineSet
Validated: 524321
EndChar

StartChar: X
Encoding: 88 88 30
Width: 1000
GlyphClass: 1
Flags: MW
HStem: 412.571 21G
LayerCount: 2
Fore
SplineSet
506.857421875 461.142578125 m 1
 514.571289062 496.286132812 598.286132812 685.428710938 614.286132812 693.428710938 c 1
 664.857421875 667.142578125 730 689.713867188 785.713867188 677.713867188 c 1
 805.142578125 650.286132812 785.713867188 642 781.142578125 621.713867188 c 0
 763.142578125 542 751.713867188 489.142578125 707.142578125 423.142578125 c 0
 685.142578125 390.857421875 656.571289062 378.571289062 649.142578125 334.571289062 c 0
 649.142578125 329.142578125 664.286132812 321.713867188 669.428710938 312.286132812 c 0
 682.857421875 288.857421875 701.428710938 248.571289062 713.142578125 222.571289062 c 0
 728.571289062 188.571289062 790.286132812 54.2861328125 795.713867188 28.5712890625 c 0
 798 17.7138671875 803.428710938 12 792.286132812 3.142578125 c 1
 580.857421875 4.2861328125 l 1
 559.713867188 14.5712890625 518.571289062 147.713867188 506.857421875 180.286132812 c 0
 504.286132812 187.713867188 511.428710938 195.428710938 495.142578125 192.857421875 c 1
 421.428710938 2.5712890625 l 1
 348 0.5712890625 l 1
 341.713867188 9.4287109375 405.713867188 120.286132812 412.857421875 137.142578125 c 0
 419.428710938 152.286132812 462.857421875 265.142578125 464 272.286132812 c 0
 466 284 459.713867188 303.428710938 450.286132812 307.713867188 c 1
 339.713867188 8.857421875 l 1
 293.142578125 5.4287109375 l 1
 307.428710938 59.4287109375 l 1
 289.142578125 33.142578125 261.142578125 -25.142578125 242.571289062 25.7138671875 c 1
 213.713867188 12.5712890625 l 1
 347.713867188 346.286132812 l 1
 316.857421875 451.142578125 257.142578125 538.286132812 234.857421875 648.571289062 c 1
 259.428710938 659.142578125 l 1
 264.571289062 705.142578125 l 1
 280.286132812 707.142578125 281.428710938 680.286132812 295.713867188 678.571289062 c 0
 315.713867188 676.286132812 363.713867188 726.286132812 382.571289062 714 c 1
 389.713867188 701.713867188 l 1
 388.571289062 645.713867188 431.142578125 562.286132812 456.857421875 517.428710938 c 0
 462.857421875 506.857421875 496.286132812 450.857421875 506.857421875 461.142578125 c 1
742.857421875 613.713867188 m 1
 691.142578125 626.857421875 686.286132812 589.713867188 662.286132812 542 c 1
 704 530.286132812 l 1
 742.857421875 613.713867188 l 1
581.428710938 336.286132812 m 1
 661.713867188 534.286132812 l 1
 652.286132812 533.428710938 648.857421875 520.571289062 644.286132812 512.286132812 c 0
 628.286132812 484.571289062 576.286132812 394.857421875 568.286132812 370.571289062 c 0
 564.857421875 359.713867188 564.286132812 348.571289062 563.713867188 337.428710938 c 1
 581.428710938 336.286132812 l 1
382 412.571289062 m 1
 365.428710938 441.428710938 351.428710938 475.142578125 332 501.142578125 c 1
 334.286132812 472.571289062 354.286132812 449.428710938 364.571289062 426.286132812 c 0
 374 404.857421875 367.142578125 367.713867188 400 368.286132812 c 1
 323.713867188 209.142578125 l 1
 360.571289062 241.713867188 377.713867188 309.142578125 405.142578125 354 c 0
 408.571289062 359.428710938 412.286132812 361.142578125 417.428710938 359.142578125 c 0
 419.142578125 362 386.286132812 405.428710938 382 413.142578125 c 1
 382 412.571289062 l 1
442.286132812 427.428710938 m 0
 451.713867188 437.428710938 414.286132812 480.857421875 403.713867188 478.286132812 c 1
 406 468 434.571289062 419.142578125 442.286132812 427.428710938 c 0
578.857421875 98.2861328125 m 1
 591.428710938 101.428710938 594 113.713867188 593.713867188 128.571289062 c 1
 581.142578125 125.428710938 578.571289062 113.142578125 578.857421875 98.2861328125 c 1
644.571289062 76.2861328125 m 1
 637.142578125 88.5712890625 596.571289062 30.5712890625 617.428710938 15.7138671875 c 1
 644.571289062 76.2861328125 l 1
EndSplineSet
Validated: 524321
EndChar

StartChar: Y
Encoding: 89 89 31
Width: 1000
GlyphClass: 1
Flags: MW
HStem: 504.286 5.14258
LayerCount: 2
Fore
SplineSet
722.857421875 686 m 1
 712 664 l 1
 739.428710938 670.857421875 758.286132812 638.571289062 776.571289062 632.286132812 c 0
 780 631.142578125 831.142578125 629.142578125 816.571289062 614.571289062 c 1
 761.428710938 608.857421875 l 1
 783.428710938 592.286132812 l 1
 738.286132812 607.428710938 734.857421875 580 706.286132812 556.286132812 c 0
 655.142578125 514 587.428710938 479.142578125 590 402 c 0
 590.286132812 391.713867188 600.571289062 396.857421875 602 386 c 0
 614 292.571289062 587.142578125 172 596 77.142578125 c 0
 598.857421875 48 605.713867188 54.5712890625 629.142578125 44.2861328125 c 1
 586.857421875 -1.7138671875 l 1
 474.857421875 8.2861328125 l 1
 480.286132812 -19.142578125 l 1
 458.286132812 -24.857421875 l 1
 466.286132812 -1.7138671875 439.713867188 23.4287109375 437.142578125 34 c 0
 435.142578125 42.2861328125 442.571289062 53.4287109375 441.428710938 65.142578125 c 0
 438.286132812 97.4287109375 422.571289062 129.428710938 419.713867188 159.713867188 c 0
 414.571289062 213.428710938 419.428710938 314.571289062 419.142578125 374.571289062 c 0
 419.142578125 395.428710938 430.286132812 418.286132812 430.857421875 439.428710938 c 1
 384.571289062 488.571289062 326.857421875 540.857421875 288.286132812 595.713867188 c 0
 280.857421875 606.286132812 265.713867188 644 263.713867188 646 c 0
 260.571289062 649.142578125 246.286132812 644.286132812 243.142578125 660.857421875 c 0
 243.142578125 665.142578125 266.571289062 676.857421875 273.142578125 677.428710938 c 0
 299.142578125 679.713867188 350.571289062 667.428710938 377.142578125 670.571289062 c 0
 393.428710938 672.571289062 396.571289062 698.571289062 415.428710938 690.857421875 c 1
 424.286132812 676 447.142578125 662.857421875 456 650.571289062 c 0
 460.571289062 644.286132812 460.571289062 633.428710938 466.571289062 625.142578125 c 0
 478.571289062 608 490.571289062 590.857421875 504.857421875 575.428710938 c 1
 512 575.428710938 562 687.713867188 584 692 c 1
 579.142578125 707.713867188 l 1
 610.286132812 720.286132812 607.142578125 712.286132812 629.713867188 706 c 0
 640.286132812 703.142578125 651.428710938 703.428710938 661.428710938 699.142578125 c 0
 681.142578125 690.857421875 691.713867188 663.142578125 722.286132812 685.713867188 c 1
 722.857421875 686 l 1
634.857421875 669.428710938 m 1
 630.286132812 650 622.571289062 630.857421875 618.571289062 611.142578125 c 0
 617.713867188 607.713867188 608.571289062 591.142578125 621.142578125 592.286132812 c 0
 625.713867188 592.571289062 674.571289062 672.571289062 634.857421875 669.142578125 c 1
 634.857421875 669.428710938 l 1
656.857421875 620 m 1
 664.857421875 612 690 645.142578125 670.571289062 652.857421875 c 1
 656.857421875 620 l 1
460.857421875 567.142578125 m 0
 446.571289062 584.286132812 429.428710938 607.142578125 414.571289062 622.857421875 c 0
 410.286132812 627.428710938 392.571289062 647.713867188 386.857421875 642 c 1
 410.286132812 586 477.713867188 558.571289062 486 493.428710938 c 1
 499.713867188 498.857421875 l 1
 500 532 478.286132812 546 460.857421875 567.142578125 c 0
442 504.286132812 m 1
 453.428710938 515.428710938 365.142578125 609.713867188 359.428710938 628.286132812 c 1
 315.428710938 625.428710938 l 1
 417.142578125 509.428710938 l 1
 442.286132812 504.286132812 l 1
 442 504.286132812 l 1
728.286132812 625.428710938 m 1
 706.571289062 630.857421875 l 1
 695.428710938 598 l 1
 728.571289062 625.428710938 l 1
 728.286132812 625.428710938 l 1
579.713867188 234.286132812 m 1
 579.713867188 319.713867188 l 2
 579.713867188 323.142578125 574.571289062 344 563.142578125 338.857421875 c 1
 558 312.857421875 563.428710938 270.286132812 568.571289062 242.571289062 c 0
 570.286132812 233.428710938 565.142578125 233.142578125 579.428710938 234.286132812 c 2
 579.713867188 234.286132812 l 1
EndSplineSet
Validated: 524325
EndChar

StartChar: Z
Encoding: 90 90 32
Width: 1000
GlyphClass: 1
Flags: MW
HStem: 15.7139 23.7148 624.286 70.5713
VStem: 299.714 18.5723
LayerCount: 2
Fore
SplineSet
759.713867188 668.857421875 m 1
 759.713867188 668.857421875 750.571289062 666.571289062 747.142578125 659.713867188 c 0
 726.571289062 617.142578125 711.428710938 570 689.713867188 526.571289062 c 0
 640 427.142578125 582.286132812 330 527.428710938 233.428710938 c 1
 534.857421875 223.428710938 535.428710938 224.857421875 546 226.857421875 c 0
 587.142578125 234.857421875 658.571289062 254.857421875 696.857421875 255.142578125 c 0
 723.713867188 255.142578125 722.857421875 203.713867188 724.571289062 178.286132812 c 0
 726 157.713867188 725.713867188 42.857421875 717.428710938 34.2861328125 c 1
 686.286132812 37.7138671875 653.142578125 13.142578125 628.571289062 9.142578125 c 0
 609.142578125 6 570.286132812 3.4287109375 549.142578125 2.2861328125 c 0
 473.713867188 -1.4287109375 400 17.4287109375 327.142578125 2.2861328125 c 1
 330.286132812 14.5712890625 l 1
 195.713867188 15.7138671875 l 1
 188.571289062 39.4287109375 l 1
 267.713867188 52.857421875 l 1
 338.857421875 182.571289062 393.713867188 319.142578125 455.142578125 453.428710938 c 0
 465.142578125 475.428710938 498.857421875 529.142578125 502.857421875 547.428710938 c 0
 503.713867188 551.713867188 504 558 499.713867188 556.571289062 c 2
 281.142578125 501.142578125 l 1
 276.857421875 520.286132812 296.571289062 509.428710938 299.713867188 528.571289062 c 0
 301.142578125 537.428710938 295.142578125 635.142578125 293.142578125 645.428710938 c 0
 292 651.713867188 290 657.428710938 284.571289062 661.713867188 c 0
 275.428710938 668.857421875 249.713867188 663.142578125 256.286132812 676.286132812 c 0
 258.286132812 680.571289062 297.428710938 704 302.571289062 704 c 0
 309.713867188 704 315.142578125 694.857421875 324.571289062 694.857421875 c 0
 430.286132812 692.571289062 555.713867188 713.142578125 665.713867188 710.286132812 c 0
 682.857421875 710 696.857421875 693.713867188 702.286132812 715.713867188 c 1
 746 710.857421875 l 1
 758.857421875 700.857421875 766.571289062 684.857421875 759.428710938 668.571289062 c 1
 759.713867188 668.857421875 l 1
379.713867188 636.571289062 m 1
 318.286132812 648.857421875 l 1
 327.428710938 618.286132812 l 1
 379.713867188 636.571289062 l 1
459.713867188 624.286132812 m 1
 411.713867188 625.142578125 364.857421875 611.142578125 318 602.857421875 c 1
 340 598.571289062 l 1
 459.428710938 624.286132812 l 1
 459.713867188 624.286132812 l 1
342.857421875 575.142578125 m 1
 318.286132812 575.142578125 l 1
 318.286132812 562.857421875 l 1
 342.857421875 569.142578125 l 1
 342.857421875 575.142578125 l 1
373.713867188 556.571289062 m 1
 356.571289062 549.142578125 318 558.286132812 318.286132812 532 c 1
 373.713867188 556.571289062 l 1
509.142578125 513.428710938 m 1
 520.571289062 518 528.286132812 533.142578125 527.428710938 544.286132812 c 1
 516 539.713867188 508.286132812 524.571289062 509.142578125 513.428710938 c 1
386 125.713867188 m 1
 401.713867188 133.713867188 407.713867188 158.857421875 410.571289062 174.857421875 c 1
 386 125.713867188 l 1
422.857421875 76.2861328125 m 1
 434.286132812 80.857421875 442 96 441.142578125 107.142578125 c 1
 429.713867188 102.571289062 422 87.4287109375 422.857421875 76.2861328125 c 1
386 101.142578125 m 1
 355.142578125 64.2861328125 l 1
 373.428710938 58 l 1
 385.713867188 101.142578125 l 1
 386 101.142578125 l 1
650.571289062 100.857421875 m 1
 640.571289062 105.713867188 605.142578125 92.5712890625 613.713867188 88.5712890625 c 1
 650.571289062 94.857421875 l 1
 650.571289062 100.857421875 l 1
299.713867188 58 m 1
 316.286132812 56.5712890625 326.857421875 74 324.286132812 88.857421875 c 1
 299.713867188 58 l 1
EndSplineSet
Validated: 524325
EndChar

StartChar: backslash
Encoding: 92 92 33
Width: 1000
GlyphClass: 1
Flags: W
LayerCount: 2
Fore
SplineSet
308.286132812 683.428710938 m 1
 315.428710938 667.713867188 l 1
 336.571289062 674.286132812 358.571289062 678 379.428710938 685.142578125 c 0
 392.857421875 689.713867188 416.571289062 716.857421875 431.428710938 694.286132812 c 0
 446.286132812 671.713867188 457.142578125 585.713867188 466 554.286132812 c 0
 510.857421875 395.428710938 560.571289062 208.857421875 673.142578125 85.7138671875 c 0
 688.857421875 68.5712890625 712.571289062 57.142578125 718.286132812 34 c 1
 692.286132812 44.5712890625 661.713867188 19.7138671875 634 13.142578125 c 0
 616.571289062 9.142578125 535.428710938 -0.857421875 523.428710938 6.857421875 c 0
 522.286132812 7.4287109375 517.713867188 18.857421875 524.857421875 18.2861328125 c 0
 542.286132812 19.4287109375 535.428710938 38.857421875 534 52 c 1
 447.428710938 228.857421875 360 408.571289062 306.571289062 599.428710938 c 0
 299.142578125 626.571289062 293.713867188 651.142578125 291.713867188 679.142578125 c 1
 308 683.428710938 l 1
 308.286132812 683.428710938 l 1
404 402.571289062 m 1
 344.571289062 632.286132812 l 2
 344 634 355.428710938 646.857421875 352 648.571289062 c 2
 329.142578125 648.571289062 l 1
 352.857421875 573.142578125 370.857421875 495.713867188 394 420 c 0
 396 413.428710938 395.142578125 398.857421875 404.286132812 402.571289062 c 1
 404 402.571289062 l 1
585.713867188 34.2861328125 m 1
 551.428710938 88.857421875 l 1
 540.286132812 69.7138671875 556 46.857421875 558.571289062 27.142578125 c 1
 585.713867188 34.2861328125 l 1
618.286132812 42.857421875 m 1
 614 57.7138671875 603.713867188 72 594.571289062 84.2861328125 c 0
 590.857421875 89.4287109375 588.857421875 100 581.428710938 96.857421875 c 1
 588.286132812 81.142578125 594.286132812 38 618.286132812 43.142578125 c 1
 618.286132812 42.857421875 l 1
679.142578125 52.857421875 m 1
 642.286132812 83.7138671875 l 1
 658 48 l 1
 679.142578125 52.857421875 l 1
EndSplineSet
Validated: 524325
EndChar

StartChar: a
Encoding: 97 97 34
Width: 1000
GlyphClass: 1
Flags: MW
VStem: 349.143 41.4287
LayerCount: 2
Fore
SplineSet
590.286132812 318 m 1
 634.286132812 246 635.428710938 179.428710938 664.286132812 109.428710938 c 0
 677.713867188 76.5712890625 723.713867188 52.857421875 690.286132812 2.857421875 c 0
 678.571289062 -10.2861328125 590.571289062 26 578 37.7138671875 c 0
 556 58.5712890625 556.857421875 117.142578125 518.857421875 127.142578125 c 1
 517.142578125 159.713867188 l 1
 490.286132812 119.713867188 l 1
 503.713867188 102.571289062 l 1
 478.571289062 94.5712890625 l 1
 500 78.857421875 466.286132812 23.4287109375 452.571289062 11.7138671875 c 0
 434.857421875 -3.4287109375 366.571289062 2.2861328125 353.142578125 15.4287109375 c 0
 343.713867188 24.5712890625 354 46.857421875 349.142578125 60.2861328125 c 0
 346.286132812 68.5712890625 328.286132812 77.4287109375 321.713867188 88.5712890625 c 0
 295.713867188 131.713867188 299.428710938 202.571289062 297.713867188 252.286132812 c 1
 348.857421875 222 323.428710938 263.428710938 322.571289062 294 c 0
 322.286132812 307.142578125 320.857421875 359.713867188 325.713867188 365.428710938 c 0
 340.286132812 382.571289062 407.142578125 382 428.857421875 374.571289062 c 1
 438 396.286132812 l 1
 514.286132812 390 550.286132812 383.428710938 590.571289062 317.713867188 c 1
 590.286132812 318 l 1
390.571289062 284.571289062 m 1
 400 314.857421875 l 1
 373.713867188 327.142578125 l 1
 376.571289062 312.571289062 366.857421875 282.286132812 390.571289062 284.571289062 c 1
536 300 m 1
 470 319.142578125 530.571289062 221.713867188 549.142578125 234.286132812 c 1
 536 300 l 1
460.286132812 81.7138671875 m 1
 510.571289062 203.713867188 l 1
 500.857421875 221.713867188 481.713867188 303.713867188 462.571289062 303.713867188 c 0
 451.142578125 303.713867188 394 248.857421875 388 237.428710938 c 0
 359.713867188 184.286132812 392.286132812 86.5712890625 460.286132812 81.7138671875 c 1
610 168.286132812 m 1
 612.857421875 210.286132812 590.857421875 254.857421875 566.286132812 287.142578125 c 1
 559.713867188 246.571289062 587.142578125 200.857421875 610 168.286132812 c 1
564.857421875 184 m 1
 572.571289062 189.713867188 553.428710938 231.713867188 548.286132812 226.571289062 c 0
 543.142578125 207.713867188 540.857421875 186 564.857421875 184 c 1
636 36.857421875 m 1
 633.142578125 47.7138671875 607.428710938 88.857421875 596 83.142578125 c 1
 595.142578125 52.857421875 601.428710938 38.5712890625 636 36.857421875 c 1
417.713867188 65.142578125 m 1
 403.428710938 70 390.571289062 60.2861328125 390.571289062 45.7138671875 c 1
 413.713867188 41.7138671875 l 1
 417.713867188 64.857421875 l 1
 417.713867188 65.142578125 l 1
EndSplineSet
Validated: 524321
EndChar

StartChar: b
Encoding: 98 98 35
Width: 1000
GlyphClass: 1
Flags: MW
VStem: 424 25.4287
LayerCount: 2
Fore
SplineSet
471.428710938 362.286132812 m 1
 516.286132812 371.142578125 564.857421875 413.142578125 613.713867188 380.286132812 c 0
 619.428710938 376.286132812 671.142578125 266.571289062 673.428710938 253.428710938 c 0
 676.857421875 232.857421875 664.571289062 126 654 111.713867188 c 0
 647.713867188 103.428710938 639.142578125 113.428710938 632 111.428710938 c 0
 610 104.857421875 604.571289062 -2.857421875 528.286132812 2.2861328125 c 0
 517.713867188 2.857421875 463.713867188 14.857421875 459.428710938 20.2861328125 c 0
 446.286132812 72.5712890625 407.142578125 122 399.428710938 176 c 0
 389.713867188 245.142578125 406.286132812 336.286132812 405.428710938 408.857421875 c 0
 404.286132812 507.142578125 373.142578125 605.713867188 396.857421875 702.857421875 c 1
 408.857421875 668.571289062 l 1
 432.857421875 662 420 694.571289062 424 708.571289062 c 1
 449.428710938 677.142578125 l 1
 470.857421875 362.571289062 l 1
 471.428710938 362.286132812 l 1
588.571289062 308.286132812 m 0
 583.713867188 315.713867188 557.713867188 333.142578125 548.286132812 332.571289062 c 0
 545.428710938 332.571289062 499.142578125 312 496.571289062 310.286132812 c 0
 492.571289062 307.428710938 456 248.571289062 455.713867188 244.857421875 c 0
 455.142578125 239.142578125 467.713867188 174.286132812 470.571289062 163.428710938 c 0
 488.286132812 94 508 86.857421875 578.286132812 73.7138671875 c 1
 587.428710938 74.857421875 l 1
 609.142578125 125.428710938 634.857421875 140.857421875 625.428710938 202.571289062 c 0
 624.286132812 210.286132812 591.713867188 303.428710938 588.571289062 308.286132812 c 0
EndSplineSet
Validated: 524321
EndChar

StartChar: c
Encoding: 99 99 36
Width: 1000
GlyphClass: 1
Flags: MW
HStem: 427.714 63.1436
LayerCount: 2
Fore
SplineSet
619.142578125 490.286132812 m 1
 619.142578125 427.713867188 l 1
 575.428710938 419.713867188 497.713867188 398.286132812 466.286132812 364.286132812 c 0
 434.857421875 330.286132812 370.857421875 220.857421875 384.857421875 174 c 0
 390.286132812 156 488 88.2861328125 504.571289062 89.7138671875 c 1
 526 102.571289062 554.571289062 109.428710938 574.571289062 122.571289062 c 0
 618.286132812 151.142578125 655.142578125 228.571289062 712.571289062 199.142578125 c 1
 699.713867188 174.571289062 719.428710938 136.857421875 718.571289062 125.142578125 c 0
 717.428710938 112 626.571289062 24.2861328125 609.142578125 17.4287109375 c 0
 508.857421875 -22.857421875 382 17.4287109375 323.428710938 105.428710938 c 0
 319.713867188 110.857421875 306.571289062 111.713867188 304.571289062 119.428710938 c 0
 298.571289062 142.286132812 312.286132812 172.286132812 312.857421875 196 c 0
 314 237.713867188 311.713867188 279.713867188 312 321.428710938 c 1
 346.857421875 325.713867188 340.571289062 353.142578125 355.428710938 381.142578125 c 0
 418.857421875 500 496 496.857421875 618.857421875 490.857421875 c 1
 619.142578125 490.286132812 l 1
690 136.857421875 m 2
 694.571289062 142 677.428710938 179.428710938 662.857421875 175.713867188 c 1
 580 105.428710938 l 1
 690 136.857421875 l 2
438.286132812 113.142578125 m 1
 414.857421875 121.142578125 l 1
 412.286132812 109.713867188 418.286132812 104.571289062 426.571289062 97.7138671875 c 1
 438.286132812 97.7138671875 l 1
 438.286132812 113.142578125 l 1
658.286132812 97.4287109375 m 1
 614.286132812 94 581.713867188 58.857421875 540.571289062 46.5712890625 c 1
 554.857421875 12 647.142578125 76.2861328125 658.286132812 97.4287109375 c 1
516.857421875 34.857421875 m 1
 510.857421875 54.857421875 486.857421875 50.857421875 469.713867188 50.2861328125 c 1
 469.713867188 42.5712890625 l 1
 516.857421875 34.5712890625 l 1
 516.857421875 34.857421875 l 1
EndSplineSet
Validated: 524321
EndChar

StartChar: d
Encoding: 100 100 37
Width: 1000
GlyphClass: 1
Flags: MW
VStem: 528 109.143
LayerCount: 2
Fore
SplineSet
594 655.428710938 m 2
 598.571289062 652.571289062 609.713867188 657.142578125 611.713867188 650.857421875 c 0
 602.286132812 597.713867188 625.428710938 546.857421875 630.286132812 496.571289062 c 0
 632.286132812 474.857421875 622 398.857421875 640.857421875 393.142578125 c 0
 652 389.713867188 694.286132812 405.428710938 694 389.713867188 c 0
 694 380.571289062 647.428710938 374.857421875 637.142578125 374.571289062 c 1
 630.857421875 368.571289062 640.857421875 227.428710938 644.857421875 206.857421875 c 0
 648.857421875 186.286132812 670.857421875 115.713867188 682.286132812 99.142578125 c 0
 693.713867188 82.5712890625 712 81.142578125 726.286132812 68.857421875 c 0
 736.857421875 59.7138671875 772.857421875 12.5712890625 764 0.5712890625 c 1
 698 -5.142578125 683.713867188 -22.857421875 624.571289062 15.7138671875 c 0
 614.857421875 22 550.571289062 71.142578125 547.142578125 76 c 0
 537.713867188 88.857421875 520 167.142578125 512.286132812 166.857421875 c 1
 473.713867188 107.428710938 434.286132812 55.4287109375 352.571289062 53.4287109375 c 1
 318.571289062 74.857421875 295.142578125 107.713867188 273.142578125 140 c 1
 292.286132812 143.142578125 l 1
 305.428710938 190.857421875 315.142578125 284.571289062 343.142578125 324.571289062 c 0
 357.142578125 344.571289062 416.857421875 394.857421875 442.286132812 398.571289062 c 0
 482.857421875 404.286132812 487.142578125 383.713867188 510 424.571289062 c 0
 556.857421875 509.142578125 520.571289062 622.286132812 528 714 c 1
 566.571289062 717.142578125 l 1
 580.286132812 707.142578125 584.571289062 661.428710938 593.428710938 655.713867188 c 2
 594 655.428710938 l 2
605.142578125 386.571289062 m 1
 607.142578125 414.571289062 603.428710938 442.857421875 595.713867188 469.713867188 c 1
 586.286132812 450 572.286132812 388.571289062 605.142578125 386.571289062 c 1
458.571289062 362.857421875 m 1
 410.571289062 351.142578125 l 1
 362.857421875 291.428710938 l 1
 392.286132812 298 401.428710938 331.142578125 426.857421875 347.713867188 c 0
 438.571289062 355.142578125 455.428710938 352.571289062 458.571289062 362.857421875 c 1
541.428710938 238 m 1
 535.142578125 333.142578125 l 1
 490.571289062 321.142578125 l 1
 487.142578125 300.571289062 499.142578125 319.428710938 508.857421875 306 c 0
 520.571289062 289.713867188 523.428710938 270.857421875 528.857421875 252.286132812 c 0
 531.713867188 242.571289062 522 234.857421875 541.713867188 237.713867188 c 1
 541.428710938 238 l 1
476.857421875 296.571289062 m 1
 456.571289062 307.428710938 434 265.142578125 426.286132812 252.857421875 c 0
 422.857421875 247.142578125 426.286132812 239.428710938 425.428710938 238.857421875 c 0
 420.571289062 235.428710938 394.857421875 230.286132812 388.857421875 216.857421875 c 1
 410.571289062 178.571289062 l 1
 439.142578125 218.571289062 455.142578125 260 515.713867188 244 c 1
 476.571289062 296.571289062 l 1
 476.857421875 296.571289062 l 1
356.571289062 273.428710938 m 1
 344 273.428710938 l 1
 337.428710938 249.713867188 l 1
 350 249.713867188 l 1
 356.286132812 273.428710938 l 1
 356.571289062 273.428710938 l 1
363.142578125 226 m 0
 370 220.286132812 399.142578125 244.857421875 394.857421875 255.713867188 c 0
 392.571289062 258 360.571289062 228.286132812 363.142578125 226 c 0
579.713867188 83.142578125 m 1
 544.857421875 220 l 1
 535.142578125 193.713867188 l 1
 557.142578125 160.286132812 548.857421875 111.142578125 579.713867188 83.142578125 c 1
382 178.571289062 m 1
 382.857421875 189.713867188 383.713867188 204.571289062 369.428710938 208.286132812 c 1
 375.713867188 178.571289062 l 1
 382 178.571289062 l 1
318.286132812 118.857421875 m 1
 318.286132812 132 322 150 305.713867188 154.571289062 c 1
 305.713867188 141.428710938 302 123.428710938 318.286132812 118.857421875 c 1
EndSplineSet
Validated: 524325
EndChar

StartChar: e
Encoding: 101 101 38
Width: 1000
GlyphClass: 1
Flags: MW
HStem: 406.571 20G
VStem: 585.429 37.4287
LayerCount: 2
Fore
SplineSet
673.142578125 144.571289062 m 1
 655.142578125 128.571289062 l 1
 672.857421875 125.142578125 l 2
 680.571289062 121.428710938 680.286132812 121.428710938 675.428710938 114.571289062 c 0
 660.286132812 93.142578125 615.428710938 64 592 50.2861328125 c 1
 601.428710938 36 l 1
 572 41.4287109375 545.428710938 3.7138671875 525.142578125 0.2861328125 c 0
 502 -3.7138671875 444.857421875 17.142578125 422 27.4287109375 c 0
 415.428710938 30.2861328125 385.713867188 43.7138671875 383.713867188 45.4287109375 c 0
 372 56.2861328125 374.286132812 76.2861328125 349.428710938 78 c 1
 367.428710938 94 l 1
 347.428710938 108.857421875 360 111.142578125 358.571289062 125.428710938 c 0
 349.142578125 210.286132812 363.713867188 234.571289062 388.571289062 311.142578125 c 0
 397.713867188 339.142578125 443.142578125 384 468.571289062 397.713867188 c 0
 494 411.428710938 529.428710938 406.857421875 554.571289062 426.571289062 c 1
 568.857421875 412.571289062 620.286132812 397.713867188 626.571289062 381.142578125 c 0
 631.428710938 368.571289062 621.713867188 351.713867188 623.142578125 338.857421875 c 0
 624.286132812 329.142578125 631.428710938 323.142578125 632.571289062 316.571289062 c 0
 633.142578125 312.571289062 624 311.142578125 622.857421875 303.428710938 c 0
 620.857421875 289.713867188 625.142578125 275.142578125 622.857421875 261.428710938 c 1
 564.286132812 205.713867188 474.857421875 210.857421875 400.286132812 189.142578125 c 0
 381.428710938 183.142578125 376.571289062 140.857421875 391.428710938 132.571289062 c 0
 396.571289062 129.713867188 498 104.857421875 505.428710938 104.286132812 c 0
 530 103.142578125 554 112.857421875 575.713867188 118.857421875 c 2
 672.286132812 144.571289062 l 1
 673.142578125 144.571289062 l 1
609.713867188 340 m 1
 602.571289062 363.428710938 610.286132812 383.428710938 580.286132812 388 c 1
 586 374.286132812 591.142578125 358.286132812 597.428710938 345.142578125 c 0
 601.428710938 337.142578125 596.286132812 335.142578125 609.713867188 340 c 1
585.428710938 283.713867188 m 1
 577.428710938 297.428710938 581.142578125 313.713867188 568.286132812 325.428710938 c 0
 561.713867188 331.428710938 518.286132812 350.286132812 510.286132812 347.142578125 c 0
 495.142578125 341.428710938 433.713867188 248 421.428710938 228 c 1
 478 241.713867188 535.713867188 251.713867188 585.428710938 283.428710938 c 1
 585.428710938 283.713867188 l 1
EndSplineSet
Validated: 524321
EndChar

StartChar: f
Encoding: 102 102 39
Width: 1000
GlyphClass: 1
Flags: MW
HStem: -160 17.4287 482.571 39.7148
VStem: 399.143 78.8574 485.143 44
LayerCount: 2
Fore
SplineSet
630 521.428710938 m 1
 639.713867188 514 627.713867188 402.857421875 620.571289062 395.428710938 c 0
 614.286132812 389.142578125 583.428710938 388 568.571289062 381.713867188 c 0
 565.142578125 380.286132812 539.428710938 365.428710938 538.286132812 364 c 0
 534.571289062 358.571289062 544.571289062 341.713867188 525.713867188 346 c 1
 528.286132812 298 536.857421875 254.857421875 529.142578125 206.286132812 c 0
 526.857421875 192 516.857421875 176.286132812 515.142578125 167.142578125 c 0
 513.428710938 157.713867188 518.857421875 160.857421875 524.286132812 161.142578125 c 0
 566.571289062 164.857421875 595.142578125 172 638.857421875 162.571289062 c 0
 644.857421875 161.142578125 659.428710938 159.713867188 660.857421875 152.857421875 c 1
 636.571289062 155.713867188 647.142578125 115.142578125 643.142578125 102.857421875 c 0
 642.286132812 100.571289062 622.857421875 62.5712890625 620.857421875 61.142578125 c 0
 609.142578125 50.5712890625 560.571289062 48 544.857421875 59.142578125 c 1
 536.286132812 52.857421875 l 1
 544.857421875 -11.4287109375 526.857421875 -74.5712890625 510.857421875 -136 c 1
 514 -142.571289062 l 1
 526.571289062 -144.857421875 530.571289062 -145.713867188 531.142578125 -160 c 1
 438 -158.857421875 l 1
 422.571289062 -172.571289062 l 1
 416 -152.571289062 l 1
 379.713867188 -144.857421875 l 1
 411.713867188 -118.857421875 l 1
 404.286132812 -89.7138671875 400.571289062 -58.5712890625 399.142578125 -28.5712890625 c 0
 393.142578125 100 405.713867188 278.857421875 430.571289062 404.857421875 c 0
 433.142578125 418.286132812 450.857421875 493.713867188 455.713867188 497.428710938 c 0
 465.142578125 504.857421875 485.428710938 508.286132812 495.142578125 522.286132812 c 1
 630 520.571289062 l 1
 630 521.428710938 l 1
497.142578125 478 m 0
 475.713867188 482.571289062 465.428710938 416.286132812 468.571289062 413.713867188 c 0
 478.857421875 405.428710938 477.713867188 424 478.857421875 426.571289062 c 0
 482 434 502 475.142578125 497.142578125 478 c 0
543.713867188 482.571289062 m 1
 528.857421875 492.571289062 516.286132812 412.286132812 518.286132812 403.142578125 c 1
 532.286132812 403.142578125 526.286132812 408.286132812 528.857421875 415.713867188 c 0
 531.713867188 423.713867188 547.142578125 480.286132812 544 482.571289062 c 2
 543.713867188 482.571289062 l 1
606.571289062 485.428710938 m 0
 592 496.286132812 591.142578125 436.286132812 597.142578125 430.571289062 c 1
 607.428710938 434.857421875 609.713867188 483.142578125 606.571289062 485.428710938 c 0
497.428710938 351.428710938 m 1
 482.857421875 351.428710938 489.713867188 345.428710938 487.142578125 338.857421875 c 0
 480.571289062 322 471.142578125 302 474.857421875 283.428710938 c 1
 482.286132812 289.713867188 500.286132812 349.428710938 497.428710938 351.713867188 c 1
 497.428710938 351.428710938 l 1
485.142578125 158.571289062 m 1
 488 270.286132812 l 1
 464.286132812 252.286132812 479.142578125 229.713867188 479.428710938 208.286132812 c 0
 479.428710938 196.857421875 477.428710938 185.142578125 478 174.286132812 c 0
 478 168.857421875 476.286132812 155.428710938 485.142578125 158.571289062 c 1
456.286132812 -80.2861328125 m 1
 454.571289062 -22.5712890625 l 1
 439.428710938 -36.2861328125 454.571289062 -62.5712890625 445.713867188 -80 c 1
 456.286132812 -80 l 1
 456.286132812 -80.2861328125 l 1
EndSplineSet
Validated: 524325
EndChar

StartChar: g
Encoding: 103 103 40
Width: 1000
GlyphClass: 1
Flags: W
LayerCount: 2
Fore
SplineSet
607.428710938 323.428710938 m 1
 594.286132812 314.857421875 l 1
 655.142578125 273.428710938 l 1
 646 262.857421875 621.428710938 290.286132812 620.286132812 288.571289062 c 0
 626 211.142578125 642.571289062 138.286132812 637.713867188 59.7138671875 c 0
 631.142578125 -43.142578125 563.428710938 -194.857421875 512 -285.428710938 c 0
 494.571289062 -316 470.571289062 -341.142578125 456.857421875 -374 c 1
 444.286132812 -361.713867188 426.571289062 -363.428710938 412.286132812 -357.713867188 c 0
 369.713867188 -340.571289062 347.428710938 -312.571289062 316.571289062 -281.142578125 c 0
 304.571289062 -268.857421875 306.286132812 -253.428710938 284.571289062 -254.286132812 c 1
 306 -242.857421875 l 1
 298.857421875 -158 376 -90.2861328125 448.571289062 -61.142578125 c 0
 490 -44.5712890625 526.571289062 -45.142578125 570 -38.857421875 c 1
 594.571289062 10 588 63.7138671875 589.713867188 116.286132812 c 0
 590 128 594 139.713867188 594 150.857421875 c 0
 594.857421875 201.428710938 579.142578125 256.857421875 598.286132812 305.428710938 c 1
 581.428710938 297.428710938 572.857421875 308.571289062 560.857421875 309.713867188 c 0
 548.857421875 310.857421875 525.428710938 301.142578125 513.713867188 296 c 0
 504.286132812 291.713867188 468 272 467.142578125 264 c 0
 466.571289062 257.428710938 475.428710938 206.857421875 478.571289062 200.857421875 c 0
 490.571289062 177.428710938 558.571289062 159.713867188 572 130.857421875 c 1
 539.142578125 132.857421875 479.713867188 143.142578125 454 163.142578125 c 0
 417.142578125 192 425.428710938 242 419.428710938 283.428710938 c 1
 415.713867188 282.286132812 392 274.286132812 393.428710938 285.428710938 c 1
 422.286132812 304.857421875 494.857421875 363.713867188 528.571289062 355.428710938 c 0
 552.286132812 349.713867188 578.571289062 320.286132812 606.857421875 322.286132812 c 1
 607.428710938 323.428710938 l 1
555.142578125 -64.2861328125 m 0
 550.857421875 -59.7138671875 537.713867188 -72.857421875 542 -77.4287109375 c 0
 546.286132812 -82 559.428710938 -68.857421875 555.142578125 -64.2861328125 c 0
498.571289062 -256 m 1
 507.428710938 -258 508.571289062 -251.713867188 512.571289062 -246 c 0
 536.286132812 -210.571289062 564.286132812 -148 579.142578125 -107.713867188 c 0
 581.713867188 -100.286132812 582.571289062 -94 581.428710938 -86.2861328125 c 1
 498.571289062 -256.286132812 l 1
 498.571289062 -256 l 1
542 -94.857421875 m 1
 534.857421875 -93.142578125 532 -96.2861328125 526.571289062 -99.142578125 c 0
 505.713867188 -110.286132812 411.428710938 -198.286132812 398.286132812 -220.286132812 c 0
 394 -227.428710938 372.286132812 -283.713867188 372 -289.428710938 c 0
 370.857421875 -313.142578125 406.286132812 -324.571289062 422.286132812 -334.286132812 c 1
 442.571289062 -294.286132812 478.286132812 -258.286132812 498 -218.571289062 c 0
 517.713867188 -178.857421875 525.713867188 -134.857421875 542 -94.857421875 c 1
428.857421875 -147.142578125 m 1
 374.571289062 -190.857421875 l 1
 350.286132812 -260.286132812 l 1
 372.857421875 -210.857421875 l 1
 428.857421875 -146.857421875 l 1
 428.857421875 -147.142578125 l 1
459.142578125 -343.142578125 m 1
 468 -304.286132812 l 1
 442 -337.142578125 l 1
 459.142578125 -343.428710938 l 1
 459.142578125 -343.142578125 l 1
EndSplineSet
Validated: 524325
EndChar

StartChar: h
Encoding: 104 104 41
Width: 1000
GlyphClass: 1
Flags: MW
VStem: 354.286 13.4277 388 30.5713 450.286 32.5713 548.571 27.7148
LayerCount: 2
Fore
SplineSet
394.571289062 66.857421875 m 2
 393.142578125 59.142578125 383.142578125 49.4287109375 390.571289062 34 c 1
 370.286132812 36.5712890625 l 1
 367.713867188 16.2861328125 l 1
 353.428710938 26.2861328125 353.713867188 56 354.286132812 72.2861328125 c 0
 355.713867188 114.857421875 367.428710938 160.857421875 370.571289062 204 c 0
 377.713867188 306 382.857421875 409.142578125 388 511.142578125 c 0
 391.428710938 576.857421875 386 643.428710938 397.142578125 708.571289062 c 1
 426.857421875 699.713867188 l 1
 434.571289062 719.428710938 l 1
 442.571289062 720.286132812 436.286132812 712.286132812 442 708.286132812 c 0
 463.713867188 693.713867188 517.142578125 715.142578125 533.142578125 684 c 1
 508.571289062 674.571289062 l 2
 502.571289062 668 507.713867188 643.713867188 506.286132812 631.142578125 c 0
 502.857421875 596 488.571289062 555.713867188 487.713867188 524.857421875 c 0
 486.571289062 487.713867188 501.142578125 438 495.142578125 397.713867188 c 1
 503.142578125 380 530.857421875 413.428710938 534.286132812 413.713867188 c 0
 550 414.857421875 562.857421875 401.428710938 578.571289062 412.857421875 c 1
 587.713867188 438 l 1
 597.428710938 397.142578125 628.571289062 386.571289062 643.713867188 348.571289062 c 1
 663.142578125 361.713867188 l 1
 665.142578125 348.571289062 650.286132812 332.571289062 648.857421875 325.142578125 c 0
 646.857421875 314.286132812 654.571289062 297.142578125 653.428710938 283.142578125 c 0
 649.713867188 238.286132812 636 86.857421875 608 59.142578125 c 0
 580 31.4287109375 549.713867188 73.142578125 548.571289062 100.571289062 c 0
 546.857421875 142.571289062 563.428710938 214 549.713867188 257.142578125 c 0
 537.142578125 296.286132812 495.428710938 258.857421875 482.857421875 237.142578125 c 1
 454.857421875 11.4287109375 l 1
 431.142578125 23.7138671875 395.142578125 -4 367.428710938 -8.5712890625 c 1
 360.286132812 9.142578125 416 25.7138671875 416.286132812 29.4287109375 c 0
 397.428710938 64.2861328125 413.713867188 99.7138671875 414 137.713867188 c 0
 414 147.142578125 416.571289062 145.713867188 404.857421875 146.571289062 c 1
 400.571289062 120.571289062 399.713867188 93.7138671875 395.142578125 68 c 1
 394.571289062 66.857421875 l 2
445.142578125 434.286132812 m 1
 450.571289062 482.286132812 l 1
 448.286132812 542 l 1
 438.571289062 517.713867188 436.286132812 480 437.142578125 453.142578125 c 0
 437.142578125 445.428710938 435.428710938 437.428710938 445.142578125 434.286132812 c 1
428 462 m 1
 418 485.428710938 441.428710938 515.142578125 416 530.571289062 c 1
 417.142578125 512.286132812 416 493.142578125 418.571289062 475.142578125 c 0
 419.713867188 466 413.142578125 461.428710938 428 462 c 1
561.428710938 373.428710938 m 2
 559.428710938 372.286132812 550.286132812 376 546.286132812 375.428710938 c 1
 548.857421875 354.571289062 l 1
 561.428710938 373.713867188 l 1
 572.571289062 362.571289062 587.142578125 352.286132812 601.713867188 366.286132812 c 1
 563.713867188 382.857421875 l 2
 561.142578125 381.142578125 562.286132812 374.286132812 561.713867188 374 c 2
 561.428710938 373.428710938 l 2
528.857421875 362 m 1
 509.428710938 360.286132812 l 1
 469.142578125 338.571289062 l 1
 488.571289062 333.142578125 504.857421875 345.142578125 523.428710938 347.142578125 c 1
 528.857421875 362 l 1
589.428710938 308 m 1
 571.142578125 314.286132812 570 292.286132812 551.713867188 294.571289062 c 1
 589.428710938 270.571289062 572 240 576.286132812 203.428710938 c 0
 577.428710938 194.571289062 569.428710938 189.142578125 584.857421875 189.713867188 c 1
 589.142578125 307.713867188 l 1
 589.428710938 308 l 1
627.428710938 282.857421875 m 1
 618 206.857421875 l 1
 638.286132812 217.428710938 632 255.142578125 638 275.142578125 c 1
 627.428710938 282.857421875 l 1
475.142578125 260.286132812 m 1
 454.857421875 262.857421875 l 1
 443.142578125 84 l 1
 451.713867188 81.7138671875 449.428710938 94.857421875 450.286132812 101.142578125 c 0
 458.857421875 154.286132812 459.142578125 210.286132812 475.142578125 260.286132812 c 1
592 81.142578125 m 1
 578 113.713867188 l 1
 570.286132812 94 l 1
 592 81.142578125 l 1
443.713867188 47.7138671875 m 0
 436.571289062 56.857421875 419.713867188 43.4287109375 426.571289062 34.2861328125 c 0
 433.428710938 25.142578125 450.571289062 38.5712890625 443.713867188 47.7138671875 c 0
EndSplineSet
Validated: 524325
EndChar

StartChar: i
Encoding: 105 105 42
Width: 1000
GlyphClass: 1
Flags: MW
VStem: 489.714 24.8574 508.571 45.7148 523.714 31.4287
LayerCount: 2
Fore
SplineSet
580.571289062 485.713867188 m 1x20
 571.142578125 469.713867188 543.428710938 485.713867188 529.428710938 476.857421875 c 1
 536.857421875 438.286132812 l 1
 546.857421875 440 l 1
 542.286132812 448.857421875 536.571289062 478.286132812 554.286132812 472.571289062 c 1x40
 555.142578125 50.5712890625 l 1
 574.571289062 35.7138671875 l 1
 552 31.7138671875 l 1
 544.857421875 42.857421875 l 1
 539.713867188 20.857421875 516 24 498 25.7138671875 c 1
 552.286132812 6.857421875 l 1
 520 -2 488.857421875 -0.2861328125 456 3.4287109375 c 1
 482.571289062 21.7138671875 l 1
 466.286132812 22.857421875 466.571289062 54.857421875 464 69.4287109375 c 0
 442.286132812 191.428710938 448 304 444.286132812 426.286132812 c 0
 443.713867188 448 431.713867188 465.713867188 444.286132812 492 c 1
 414.857421875 509.713867188 l 1
 415.713867188 535.142578125 565.713867188 492.857421875 580 485.428710938 c 1
 580.571289062 485.713867188 l 1x20
508.571289062 323.713867188 m 1
 496 452.286132812 l 1
 489.713867188 460.571289062 491.428710938 494.286132812 477.428710938 492.857421875 c 0
 469.142578125 492 469.428710938 481.428710938 474.571289062 476.286132812 c 2
 508.571289062 323.428710938 l 1
 508.571289062 323.713867188 l 1
489.713867188 122.286132812 m 1x80
 496 153.142578125 483.142578125 186.857421875 478.571289062 219.142578125 c 0
 474.286132812 248.571289062 474 279.713867188 467.428710938 308.857421875 c 0
 465.713867188 315.713867188 468 324.571289062 458.286132812 326.857421875 c 1
 460.857421875 299.428710938 461.428710938 272 464.286132812 244.571289062 c 0
 468.286132812 207.713867188 477.428710938 104.571289062 487.713867188 75.7138671875 c 0
 489.142578125 71.4287109375 490.571289062 66.5712890625 495.713867188 66.2861328125 c 1
 494 88.5712890625 491.713867188 105.142578125 500 126.857421875 c 1
 489.713867188 122.571289062 l 1
 489.713867188 122.286132812 l 1x80
514.857421875 44.857421875 m 1
 525.428710938 46.857421875 523.428710938 51.7138671875 523.713867188 59.4287109375 c 0xa0
 525.142578125 89.4287109375 523.713867188 132 522.286132812 162.857421875 c 0
 522.286132812 168.286132812 522 186.571289062 514.571289062 186.857421875 c 1
 514.571289062 45.142578125 l 1
 514.857421875 44.857421875 l 1
480.286132812 57.142578125 m 1
 475.713867188 8.5712890625 508.857421875 46.5712890625 487.713867188 56.5712890625 c 1
 480.286132812 57.142578125 l 1
550.857421875 715.428710938 m 1
 553.713867188 691.713867188 515.428710938 710.286132812 519.142578125 694.857421875 c 0
 521.428710938 684.857421875 534 665.428710938 538.571289062 650.286132812 c 0
 541.713867188 640 551.713867188 607.142578125 547.142578125 600.286132812 c 0
 527.428710938 584.286132812 477.428710938 578 456.571289062 593.142578125 c 0
 454.286132812 594.857421875 435.713867188 632.286132812 436 634.857421875 c 0
 436.286132812 637.428710938 453.142578125 682 456 686.286132812 c 0
 473.142578125 712.571289062 522.286132812 738.286132812 551.142578125 715.428710938 c 1
 550.857421875 715.428710938 l 1
476 654.857421875 m 1
 466 655.428710938 l 1
 464.286132812 630.286132812 l 1
 474.286132812 629.713867188 l 1
 476 654.857421875 l 1
EndSplineSet
Validated: 524325
EndChar

StartChar: j
Encoding: 106 106 43
Width: 1000
GlyphClass: 1
Flags: MW
HStem: 510 19.1426 600.857 10.5713
VStem: 512.571 20.5713
LayerCount: 2
Fore
SplineSet
502.286132812 529.142578125 m 1
 505.713867188 513.713867188 490.857421875 520 481.713867188 510 c 0
 462.571289062 488.857421875 485.142578125 458.286132812 492 434.286132812 c 0
 502 398.286132812 512.857421875 362 518 324.571289062 c 1
 527.713867188 324.571289062 523.142578125 346 522.286132812 352 c 0
 516.857421875 402.286132812 490.571289062 455.428710938 497.428710938 508.571289062 c 1
 508.286132812 504.571289062 512.857421875 494.286132812 516.571289062 484.286132812 c 0
 538.571289062 424.571289062 571.428710938 211.713867188 569.142578125 147.713867188 c 0
 569.142578125 140.857421875 566 136 563.713867188 130 c 1
 575.428710938 130 l 1
 590.286132812 124.286132812 560.286132812 110.571289062 556.571289062 104 c 0
 542 77.4287109375 535.142578125 52.2861328125 503.713867188 34 c 0
 463.142578125 10.2861328125 384 1.142578125 338.286132812 -18.2861328125 c 1
 357.713867188 10.857421875 333.428710938 36.857421875 302.571289062 27.7138671875 c 1
 306.286132812 78 275.142578125 120.571289062 282.571289062 170.571289062 c 1
 308.571289062 184.857421875 344.857421875 163.142578125 356.286132812 191.428710938 c 1
 370.571289062 171.713867188 l 1
 399.142578125 182 l 1
 400 201.713867188 l 1
 408.286132812 204 402.571289062 192.857421875 408.286132812 191.428710938 c 0
 430.857421875 185.142578125 435.142578125 216.857421875 436 234.857421875 c 0
 440.286132812 311.142578125 405.713867188 401.428710938 431.142578125 485.142578125 c 0
 444 527.142578125 463.428710938 524.286132812 502.286132812 529.142578125 c 1
456.286132812 329.428710938 m 1
 455.142578125 353.142578125 453.713867188 379.713867188 450.571289062 402.857421875 c 0
 449.428710938 410.571289062 448 433.713867188 441.142578125 436.857421875 c 1
 441.142578125 407.428710938 442 376.571289062 446 347.142578125 c 0
 447.142578125 339.428710938 446.571289062 331.428710938 456.286132812 329.428710938 c 1
543.428710938 119.713867188 m 1
 555.428710938 175.713867188 542.286132812 234.286132812 531.713867188 289.428710938 c 0
 530.571289062 295.142578125 530.571289062 309.713867188 523.142578125 308.857421875 c 1
 523.142578125 260.286132812 l 1
 543.428710938 119.428710938 l 1
 543.428710938 119.713867188 l 1
517.713867188 78.857421875 m 1
 497.142578125 73.7138671875 l 1
 497.142578125 63.7138671875 l 1
 504.857421875 63.7138671875 l 1
 517.713867188 78.857421875 l 1
487.142578125 63.4287109375 m 1
 466.857421875 50.5712890625 l 1
 466.857421875 42.857421875 l 1
 482.286132812 45.142578125 l 1
 487.142578125 63.142578125 l 1
 487.142578125 63.4287109375 l 1
410.286132812 27.7138671875 m 0
 400.857421875 28.5712890625 387.713867188 29.142578125 384.857421875 17.7138671875 c 1
 392 15.142578125 416.857421875 24.857421875 410.286132812 27.7138671875 c 0
466.571289062 692.857421875 m 1
 484.286132812 708 l 1
 494.571289062 690.571289062 510.857421875 695.428710938 525.713867188 688 c 0
 594.286132812 654 556.857421875 569.142578125 479.142578125 572.571289062 c 0
 447.142578125 574 416.857421875 606 384.571289062 600.857421875 c 1
 382.571289062 614 385.713867188 608.857421875 391.713867188 611.428710938 c 0
 402.286132812 616.286132812 426 618 433.142578125 626.286132812 c 0
 440.286132812 634.571289062 458 699.142578125 456.286132812 713.142578125 c 1
 466.571289062 692.857421875 l 1
512.571289062 662 m 1
 506.286132812 670.286132812 503.428710938 662 502.286132812 654.571289062 c 0
 500.286132812 639.428710938 503.713867188 621.428710938 502.286132812 606 c 1
 508.571289062 597.713867188 511.428710938 606 512.571289062 613.428710938 c 0
 514.571289062 628.571289062 511.142578125 646.571289062 512.571289062 662 c 1
543.428710938 651.713867188 m 1
 524.571289062 656 536 626.857421875 533.142578125 616 c 1
 543.428710938 651.713867188 l 1
EndSplineSet
Validated: 524321
EndChar

StartChar: k
Encoding: 107 107 44
Width: 1000
GlyphClass: 1
Flags: MW
HStem: 12.5713 11.4287 333.143 22.8574 442 34.2861
VStem: 325.429 17.1426 382.571 40 404.286 41.1426
LayerCount: 2
Fore
SplineSet
420.571289062 617.428710938 m 1xf4
 436.857421875 586.571289062 438 512.571289062 445.428710938 476.286132812 c 1
 462.286132812 474 479.142578125 480 496 478.286132812 c 0
 540.286132812 473.428710938 657.713867188 442 703.142578125 427.713867188 c 0
 719.428710938 422.571289062 736.286132812 416.857421875 748.857421875 404.857421875 c 1
 738.857421875 401.142578125 l 1
 742.857421875 391.142578125 l 1
 726 382.571289062 702.286132812 382.857421875 686.286132812 376 c 0
 636.857421875 354.857421875 584 327.713867188 533.428710938 305.428710938 c 0
 528 303.142578125 523.428710938 308.857421875 525.428710938 296.286132812 c 1
 600.857421875 248.286132812 663.142578125 172.571289062 738 125.142578125 c 0
 755.713867188 114 780.857421875 108.571289062 794.571289062 92.857421875 c 1
 734.857421875 94.857421875 705.713867188 58.5712890625 672.857421875 14.2861328125 c 1
 648.286132812 9.4287109375 l 1
 468.286132812 173.142578125 l 1
 480.857421875 140.286132812 498.857421875 87.7138671875 517.428710938 59.142578125 c 0
 527.713867188 43.4287109375 544.857421875 46 542.857421875 30 c 1
 416.857421875 12.857421875 l 1
 423.713867188 40.5712890625 l 1
 502.857421875 50 l 1
 477.142578125 81.4287109375 l 1
 474.571289062 61.4287109375 465.713867188 58.5712890625 445.713867188 58.5712890625 c 1
 463.142578125 86.5712890625 462.571289062 114 450 142.857421875 c 1
 418 153.142578125 409.142578125 188.286132812 371.142578125 172.857421875 c 1
 388.571289062 126.857421875 448.571289062 159.142578125 434.286132812 84 c 0
 431.713867188 70.857421875 420.571289062 71.7138671875 414.857421875 62.857421875 c 0
 389.713867188 21.7138671875 408.857421875 4 342.571289062 12.5712890625 c 0
 340.286132812 10.2861328125 343.713867188 -40.857421875 325.428710938 -44.5712890625 c 1
 324 -23.4287109375 333.428710938 18 302.571289062 12.5712890625 c 1
 306.857421875 24 l 1
 320 24 l 1
 320 86.857421875 l 1
 297.142578125 35.4287109375 l 1
 296.286132812 49.4287109375 298.571289062 64.2861328125 297.142578125 78.2861328125 c 0
 281.713867188 220.571289062 296.571289062 415.142578125 320.571289062 558.857421875 c 0
 330.286132812 616.571289062 357.142578125 587.713867188 337.142578125 545.142578125 c 1
 354.286132812 541.713867188 346.571289062 557.428710938 356.857421875 568.286132812 c 0
 360.286132812 572 379.713867188 583.142578125 382.857421875 579.428710938 c 2
 400 499.428710938 l 1
 401.713867188 510.857421875 404.286132812 521.142578125 404.286132812 533.142578125 c 0
 404.286132812 556.286132812 386.286132812 604 388.857421875 615.713867188 c 0
 389.428710938 618.571289062 406.286132812 622.857421875 400.286132812 636.857421875 c 1
 404.286132812 634.857421875 420.571289062 619.142578125 421.142578125 617.713867188 c 2
 420.571289062 617.428710938 l 1xf4
336.571289062 482 m 1
 334.857421875 499.428710938 354 524.857421875 339.428710938 539.142578125 c 1
 336.857421875 527.142578125 332.571289062 513.428710938 331.428710938 501.142578125 c 0
 330.857421875 494.857421875 326 480.571289062 336.286132812 482 c 2
 336.571289062 482 l 1
474 442 m 1
 451.142578125 442 l 1
 451.142578125 430.571289062 l 1
 474 430.571289062 l 1
 474 442 l 1
628.857421875 413.428710938 m 1
 624.571289062 428.571289062 551.428710938 433.428710938 548.571289062 430.571289062 c 2
 548.571289062 413.428710938 l 1
 576.571289062 420.571289062 600.571289062 412.571289062 628.857421875 413.428710938 c 1
594.286132812 367.428710938 m 1
 571.142578125 358.571289062 511.142578125 386.571289062 508.571289062 356 c 1
 594.286132812 367.428710938 l 1
456.857421875 367.428710938 m 1
 445.142578125 373.142578125 429.713867188 343.142578125 434 338.857421875 c 0
 450.571289062 336.571289062 451.142578125 356.286132812 456.857421875 367.428710938 c 1
353.713867188 344.571289062 m 1
 342.286132812 344.571289062 l 1
 342.286132812 327.428710938 l 1
 353.713867188 327.428710938 l 1
 353.713867188 344.571289062 l 1
537.142578125 333.142578125 m 1
 491.142578125 336.286132812 l 1
 480.857421875 314 l 1
 497.142578125 298.857421875 l 1
 498.286132812 314.857421875 l 1
 537.428710938 333.142578125 l 1
 537.142578125 333.142578125 l 1
382.286132812 270.286132812 m 1
 387.713867188 285.142578125 400 307.713867188 385.142578125 321.713867188 c 1
 382.286132812 311.713867188 379.142578125 298.857421875 378.286132812 288.571289062 c 0
 377.713867188 282.286132812 371.428710938 269.142578125 382.286132812 270.286132812 c 1
502.571289062 190 m 2
 505.713867188 202.571289062 495.428710938 202.857421875 489.428710938 208.286132812 c 0
 480.857421875 216.286132812 436.286132812 254.857421875 428.286132812 247.142578125 c 1
 422.571289062 178.571289062 l 1xf8
 445.142578125 172 428.857421875 213.713867188 434 218.571289062 c 0
 451.142578125 224.286132812 449.713867188 210 455.428710938 207.428710938 c 0
 470.571289062 201.142578125 488.571289062 200.286132812 502.571289062 189.713867188 c 1
 502.571289062 190 l 2
382.571289062 201.428710938 m 2
 384.571289062 203.428710938 383.428710938 218.857421875 377.142578125 221.428710938 c 2
 342.571289062 224 l 1
 344 215.713867188 380.571289062 198.857421875 382.571289062 201.142578125 c 2
 382.571289062 201.428710938 l 2
584.857421875 112 m 1
 568.286132812 129.713867188 551.428710938 160.857421875 525.713867188 167.142578125 c 1
 550.286132812 142.857421875 579.142578125 104 605.713867188 84 c 0
 613.713867188 78 622.286132812 76.5712890625 611.428710938 89.7138671875 c 0
 603.142578125 100.286132812 591.713867188 104.286132812 584.857421875 111.713867188 c 1
 584.857421875 112 l 1
657.428710938 35.4287109375 m 1
 655.142578125 51.4287109375 633.142578125 73.4287109375 617.428710938 75.4287109375 c 1
 657.428710938 35.4287109375 l 1
EndSplineSet
Validated: 524325
EndChar

StartChar: l
Encoding: 108 108 45
Width: 1000
GlyphClass: 1
Flags: MW
VStem: 387.429 18
LayerCount: 2
Fore
SplineSet
615.428710938 638.857421875 m 1
 610 594.286132812 587.142578125 561.142578125 579.428710938 516 c 0
 570.857421875 466.286132812 576.571289062 416.571289062 572.571289062 367.142578125 c 0
 569.142578125 321.713867188 548 234.857421875 557.142578125 196 c 0
 558.571289062 190.571289062 579.428710938 138.857421875 581.428710938 136.571289062 c 0
 592.857421875 122.571289062 654 142 670.571289062 149.428710938 c 0
 692.571289062 159.142578125 718.857421875 176.857421875 722.857421875 202 c 1
 747.428710938 198.857421875 754.571289062 200.286132812 761.713867188 173.142578125 c 0
 773.428710938 126.857421875 766.286132812 120.286132812 751.142578125 81.142578125 c 0
 745.142578125 65.4287109375 757.713867188 62.2861328125 734 44.5712890625 c 0
 673.428710938 -0.857421875 547.713867188 -18 488.857421875 38 c 0
 399.713867188 122.857421875 407.142578125 363.713867188 399.142578125 481.142578125 c 2
 387.428710938 657.713867188 l 1
 403.428710938 651.142578125 405.713867188 631.142578125 405.428710938 615.713867188 c 1
 447.142578125 627.713867188 l 1
 442.571289062 640.857421875 413.428710938 627.142578125 417.142578125 651.428710938 c 1
 460.571289062 662.571289062 603.713867188 693.713867188 635.713867188 663.428710938 c 0
 640.286132812 659.142578125 646.286132812 655.713867188 644.571289062 648.571289062 c 1
 615.428710938 638.857421875 l 1
554.857421875 579.428710938 m 2
 555.142578125 594.571289062 576.571289062 608.571289062 558 621.142578125 c 1
 542.857421875 582.286132812 l 1
 554.857421875 579.142578125 l 1
 554.857421875 579.428710938 l 2
512.857421875 603.428710938 m 1
 476.571289062 593.713867188 l 1
 498 519.713867188 l 1
 512.857421875 603.428710938 l 1
548.857421875 58.857421875 m 1
 489.142578125 232.286132812 l 1
 486 171.713867188 524.286132812 117.428710938 525.142578125 58.5712890625 c 1
 549.142578125 58.5712890625 l 1
 548.857421875 58.857421875 l 1
572.857421875 70.5712890625 m 1
 718.286132812 119.713867188 l 2
 734.857421875 124 732 153.142578125 713.713867188 142.286132812 c 0
 682.571289062 123.713867188 626 87.4287109375 588.286132812 88.2861328125 c 0
 586.286132812 88.2861328125 582.286132812 108.571289062 566.857421875 100.571289062 c 1
 572.857421875 70.5712890625 l 1
EndSplineSet
Validated: 524321
EndChar

StartChar: m
Encoding: 109 109 46
Width: 1000
GlyphClass: 1
Flags: MW
HStem: 25.4287 55.4287 354.571 47.7148
VStem: 608.286 14.8564
LayerCount: 2
Fore
SplineSet
370 533.428710938 m 1
 371.142578125 512.857421875 400.286132812 504.571289062 403.428710938 486 c 0
 405.713867188 472.857421875 397.428710938 460 400.857421875 444.571289062 c 0
 404 430.857421875 428.286132812 344.286132812 433.428710938 342.857421875 c 0
 446.571289062 339.428710938 460.286132812 343.428710938 472.286132812 349.713867188 c 0
 538.857421875 386 583.142578125 514.857421875 683.142578125 478.571289062 c 1
 687.142578125 456.571289062 674.857421875 463.428710938 659.142578125 463.428710938 c 1
 659.142578125 452 l 1
 667.142578125 441.428710938 670.857421875 432.286132812 673.142578125 419.142578125 c 0
 691.142578125 318.571289062 684 206 699.142578125 106.571289062 c 0
 704.571289062 71.4287109375 734.857421875 47.4287109375 703.142578125 2 c 1
 676.571289062 -16 622.571289062 24.857421875 623.142578125 -6.5712890625 c 1
 608.286132812 -6.5712890625 l 1
 596.857421875 56.857421875 554.286132812 12 535.713867188 25.4287109375 c 0
 514.857421875 40.5712890625 519.428710938 114.286132812 493.713867188 129.428710938 c 1
 452.571289062 48 l 1
 475.713867188 35.4287109375 l 1
 459.428710938 4.2861328125 436.571289062 7.7138671875 412.857421875 29.4287109375 c 1
 412 -2 l 1
 350 14.857421875 290.571289062 -37.142578125 222.857421875 -20.857421875 c 1
 285.713867188 22 l 1
 290 34 289.713867188 75.4287109375 272.571289062 80 c 1
 265.142578125 37.7138671875 233.428710938 -6.5712890625 191.428710938 -20 c 1
 187.713867188 -15.7138671875 228 67.7138671875 231.428710938 86.857421875 c 0
 257.142578125 230 267.713867188 357.142578125 334 494.857421875 c 0
 338.286132812 504 354.857421875 544.286132812 370 533.142578125 c 1
 370 533.428710938 l 1
611.142578125 425.428710938 m 1
 595.428710938 425.428710938 l 1
 594.857421875 402.286132812 l 1
 610.571289062 402.286132812 l 1
 611.142578125 425.428710938 l 1
617.428710938 354.571289062 m 1
 602.857421875 356 582.857421875 357.713867188 577.713867188 340 c 1
 617.142578125 346.857421875 l 1
 617.142578125 354.571289062 l 1
 617.428710938 354.571289062 l 1
624.286132812 315.142578125 m 1
 610.571289062 317.142578125 597.142578125 315.142578125 583.428710938 314 c 0
 575.142578125 313.142578125 544.857421875 312.571289062 545.428710938 301.713867188 c 1
 569.713867188 304.286132812 610.286132812 288.286132812 624.286132812 315.428710938 c 1
 624.286132812 315.142578125 l 1
615.428710938 276 m 1
 592 276.571289062 l 1
 590.571289062 260.286132812 588.286132812 247.142578125 602.857421875 237.142578125 c 1
 617.713867188 246.286132812 616 259.428710938 615.428710938 276 c 1
403.142578125 273.428710938 m 1
 356 274.571289062 l 1
 356 266.857421875 l 1
 402.857421875 265.713867188 l 1
 402.857421875 273.428710938 l 1
 403.142578125 273.428710938 l 1
568 261.428710938 m 1
 434.857421875 272.571289062 l 1
 422.286132812 263.428710938 434.571289062 258.286132812 446 256.571289062 c 0
 474 252.571289062 510.857421875 249.713867188 540.286132812 246.571289062 c 0
 555.142578125 244.857421875 572 238.286132812 568 261.428710938 c 1
487.713867188 200.571289062 m 1
 470.571289062 217.713867188 416.286132812 156 416 151.428710938 c 0
 415.713867188 146.571289062 426.857421875 136.857421875 439.142578125 142.857421875 c 0
 462.571289062 154.571289062 492.286132812 169.428710938 487.713867188 200.571289062 c 1
579.142578125 80.5712890625 m 1
 563.142578125 107.713867188 558.286132812 137.142578125 554 168 c 1
 518.571289062 176.286132812 l 1
 539.142578125 152.286132812 540.571289062 116.857421875 553.713867188 91.142578125 c 0
 561.713867188 75.4287109375 561.713867188 80.5712890625 579.142578125 80.857421875 c 1
 579.142578125 80.5712890625 l 1
659.142578125 133.428710938 m 1
 642.571289062 152 622.857421875 76.2861328125 646 70.857421875 c 1
 679.142578125 75.142578125 656.286132812 114.286132812 659.142578125 133.428710938 c 1
366.857421875 85.7138671875 m 1
 347.713867188 103.428710938 347.142578125 38 342 31.4287109375 c 1
 376.571289062 48.5712890625 l 1
 366.857421875 85.7138671875 l 1
445.428710938 76 m 1
 398.571289062 85.142578125 l 1
 401.142578125 53.142578125 l 1
 436 45.7138671875 l 1
 445.428710938 76 l 1
EndSplineSet
Validated: 524325
EndChar

StartChar: n
Encoding: 110 110 47
Width: 1000
GlyphClass: 1
Flags: MW
HStem: 418 7.14258<412.286 412.857>
VStem: 428.571 21.7148 559.143 60.8574
LayerCount: 2
Fore
SplineSet
629.428710938 380 m 1
 653.428710938 345.713867188 656 294.857421875 657.142578125 254 c 0
 657.713867188 239.713867188 651.142578125 224.571289062 653.428710938 207.428710938 c 0
 658 170.286132812 674.571289062 126.571289062 680 86.5712890625 c 0
 682 71.4287109375 690.857421875 -10.857421875 684.286132812 -17.7138671875 c 1
 669.713867188 -19.4287109375 682.571289062 -2 668.286132812 0 c 0
 654 2 618.857421875 -6.5712890625 601.713867188 -7.142578125 c 0
 584.571289062 -7.7138671875 564 -3.7138671875 546.857421875 -2.5712890625 c 1
 530 -21.142578125 l 1
 537.142578125 -0.857421875 534.286132812 18 536 36.857421875 c 0
 541.142578125 90.857421875 550 138 544 192.857421875 c 0
 542 212.286132812 535.713867188 262 517.428710938 270 c 0
 485.428710938 284 463.428710938 262.857421875 456.286132812 232 c 0
 445.142578125 184 451.142578125 149.428710938 450.286132812 102.857421875 c 0
 450.286132812 92.857421875 446.857421875 24 444.857421875 19.142578125 c 0
 438.857421875 6.2861328125 379.142578125 15.142578125 366.286132812 12.2861328125 c 0
 359.142578125 10.857421875 357.713867188 -0.5712890625 350 -1.4287109375 c 1
 348 23.142578125 354 48.5712890625 354 72.857421875 c 0
 354 142.857421875 354 213.142578125 352.286132812 283.142578125 c 0
 351.142578125 325.428710938 345.713867188 367.428710938 346.857421875 409.428710938 c 1
 335.142578125 415.142578125 l 1
 376.571289062 435.713867188 423.142578125 442.857421875 468.857421875 434.857421875 c 0
 479.713867188 432.857421875 496 423.428710938 503.713867188 422.857421875 c 0
 505.713867188 422.857421875 506.857421875 431.713867188 518 432.571289062 c 0
 561.142578125 436.286132812 604.857421875 414.286132812 629.428710938 379.428710938 c 1
 629.428710938 380 l 1
470.286132812 408.286132812 m 1
 476 414.286132812 484.857421875 419.713867188 476 426.286132812 c 1
 437.142578125 422.571289062 l 1
 441.713867188 389.713867188 l 2
 445.142578125 386 466.857421875 404.571289062 470.571289062 408.286132812 c 1
 470.286132812 408.286132812 l 1
412.857421875 425.142578125 m 1
 405.142578125 426 l 1
 395.713867188 415.142578125 l 1
 423.142578125 408 l 1
 424.286132812 420 l 1
 412.286132812 418 l 1
 412.286132812 425.142578125 l 1
 412.857421875 425.142578125 l 1
567.142578125 399.428710938 m 1
 554.286132812 405.428710938 l 1
 547.428710938 396.286132812 l 1
 568.857421875 371.713867188 l 1
 567.142578125 399.428710938 l 1
372 385.142578125 m 1
 383.142578125 412.286132812 l 1
 370.857421875 409.428710938 l 1
 372.286132812 385.142578125 l 1
 372 385.142578125 l 1
481.428710938 385.428710938 m 1
 487.142578125 384.571289062 492 383.142578125 496 387.713867188 c 2
 499.142578125 399.713867188 l 1
 491.713867188 396.857421875 480.857421875 395.428710938 481.428710938 385.428710938 c 1
428.571289062 383.142578125 m 1
 418.571289062 394.857421875 414.857421875 356.857421875 423.428710938 355.428710938 c 1
 428.571289062 383.142578125 l 1
467.142578125 366.571289062 m 1
 468.571289062 378.571289062 l 1
 455.428710938 370 l 1
 467.142578125 366.857421875 l 1
 467.142578125 366.571289062 l 1
604.571289062 363.713867188 m 1
 610.571289062 353.428710938 599.713867188 334.286132812 615.142578125 330.286132812 c 1
 630 331.713867188 612.286132812 370 604.571289062 363.713867188 c 1
498.857421875 359.142578125 m 0
 493.142578125 366.286132812 480 355.428710938 485.713867188 348.571289062 c 0
 491.428710938 341.713867188 504.571289062 352.286132812 498.857421875 359.142578125 c 0
444.286132812 340.857421875 m 1
 453.428710938 318 481.428710938 350.286132812 457.142578125 345.428710938 c 2
 444.286132812 340.857421875 l 1
428.286132812 233.428710938 m 2
 418.857421875 235.142578125 421.428710938 235.428710938 419.713867188 228.286132812 c 0
 416.571289062 215.142578125 417.142578125 198.286132812 415.428710938 184.571289062 c 1
 428.571289062 124 l 1
 428.571289062 233.428710938 l 1
 428.286132812 233.428710938 l 2
382.571289062 149.142578125 m 1
 384.571289062 156.571289062 384 163.142578125 376.286132812 166 c 1
 374.286132812 158.571289062 374.857421875 152 382.571289062 149.142578125 c 1
628.857421875 69.4287109375 m 1
 610 72.5712890625 625.142578125 36.2861328125 620 25.7138671875 c 1
 632 24.5712890625 l 1
 628.857421875 69.4287109375 l 1
388.286132812 92 m 1
 375.713867188 91.4287109375 382.571289062 60.5712890625 386.857421875 59.7138671875 c 0
 397.428710938 58 386.857421875 88 388.286132812 92 c 1
559.142578125 24.5712890625 m 1
 559.142578125 56.857421875 l 1
 560.286132812 47.7138671875 541.428710938 23.4287109375 559.142578125 24.5712890625 c 1
429.428710938 22.5712890625 m 1
 419.713867188 64 l 1
 405.713867188 58 415.713867188 12 429.428710938 22.5712890625 c 1
EndSplineSet
Validated: 524325
EndChar

StartChar: o
Encoding: 111 111 48
Width: 1000
GlyphClass: 1
Flags: MW
VStem: 655.143 17.4287
LayerCount: 2
Fore
SplineSet
672 5.142578125 m 1
 655.142578125 5.142578125 l 1
 649.428710938 101.142578125 l 1
 641.428710938 110.286132812 618 67.142578125 612.857421875 61.4287109375 c 0
 565.142578125 9.7138671875 506 -16.2861328125 434.571289062 -3.7138671875 c 0
 354.286132812 10.5712890625 322.857421875 81.7138671875 293.713867188 149.142578125 c 1
 321.713867188 157.713867188 l 1
 327.713867188 212.571289062 324.857421875 278.286132812 352.857421875 327.142578125 c 0
 395.428710938 401.142578125 473.713867188 434 556.571289062 423.142578125 c 0
 585.428710938 419.428710938 604 409.142578125 620.571289062 385.428710938 c 0
 670.571289062 313.428710938 654 207.713867188 655.142578125 126.571289062 c 0
 655.428710938 90 669.142578125 42.857421875 672.571289062 5.142578125 c 1
 672 5.142578125 l 1
553.428710938 394.857421875 m 1
 541.713867188 394 514.571289062 396.286132812 508.286132812 383.713867188 c 1
 518.857421875 379.428710938 555.428710938 373.428710938 553.428710938 394.857421875 c 1
496.857421875 372 m 1
 485.713867188 372 481.142578125 385.142578125 468.857421875 380.857421875 c 0
 455.428710938 376.286132812 355.713867188 300.571289062 366.857421875 287.428710938 c 1
 394.857421875 311.428710938 427.713867188 332 460.571289062 348.857421875 c 0
 474 355.713867188 498 352 496.571289062 372 c 1
 496.857421875 372 l 1
529.713867188 320.286132812 m 1
 510 331.713867188 469.713867188 307.142578125 457.428710938 290.571289062 c 0
 439.713867188 266.857421875 416 192 434.286132812 166.857421875 c 0
 439.142578125 160.286132812 450.571289062 164.571289062 451.713867188 163.428710938 c 0
 453.713867188 161.428710938 444.857421875 149.713867188 448.571289062 140.857421875 c 0
 453.142578125 130 481.142578125 103.142578125 495.142578125 102.571289062 c 0
 513.713867188 102 578.286132812 148.571289062 581.713867188 166.286132812 c 0
 586 189.428710938 571.428710938 242.286132812 562 264.857421875 c 0
 558.857421875 272.571289062 532.857421875 318.571289062 530 320.286132812 c 2
 529.713867188 320.286132812 l 1
389.713867188 242.286132812 m 1
 378.571289062 242.286132812 l 1
 378.571289062 219.713867188 l 1
 384 219.713867188 l 1
 389.713867188 242.286132812 l 1
333.142578125 174.571289062 m 1
 320.571289062 149.428710938 367.713867188 57.4287109375 386.857421875 56 c 0
 394.286132812 55.4287109375 394 62.5712890625 389.713867188 70 c 0
 382.571289062 82 371.142578125 92.5712890625 364 106.571289062 c 0
 352.857421875 128.857421875 351.142578125 158.571289062 333.142578125 174.571289062 c 1
EndSplineSet
Validated: 524321
EndChar

StartChar: p
Encoding: 112 112 49
Width: 1000
GlyphClass: 1
Flags: MW
HStem: -15.1426 21G 241.714 37.4287 287.429 14.8574 409.429 3.14258
VStem: 407.714 56.2861 472.286 18.2852 493.714 19.7148
LayerCount: 2
Fore
SplineSet
500.286132812 241.428710938 m 1
 509.142578125 225.713867188 512.286132812 204.857421875 513.428710938 187.142578125 c 0
 515.713867188 153.713867188 516 102 513.142578125 69.142578125 c 0
 511.142578125 45.4287109375 507.142578125 8.5712890625 481.428710938 2 c 0
 464 -2.5712890625 462.286132812 9.4287109375 455.713867188 -15.142578125 c 1
 451.428710938 13.7138671875 417.142578125 -9.7138671875 398 6.2861328125 c 1
 421.142578125 14.5712890625 l 1
 413.142578125 39.7138671875 409.713867188 68.857421875 407.713867188 95.142578125 c 0
 402.286132812 167.428710938 402.286132812 240.571289062 404.857421875 312.286132812 c 1
 417.713867188 436.286132812 l 1
 437.428710938 424.286132812 449.142578125 431.713867188 470 432.571289062 c 1
 473.713867188 400 l 1
 488.571289062 403.428710938 499.428710938 412 514.857421875 416.571289062 c 0
 534.857421875 422.571289062 559.428710938 427.142578125 579.142578125 418.286132812 c 0
 586 415.142578125 623.428710938 378.571289062 628.286132812 371.142578125 c 0
 635.428710938 360.571289062 648.286132812 332.571289062 643.142578125 321.142578125 c 0
 638.857421875 311.713867188 625.428710938 291.428710938 618.286132812 283.142578125 c 0
 612.286132812 276 604.571289062 267.142578125 595.428710938 264.571289062 c 1
 598.571289062 254.857421875 l 1
 585.713867188 260.286132812 565.713867188 241.713867188 557.428710938 241.713867188 c 2
 499.713867188 241.713867188 l 1
 500.286132812 241.428710938 l 1
454.286132812 412.571289062 m 1
 436 409.428710938 l 1
 427.713867188 376.571289062 l 1
 439.428710938 375.142578125 435.713867188 397.142578125 440.571289062 404 c 0
 443.713867188 408.286132812 452.857421875 405.428710938 454 412.571289062 c 1
 454.286132812 412.571289062 l 1
563.142578125 402.857421875 m 1
 546.571289062 402.857421875 l 1
 546.571289062 399.713867188 l 1
 563.142578125 396.286132812 l 1
 563.142578125 402.857421875 l 1
467.428710938 386.286132812 m 1
 460.857421875 384.571289062 l 1
 457.428710938 153.713867188 l 1
 463.142578125 110.286132812 462 65.7138671875 464 22 c 0
 464.286132812 14.5712890625 465.713867188 17.142578125 472.286132812 17.142578125 c 1
 466.857421875 122 467.713867188 226.857421875 470.571289062 332 c 0
 471.142578125 350.857421875 480.286132812 367.428710938 467.428710938 386.286132812 c 1
612.286132812 297.428710938 m 1
 624 327.428710938 l 1
 605.713867188 366.571289062 l 1
 608 340.286132812 625.428710938 322.286132812 605.713867188 297.428710938 c 1
 612.286132812 297.428710938 l 1
586 323.713867188 m 1
 590 330 571.713867188 362.286132812 566.286132812 356.571289062 c 1
 570.857421875 348.286132812 574.571289062 339.428710938 578.571289062 330.857421875 c 0
 580.857421875 326.286132812 576.571289062 321.713867188 586 323.713867188 c 1
562 304.857421875 m 1
 572.571289062 314 550.857421875 349.142578125 540 352 c 1
 490.286132812 331.428710938 l 1
 493.713867188 302.286132812 l 1
 512.571289062 301.428710938 546.286132812 291.142578125 562.286132812 304.857421875 c 1
 562 304.857421875 l 1
576.286132812 290.857421875 m 1
 563.142578125 290.857421875 l 1
 563.142578125 287.713867188 l 1
 576.286132812 284.286132812 l 1
 576.286132812 290.857421875 l 1
516.857421875 284 m 1
 490.571289062 287.428710938 l 1
 490 282.286132812 491.142578125 279.142578125 497.142578125 279.142578125 c 0
 499.713867188 279.142578125 516.857421875 280 516.857421875 284.286132812 c 1
 516.857421875 284 l 1
493.713867188 142.571289062 m 1
 493.713867188 200.286132812 l 2
 493.713867188 201.713867188 489.713867188 205.428710938 490.286132812 208.571289062 c 1
 487.142578125 208.571289062 l 1
 487.142578125 142.571289062 l 1
 493.713867188 142.571289062 l 1
490.571289062 43.7138671875 m 1
 496 54.2861328125 502 135.428710938 492.286132812 136 c 1
 487.142578125 58.857421875 l 1
 490.571289062 44 l 1
 490.571289062 43.7138671875 l 1
442.286132812 18.2861328125 m 0
 438.286132812 25.7138671875 439.142578125 39.4287109375 431.142578125 43.7138671875 c 1
 434.857421875 14.5712890625 l 1
 447.713867188 14.5712890625 l 1
 449.142578125 19.4287109375 443.428710938 16.5712890625 442.286132812 18.2861328125 c 0
EndSplineSet
Validated: 524325
EndChar

